<mxfile host="65bd71144e">
    <diagram id="d-UBZ70vHDa_mQabyQS9" name="UsecaseDiagram">
        <mxGraphModel dx="1904" dy="830" grid="1" gridSize="10" guides="1" tooltips="1" connect="1" arrows="1" fold="1" page="1" pageScale="1" pageWidth="850" pageHeight="1100" math="0" shadow="0">
            <root>
                <mxCell id="0"/>
                <mxCell id="1" parent="0"/>
                <mxCell id="VKKfzKTdM1XF6nfhbhYF-1" value="" style="rounded=0;whiteSpace=wrap;html=1;labelBackgroundColor=none;sketch=0;fontColor=#1D3557;strokeColor=#457B9D;fillColor=#A8DADC;" parent="1" vertex="1">
                    <mxGeometry x="162.5" y="270" width="490" height="410" as="geometry"/>
                </mxCell>
                <mxCell id="VKKfzKTdM1XF6nfhbhYF-2" value="" style="shape=image;verticalLabelPosition=bottom;labelBackgroundColor=#F1FAEE;verticalAlign=top;aspect=fixed;imageAspect=0;image=data:image/png,iVBORw0KGgoAAAANSUhEUgAAA7sAAADHCAYAAADYkkTRAAAAAXNSR0IArs4c6QAAAARnQU1BAACxjwv8YQUAAAAJcEhZcwAADsMAAA7DAcdvqGQAAP+lSURBVHhe7N0JvG/V+D/w3aTJmEIZMkTCL8MvSplDNBAqc4pE4l/mKVOGBlR+DaYSTZQhZIxEkopUIpFKpEQRmaf9X+/nftdpnd13PMO9597Wp9e3e84++7v3Ws/8rPWstZZrE5qKioqKioqKioqKioqKimUIy/f+raioqKioqKioqKioqKhYZlCT3YqKioqKioqKioqKioplDjXZraioqKioqKioqKioqFjmUJPdioqKioqKioqKioqKimUONdmtqKioqKioqKioqKioWOZQk92KioqKioqKioqKioqKZQ412a2oqKioqKioqKioqKhY5nCTOmf3L3/7Z3PUF7/f/O0f/25WW3Wl5rlP/N9m9VVv1vtrRUVFRUVFRUVFRUVFxbKCocnuFb/9Y/OnP/+991t/LLf8cs0qN1uxWeOWqzW3XH2VZrnlen8ocP1f/9H86urrmia9aZWVV2zuts5t+94HmuO9f06J6V1uf+s5TUaP+fIPmoOPP733W9PstM2Dmxc9ZZNm+dSHucY///2f5tIrrm3++9/+5PXOe9zpts1KK67QuzI7/OOf/24uu/L30953hzVvEXyZK/zzX/9prkh8vFPiy81Wmqzd+Hr17//c/OFPf0tC0zRr3mr1Zs1brz5QDioqKioqKioqKioqKmaDocnu7//41+bKa/7Y7PvRU5uLf3VN7+p0LJeylZVWXL65xWorN9s+8n7NLttufKPk8W//+Fdz+GfPao79yrlx39F7P7O5w21v0fvrdJzyvYubtx/+9ebvKXl7xAPv1uz70q3GTkavvOZPzY9+flXz+E3W7125AX/401+bHd/yieavf/9n89rnPaY59JPfiXYd+ZZnNHdc65a9u+YO//7Pf5vfXHt9843Un0M/eUbv6qIk943Pf2zzoPXv2Nx+jZs3K6wwN5Xk/0rJ9Y8uubp5/SFfbP5wfUooE17xnEc2T3/s/ePn2YCIfP3si5vDP3dWc9U11zfHvv1ZzZ1Twjsu0PldR57SnPHDy2N2HcjBdptv2Oz6lE1qwltRUVFRUVFRUVFRMecYmmmtcavVmvvdY+3m6Y9/QCS1sMrKKzXHpGTnjCNe2nxqvx1TwvI/kdhdmxLjIz5/dvPuo78ZyVGJVdN3dttu0+Y1Oz4qEpsTvnZ+898BOfbV1/45kiPPuOLqP8YM6TjwvE989dzm+r8uSqZKmJF815HfiJnEQ17z1JQM36t53yufHDOrH/rMd5t///u/vTvnDiumJPZOt7tVs+VmG/SuLML6667VPH7jezXrpAR7rhJdMEP8wPXXiefOBXDHLO6HTjyz2eH1Rzdvev9Xml9c+YdIqicB2SATJ5/5s+bPf/1H8NXnT3/5e5SUf+obP7yRvFRUVFRUVFRUVFRUVMwWY2Vbq61ysxvNvknUzO694lmPbDba4M69q4tmZqNUtQPJ31Mf/T/Nu//f1s1PL/9d87e//6v3l+kw2/e0x2zY3PPOazav3/kxUSI9CnKl08+9LCVOF/SuTMclV1zT/Pu//23e96onNxvc7XZx7a7rrNEc8PInN3//17+bi37x27i2OKDUez7Kpuca//znv5uTvv2T5l53Xqu53W1uHqXHM8GZF1weAxhfPOgFzRkfeVnzmh0f3dysV7otEX7/J8/oKy8VFRUVFRUVFRUVFRWzwaynFvPa04y/piT2t3/4c++3G+P+91qnOfS1Txm4FtdaUDPAZo//Z721e1eH48eX/qZ5x0e+3vwnJU/9sMHdbt8c+PInRaJZYtWVV2z2e+lWzf3Wu0PvSkXGyjdbsdltu4c2j9roHs2rnvuoZuWVRg86dCGZNbCx3//bKmbVV0iy8pRH36956dM3mxo8+cvf/9n8ccS68IqKioqKioqKioqKikkx62RXCepvf39DcnvrW6zarLPWrXq/LYIi1Wuu+0vztbN+1nzi5POaj3/13Obb510W62dLnPWjXzbHfeXcqc+XvnNR85//Di4x9lzPfNm7T5xKmL534a/iu5859YJpJbd+Pv9nV8Z1f//ct37U/OKq308roTXDW77/k18/P0qqz/7xL6Pdx3/tvOani3EWOEPbL/j5Vc2J3/xRtOvT37ggNqMaB5LJr373p9H+75x/WZR0TwpJai5jnwRm81/w5Ic0Ny8GNpZPz3nU/94jStvBY1eacLOrioqKioqKioqKioqKUZhxsitHtAPwF07/SfON7/88rq22ykrNLim5ueXqK8fvIFF779HfbPZ87+eaje93l+aRD7p7JI2vOuik5qX7nxjJWMaD73Pn5te/+2Pzvk98Oz7HfuUHMTs4CN/94S+agz7+7WhHhsTU93Kyq50/+vlvmif+v8Njw6gnP+J+zd9TArvPR09tnvOmj6dk+eKphPfed71dzEDm9x/2qTMisXzLB09ujjzpe82Bx53WPO9tn4ifB+2yPNf46eW/bZ7++mNS2//cPOkR94nNwKyBfdZex8ba52HrXS+/6g/Nc9/88ejLISd8p3nFgSfFBlZ//8cN9FrSuPsdb9useau52zG6oqKioqKioqKioqICJk52//mvf8fOurvt++lmp5T47XPkN2JTpLfs+rjmmLc/u9n2Uffr3dlEWbHEzFra5VdYvllxhRWatde8ZfPMLR4Yf//xpVc37z7qm1Ozt0qi17vTmvHzONh0w7s2n95/x2ad9MyM3bffLNaHHrP3s2KtsV2k9zzwc3H80QrLL9+ssMJyzTMe/4DmdmvcPJLhd37klOYXKSnM6JZkn3PhFc0J+z43ved5zYb3XCeS54+mZPe8n13Zu2v+cO11f2leddAXoiwcbbT/0RutF2teJdt2R5bAD8J1f/pr85E37dB84cAXxAZhcPr5v2gOOO5bAzcIWxz45dXXxQCFfuzxjIfHpmcVFRUVFRUVFRUVFRVziYmTXeWsNiyS4JoFXXHF5Ztf//aPzYHHntZ8/ls/ijNyM+yk/MOLr4rZx8uv/H3M2sKqN7shubn019cOnb2dLS5Lz7/+L/+In7/1g0viX4m3GVL4+z//1fxuwBpjm2Pt+eyHxzE5SnG333zRMT6ORToiJZqS5fnEb35/fXPdn/8W75Fgo6eEN28WpcT69ymhHYT7r3/HKCuXKD/8AXfrXU0J73mXNdcvoXWyeP2ZUy5o/pOS9U0fcNfmwfe9YXOzioqKioqKioqKioqKucLEya4jbpyl++ZdHtcc/OqnNB98w3bNzVMy+KeUUH70C99vdt/vM1PrZ63LfOuuj2/ucNtbNg9/4N2bu9zh1jGjd+Xv/hR/Bwnbf/4zf7OMj3nwPZutH7ZBc6ubr9I8bfMNY0b06t//edpu0GZw+8GO0+V6U7O+Nm6C81MS77il+YSy6i0eeu9mrdvcvHntTo9uVkyJ7h+u/+tU6bK+DGp7F7e8+cox0w1//Mvfm8uvvi5+XtxQWq3s3U7eb9xp81jDW1FRUVFRUVFRUVFRMdeYONntYoOUkL34aZv0fmuirPa9x3xrqjRZwva59+7UvPq5j2r+7xOnN18986fNbW+9+NZomsF9U0rMTz5k1+a66//W7HfUqSnR/eeMSmdvc4tVpo7NMdvqeXMNJct5MMAs7l7P37w56YCdm7/89Z+xZliCvdwMzgFaYbnlY6drcK7wH4bMCM8XlLV/+LNnxYz5O3Z7QkrAp++OXVFRUVFRUVFRUVFRMVeYdbIL919vnd5Pi2CTqL/+bdGMo1nIk8/8WfPsvY6NFG3LzTaY0TE2s4Hk8Q2Hfbl577HfivXCztid0YRi50vzcV6uc2nNdmdcdc31zdsP/3rzmoO/kGh370Vrmmf5Wu3OuyEvLpCDT57yw9hV+kNv2C4GQSoqKioqKioqKioqKuYLc5LsWrdbQpFt67+U4JjJe/MHv9L8+79t8/wnbRzH0SxOmGl+/t7HN6ecfXHzpEfct7nr2rfp/WV2UM7dPbd3tvjL3/4Zxx2tsvKiwQA7Ve++/2eaL37nJ81Wm90nJYi3j+szwX/a/04dO2QN8j0m2AhsLmDA4WNf+H6z94u3aNbvJLrHf+38eV23XVFRUVFRUVFRUVFx08OcZJ7n/nT6zsSP/t97NDdfdeU4LkciY4mpJNdOyPONvMuwjan86EzfP/TKjR2NNBvYyMrmVHD/e67T3HYGR+YMO+f2y2dcFOuJV1t50dra408+PyWJizb1WuOWq85sNroHa5TzucZKz21cNZf4V0pWJbP7fuwbzUWXTz+L2Oz0yw/8fHrnKs0Xvv2T5m0f/trUxxFUv7r6usU+CFJRUVFRUVFRUVFRsWxjrAzDcUMxXZvQ/rdt/vzXRbsb/yNdd9bth088M36H9dddq3nZ0x8WpbLOs/1XL7n7/R//GrOW3/jez5uvnvmzuAbX//WfUdqa1/iWcK2Xuw6E44zWud2ter81zVdSwvil7/yk+eLpF0Vy6L0Zrn373MvifNrfX3fD9R9f+pu+m01ZY/rr396wmdZ5Kam3VlcZ9k5bbxSzu5PCjtTX/+WGnZB1z4yu837f/+kzYgOslVZaIfptl+vc/xMS7U753sXN50778dQZv/49/2dXNr9NCXI/XPuHv/R+aqZ2yb5NSppf+JRNmhUmKMH+17/x4QZGdGdhDTAcfPzpcS7xiaf+qNl9vxOnjkRCr8M+9Z3YmOrSX/8+eFN+vn3eZdOOe6qoqKioqKioqKioqJgLjEx2JYGS1DxjKsF9+QGfb7Z46Yebrff8SPPKg74wNXO6zcPv0xz22qc2q/d2MHaW7R1ue4v4WeJ6xOfPjsRu9+0fGpsUwR/TdyViyy+3fCRvzsXNuPqa65tLr7i291t/mBF8yXabTr3zR5f8pjn8c2c3z9jiAfH7Jv9zl/gXLrnimjjCRznzA+99x97VpvnuBZf3nfWVsF/7x7803//Jr+IYoCO/8P1IoJ+XEt3/3eBOvbsGQ4J49o9/1fttESSm273u6KDfos+Hmie/8sgo9f5zSvxvudoq0Sfv2ephG0wl1Ha4/sTJ5zVPeOj6zX3utqgMGE+sg70hDV2Edde+TfP6nR6TEuifNb/8zXWxkdZHEu1t1rXfy7Zq7nePO/TuHI0/pcT8kBNOn5rRxqMvfvvCOAYpQ9q8WrEG2K7R+qD/h3/2rObrKZEfhrvfsSa7FRUVFRUVFRUVFRVzi+VSQtLNlQIun/WjX0ayNAxmIZ23qzT2tunf7nyhI4mcb+t5G9/vLs3t17hFJGk/uOiK5rIr/9Cse4dbR+Jo5+HvX/irmP0rsVxKOB/1v/do1krPHobL0vfO+9mVcVzQwx9w1+Y2t1xUYuxd51706+aSX1/b3G2dNZoHrX/HuOealMR+57xfRFK52f3vNlWSfElKrp+117HxswT6k/s+t/nTn//RnH/xlZGwK19e786j17v+OSX1J3/3pxOvRV3rNqs3j0z9dSQPmv3gp78OmtxxrVs1GyU62VHZgME3z7kk2vPwB9w9Zmszvv+TK1Ib144k2TrZsxNNzcwbeNj4vncZe2MqSe03E9+uKWaHu9gs0Vm7QFtO+8FlcTQSPruuZPsr372o+fs/FiXKg2DjLcdXVVRUVFRUVFRUVFRUzBUGJrvLIpRfWx8qETT72a8MuV+ye9tbDU+0KyoqKioqKioqKioqKhYWbjK7AknpHT/0/L1PaHZ62/HNEZ87u/eXioqKioqKioqKioqKimUNN5lkVzmx9bLKmm2aNGhTp4qKioqKioqKioqKioqlHzeZZNfmTK/f+THNfe5++1gDvPv2m/b+cgP+9Oe/N6eff1nvt0XH9Xz+tAubq665YUfmioqKioqKioqKioqKioWPm9Sa3VH4/Z/+GmfpdrHaKjdr7nz7W/d+q6ioqKioqKioqKioqFjoqMluRUVFRUVFRUVFRUVFxTKHacnub//w52afj5zS/Oe/0/Nfv3WPFIJ816C/9bs+G8xlO2bavpm8CxZCO2bynVFYXO0Y1b5hf5/JM+e6Ha7DJM8c9p2KioqKioqKioqKZRm7bLtxs+E91+79NjPcKNl96qs/Fhs4VVRUVFRUVFRUVFRUVFQsbiy33HLNwa/etnnwfe7cuzIz3GQ2qKqoqKioqKioqKioqKi46WDazK4fil8rKioqKioqKioqKioqKhY7zO7Odjlf3aCqoqKioqKioqKioqKiYplDLWOuqKioqKioqKioqKioWOZQk92KioqKioqKioqKioqKZQ412a2oqKioqKioqKioqKhY5lCT3YqKioqKioqKioqKioplDjXZraioqKioqKioqKioqFjmUJPdioqKioqKioqKioqKimUONdmtWJD49a9/3dz//vdv1l577eZ3v/td72pFRUVFRUVFxbKHn//8581qq63WPPCBD2yuuOKK3tWKiorZoia7FQsSd7zjHZv3v//9zb/+9a/mJz/5Se9qRUVFRUVFRcWyh7PPPrtZY401mk984hPNne50p97VioqK2aImuxULFptuumnzyU9+svnWt77V/Pe//+1draioqKioqKhYtnDBBRc0n/70p5v111+/d6WiomIuUJPdigWNRz3qUc16663XXH/99b0rFRUVFRUVFRXLDv7yl780j33sY5uNN964d6WiomKuUJPdZQBGA1/xilc0f/7zn3tXlg784x//aI488sjmxBNP7F25MZZbbrnmmc98ZnOrW92qd2XhwLripz3tac2FF17YuzI5Lr744mbLLbdsLr/88t6VioqFjbZtY2nBu971rlhmsBDxn//8p3nZy17WfOUrX+ldmTt49ute97rmM5/5TNCiYtnFP//5z6gu+vKXv9y7sgh+f8ELXhAJSsVw8PMHH3xw87nPfa53ZX7Bl4qHltReH2zCGWec0bzkJS9p/va3v/Wujsbqq6/ebL755r3fFib+/e9/N1/4whdCJxYX+Jh3vvOdzYc//OHelcmhMpAvOOCAA3pXKm5qWGqSXU6HwXzKU57SrLLKKs3yyy/fbLbZZs2b3/zm5tprr417JB+vetWrmoc97GGRJPk8+clPbvbbb7+poOyvf/1r8/GPfzwSrL///e9xDS666KIlWip72WWXNUcccUSs2cjtEFRdc8018XM//PGPf2yOOuqo5jGPeUyUvrh/acF5553XPP/5z4+A4eqrr+5dnY5TTjmlWXnllZub3/zmUcq80HDWWWdFwHvsscf2rkwOfWSEv/SlL/WuLCwIVPbaa6/gg3VE84kf/vCHza1vfevQ8T/96U+9qxULCb/61a+a97znPc197nOf5vTTT1+wyZ6Al7weeOCBc56Q2zjm6KOPjmSfP6lY9sAHf/e73w0ftcMOO4Tcl/jIRz7SfPSjH637SQwB28BHisH+3//7f83vf//73l/mB6q/jjnmmOZ//ud/ms9+9rORmI2Lb37zm+HjJJzf+MY3elcnh1iGfZS08mfjxpTa+oY3vCFi1g033HBo3LckgJfnnHNOJPDbbLNNDNLPJZ761KfGPi18ShdigcMOO6z50Ic+NCNbfskll0SeQA71oQsxjgkVtN9ll10WxACu2P4d73hHDNoceuihvatLDnT33ve+d+Re7N5SOcibGr1UISW97SabbNKmoLj96U9/2rs6HRdeeGG7wgorxD2//e1ve1fbNhmeNhmidp111mlvdrObtY985CPbX/7yl21SpvaQQw5pk8Hp3bl4kZL1dtNNN21ve9vbtiuttFL7f//3f+2f//znNjnYgX0sseWWW7Z3uctd2uuuu653ZfEAvfBjpjjzzDODT+9///t7V25AMjhtMk5BC3xKxrBNyXzvr4sff/vb30J+SqSAun30ox/dpsS9d2VypGCpfchDHtImg9y7cgO8c0nJZAn9fvrTn97uuOOOwZf5gHfsv//+oQcpgehdrViI+MMf/tCmgLJ94hOf2KZAoXd1YYHePPe5z21T0Nu7MjP003vPTkFfe+yxx97obxXLFk477TRRXfvBD36wd2URTjzxxPBJKcHqXakYhDPOOKNNiUT7kY98pHdl/sA/Pe95z2vvdre7tVdeeWXv6nD4ztOe9rT2fe97X/uYxzymfdKTnjR2rEH///KXv/R+WwQ2gx/bbLPNIo4bB/z/fe973zYldBHLHXHEEQvStpx77rmhD+985zt7V2YPNNL3QbZajPna1762Peigg3pXJsfVV1/d3uEOd2if9axn9a7cAO/Fq2OOOSbuOfXUU3t/WXIgu2984xvD184lrWcC/u41r3lNu+eee7Yp+W7XXXfdyE2WNix1yS5IftZcc832iiuu6F2ZDtcxZMMNN2z/+Mc/9q62kQx+6lOfCuX5+Mc/3t785jcP4ZawSLyWFH70ox+1v/nNb9rf/e537Qtf+MJIxNdff/1IMAj7KGy99dZLJNlFw0kTPcYS/3w22mijcIL3vOc9w9n8/ve/793Vtp/85Cfbz3/+82HwBRT77rtv+8UvfrH318WLv//97+3rX//6sR3XXIADfuUrXzm2w55vkK2Xv/zl8yZjAgSyf+mll/auVCxU4NXmm2++oJPducKBBx4Y+l9x08QFF1zQN9mtGB8GdE08LI5kV7zw6le/eqJk9zOf+UwkPL7Lx7/73e+O2GMcSFL322+/acmxn5/whCeMnezy9fvss0978cUXx++/+MUv2mc/+9nx70LDz3/+8zlPdk855ZRI8ud6MsNE11ZbbRWxpsGHlVdeub3d7W7XPu5xjwu9BrbdBFieFDv77LPb3XfffUH4NfQw6DEoz1lcQCuTTiYh0OX4448Pv7i0Yalds6vkQCnzJHC/xf8rrbRS84xnPKNJSWaU0aZEZoluCqBM9za3uU2TEvgo11B+p33ve9/7oqxzIcJ5cG95y1smLv222ZRyFJ+3v/3tzQorrNA897nPbVIy29ziFreIe5SspwS4SUl88Bl9lKevuuqqS6TExFojZeKLE2eeeeas1qjMNayZfu1rXxslP/OBZNhjHWQKUnpXKiqWHJJvbL761a82p512Wu9KRUXFTLDiiivGZ3FAvCC+Gxfiibvf/e7Nk570pPiuMuaXv/zlcdatOGQY/v3vfzcHHXTQtOVwIM4U14wLJaLKaMVGsO666zYf/OAHm+uuuy5+X5bBzoopnvOc50wcz4+CmAV/xJopWWtue9vbNptssklzyCGHTMUZKcmNHGCttdaK3x/84AdHOflCoD35eshDHhLl3UsS9Gn33XeP+PtmN7tZLOuwcWxX7hc6blIbVEmmCA7lsrEE4VfLbwe8jL/97W+x0VP+lAaP8OXrgxhNeT27fIZAPv8tP989+TrjRqC0y2eLLbaIdZK3v/3t4++TouxDmZyU1xn5ffbZJwyBdmVoU77Pv7mNv/zlL5udd945jIN1KdYy/exnP4s1a+5Fm1HwHk5vnXXWae5yl7vEBxgahj47RAp1//vfP56JTplWj370o8d2ZN6FR9rm+8Mcl2frh/vQK9NDIm8NiY1u8rPcl//uX8/NfXe/Z7gvf/JggHszrdxTXvfOTGe/W+tjAMBaldyuUva6z4CSt/lZXZT3+JQyTB7y9VJmMm1cv+Utbxk6Mwly/3zfc/rJiX4IDm53u9tFv4YNaGhP7of2e/4wlP3y/gx8y9fL/oJnZn77mzb3o6nrmT/uG9WWEpkuvjuILmVfB91T0leb3dPvPjSehG5doOOwtmaU7fG+fnTLMuV5pf50kd+Z7+vC370L/N0zy36Vf89Ah9x/Hz97vnsz3POd73wnBttscuPv+lPqW79nZ2hL2e5+tEaD/P2yHcNoOwyep40+JR20M1/3jhLu0Qbv9bdBsuOaZ3qG+/v1ZxDKdwySndx/z8806wd9KZ9T8qxEbq97Z9pebSG/Jc9LZH3qPjv3xbtzXwa9v6Sr7/S7Lz8Pf/3snSV9cjsy7frRpHwGZDp23+m5/a6PQn5+pll+zyDo96j3eMYo2oyLLH/9aCOeEGuUsuVd1tyKQwZBm6yptI9MSbd+yDzy7H604ffEQlnu3Gf9sHZ1oZ3ug0wjn0FyWsrYpLoA7h+mD5nvmU8Z5XX0+cAHPhATGtqT4Vnue/jDHx6/Z9r85je/aXbccceILzN8L/d7HOR+3uEOd4jziiW34ksTJ/e6171iUAPufOc7x8+ZRvoo7sYTQO/cDx/35Wf7N3/PZxAPSmR+kJeSH77rWn6W6+TPOtl8Tdu6yHKb/z5OG0q43/d8Hy9ye0o4Bst9ua/uI5vW75Zwjz7lNuC7+/07CFl3fIbdNxe4SSW7CG92ipGyCYFEz8iJkR7AJBsbUAyJ8Qtf+MLYOCpDovfqV786NhD43ve+11cwCILNKyiLZ3iXxebg+d///vdjVOSNb3zj1OiRdr3tbW9rjj/++NjlzgY9j3/845vzzz8//j4JGAyL8LXT+81au+bdNoWSsLr+sY99LGYP7U6XlUiAZ3bt1FNPjd0mLdYX8Em+bNBhhtMGEHYflrCCjaNcv+qqq+L3QSDMe+65Z8xcoz3jN2hmmNCb1daHz3/+883+++8fm44ZmOin8F3Y3OGlL31pPENf/PvQhz40NpXpwuyNkVz9NQpo0zPt8h78wXMJHkX/4he/2Jx88snRvnPPPTfoQ+lPOOGEeJZ73v3ud8f9aPz+978/eAuMkrZI6m2a495vf/vbzbOf/ezmfve7X/wNGAu0zgfKa5/3Xnnllc1rXvOaeK6PXawzLdCQPD7wgQ9sXvziF0/JWwkygL+PfOQj4/u5siHDO/fee+/gd77u/qc//emxeZZNtHbdddfmEY94RGzmNg70RZuNUtMrsmdgiTxlGNX2XJswkAub/jzoQQ9qTjrppN4dN8Cu42b4bS5HfunRi170oqHHUtm0zoZ0BpTcnx2qyoT3vve94djwP1/HW7qpugJPfPcJT3hCbBxXAk/wmjy4X5v9Po7BJld77LFH0EVfdtppp9hkDg8zOHqbdtj87Gtf+1oMuBjs6e78ffjhh4cuoZ1dMrfffvu4VoLea2PejfIBD3hAbBgzziZg6EJvsl3wDm236UcXeMm+qoI47rjjmic+8YkhT+UmPnTTPejGdtg8kL0r9ZpdJQ924ERnI+3o+6lPfSpkPe+2utFGG8XftIsOsUn6eOmll4at+d///d/4u+/QPzKlPWTYgB1ZYutV1Xi+zeLgD3/4Q8gNmbH5oe+xceTM5lRowW/QtTJ48zMb4rk2rtN+vsKgoveDZ/A79MAu7HT1rW99a1SyrLHGGjHQ6d2TQjvJ7F3vetd4Z970T3vJh4EqtiYDTfgpvLU5DzqTN5uPZOCDmW16wg5pp5kRdqLs9yCwcWhAztGPrrLDdqrNIA9mDSQN+Ih+3kF+SvzgBz8IOmoru0kGn/e8503pbQYeui+3l6yrIBonUKYP5Ibd9hyVNZ5Rgn7zgWwC+TAInIG3fJagnj56jpki9O/C5lfaTw/Q3syWZ9pEhz6IE+g9npANuqJfZFwixp/yCWwnPnqfWIPM552j8Q+9nvWsZ8Uz2HPv5Uv5KDOa7CgasjP8B12QDIy7YaLBILxAE/q57bbbxgkFWf66wEe2zgC39/fzyV//+tdjts3z9I0dQQc+ahLgFdmVMOgXe8HulxCvkVHtZ4vRCn3Qu198l8EG0Vd69dOf/jTkWzzVBT6hj2RWTOj5XVkUY7DHZh/ZDbGLNnhmhr6zm+xO3uyLPpMHH3JXxlLaTk/4XDLGbvP5aEnG0PPHP/5x7+7+YJPFj+In+iDmYPsyvE+MKnYVU2R76N38FF1ynY0nz/Qi75Dt3fpDbvEbjR73uMeFbSA77DjZRBsxAXqYABgH3o/v7JR28+FsT9ffuc976GGOcfhPMU++V/xvJlM/2Fa0zLac3ohPVV/alIy9GwaxPX+EF2hBV+UeaMZ28DPsFZnKdkX/+XNJOd6VftLztJWtE1/ZOExfyMY4ILf8KJmjh3IO8tndHI098VxxLpvIhrM7/CSgh3voPh0TG/BFYmN045vZnhJozw++8pWvDB4dddRREZ9ttdVWIZ/6pe9zivTSpQ5q8BMRo9Y+Ef9GH2sukjG/0Zrd5HSiZj8Zjvg9GcP2mc98ZpuM+9Ta2KTAbWJ8u8oqq8SGOV0kJYq/u28Q/M19Nl/qrv1ICtImgZ9qV1KQNgVHsVYgIzG5TcFXmwR8rHr9FMDdaM1uMkIsdayzTMrUu9rGmmXXk7DGuotkEOLvybjHOmFrMjK00YYN1tvYwMt38oZZyfHGc5Lzit+HISlymwxtm5zxtHUZyYjFmt1ygyptSca1TQ5/Gu+sqVlttdViowJ8Gwb9uuMd7xgbf0EyELEuG02To4lreKTPyUDEWukMz9evpKy9K4vkLQU2U+tvfNd3yNryyy8fGxtk6F9yRtGvZOB7VxdBe6wHSQ4w7vM7mqy44optMqK9uxYhBT/RjnLdUTLA0V7Xk7PoXV0E/bLuOQXKvSv9kYxOrF2xHrjkhT4lo9qefvrp8Ts+JGPcJmc5dZ+1V/QuObz4fRjIYjJ+09ZppQQu1smn4CPWZ3uHTQ9SkBU8Ajy3YVdybtPWO51zzjmhz+WGbdaRoH8KkHtX+kP7N9100zYFntN0ge7ZaGm33Xabum7tPh6VtGE3bLKSkYKI4Fv+DtrRB/qOhsOA97vsskubjPvUO8hScqSxSQddQQvrYVNAMiXr5OAe97hHbLCRr6GhtV2emaFtyYn0flu0pow8ZvpCcuzt6quv3qYEunelP/SLvUhOKPYUyDjrrLPCPmpj1ie8YmvwOOOqq64Km5KcXrTV85KTn6Zb+vLmN795alMyv6Ml+cz0RRPyQG5/+MMfBr2Sg2xXXXXV2NdAf+miPQBSwhR6Rc7ZLW1CZ8+wHpwM3OlOd4p2pCAt9h2wkZVn2zsg2wL3u5fup4A4roFns9UpWI+NcJKjj+ve4Xk2tynlIiUyoTMpmIt7ybeN7dCF37Emi+6jj3WhbBzZmgm0IQV1ISdon8FupCAq5CnDOix6lukO5OKwww7r/da2KVFqd9ppp2n3WJ9oT4lRG+iQNxva8YMZKXAMu8iuZF+FZnxX9r/e9fCHPzx4mWVL+10rbZ6NJelRqc/k0qYumSfax2+ttNJKI9eYea/npcR42jP5KPYWb0CbUjAeawHpe7mu0rtS4jFFe/dut9127QYbbDDNN4s/yCAaZtjLgh/Ao5TkhN8naymJiffzS5/+9KfblFDEM8knu8V2Zj6QIby3JpEeue4Z9Avdtc8ztIsu+C4/+dGPfjT8Kzmnv3wde1na337ga+hHSlh6VxbJjPbSg2xzrEW1x4o4h76hNXtCDkrbD+IJ10pes2EpMQ4ZKH31IIiv1l577aCvOIhe0ENygBYZ2dZ87Wtf611ZpPdinpQcj9wcVKwkniTD2ZZnkI8U5EdsQ0b83bvYzZTc9e5apCdiHTFrfoZ28YvaQCfxkX6wfd5nPTA5pcNkTQzLnpP/DDR373HHHde7ssi34Y1YjIyR40EgC/wGX5/1CdgHzxBjZZAZ10p7CGyx6ylZDDvABuqvfV7slVO2F93FL+iDFjYA/O53vxv9vuiii9rb3/72QdNRQDsxLbuV7QfgP3/Bf2awR3wEX5CREt6IKfjnDPE4XtKLMiYFMmJttvYPAr7iA3uYfYl28t3ok5LVuAY2gKKrpV3RDzE+Xcu2mO6JGcrYhx7q48c+9rHelcEgHylpnRa/23DRu/faa6/elUV04wdLvSP3fCU9Ydf0SXwiVrzVrW4VMi8mTklz+GG6aBPdLN/kOSXO7XrrrRc8yBA7sYFs+Be+8IWhNJ0JltqZXVPo1jkop+1+jAooV+jCbJnRxLwOVllDckQx05KcQlxLzI7vu250IjEmrkOiV4xaGHlw3yD4m3YYjekeS2PGxsip0Rsw+mbmxXb5GUY9jeAZuTUSOx8w4mzU7k1velOslTCCbXYjlxaDNhr5QR8jokaotX1SGLEyem10qFyXYZalu7bFLJCRQiNHmUbgXvw2SthvBLWEPhhNssYAlCql4DJGvIy0gj6lYCFG7ayVzjA6RU7Ka13gr7+TpS70z6i0MiT9LoHPZMt6IPcZGTbiPi6MkqENunSf7SgA686N8g4DuTLybiSNfGUYpcOjFGjE79qnbe7Psm50HC2TIY7fh8GshFkFo40ZZkLwMCV1UaKT30H20QvQhu5pWx5dpYP4Tu9K+TND4FnjrGnpV5LWT4eN5Gp7OTOhD1lutclMlBm4LLue43fyxmYMgxFY8msENT+TLBnVJk9sko/ZCCOofgayop/sT3J+cc3Ip5FwI7QZdFjpFqSgPWYtjLaylxmqF8xoG8lOwUfv6o1hhtEsgpkG92fgl9m3EkbGVXeUOqEd+MPmkf3k7GJW30iutgF5MsuQQY5VVpCTTF+23MwX3tMB9DJ7SU/psb+psjD7bnQYrdCv9AF+Zo/ZhRSQhQ6oFDHbYcbCLIl3p6S5943+yDrbPffbDKqqFbMPpVyYvSW3Rs7xju6a4TFLoE36ifd0i0yg2Sj7NgjkqbSZJbKsZWgvPS5Hz43ss5NA5/LIe7ajYEY6BWoxE5v1sx/wQvWLPmWkoCfsOvuc9Z1NIE/5HfS0a6tVx5Bzs4IZeFnOVKcgMNqqfVln0N9sKZqYlRgGs3r0wQxQ6ZPMNJTQPvwje11oU0o2p3iQ4wt98ckwY4f+/pah4ifPPKrgoOtkjQ2gI476oidmi/VF6SVdY6+zHXON3NNDeu26Z7Dh2k32PcPPKhr4KTqO3mQUT7SDPplJ5BOGgQ/xjnK/E/YHzbItK+E99A2v0dA6We/3gRTchm3VZ/3N8Cwz/mIlMYg4bBT0kU1mJ8i+Z7pGJjPMStL30pbRSTaEXTFjNhuwVWhJxrXBjH1KDMIvZogP2cQyNsJvfp48qS4kO2JWPNM+Pt4MIX6yF+SeTSsrpvgZul36S/JGXtg5vhMPBoEPZLO8v+QjWzUptNMsLx6SMTO15NT1DP0y04u3KhPNeOKLfutj6b+GQVWa5/MH+J3hWd0lWPiDPmZYM9CY7Sur18Tj5DIlfDeqtlQBoHpN+wcBH/hQs8bZ7uGxUm3vL9vV7zl0rGu/2Rg0LGWXnrABoyog9E+1pBzATHKGZ+EJuQP+WkVYSrKntZGNUw2n72a29QmP2A79Iltss+94pnfwNTmXYqv5D3TlEzL4H36QPWBDhtF0JphOwaUMWQj6ffoBASWPiIiRnGe/DUgwTJKnFCOXBIEghEBRklEgjByI52fhEyQoCclrFEB5h0RbqQXjkj+bbrpplJSVBmEugXY+IFhGC4reTT4Fq6DcZJTz6wcCzjkT6m4ghs5d5EC4G0xoF2fBgI1yQhyMwIVT5QTwvHRyoM8+ZXIPlBO/xjncPQ+adCEYFnTpdw4mBW4cUDmoAV0DPAoclmRFmR+HDOilVHAcR8RxCegYHOUrGQIJwY9kE8gGmVSa5GfvEqQNS45KKNURaOTnAd4JoJWnMcqe69w+5Up+xiuBQBnUAn6Qv9IwA9nk4LfbbrveldkDffFM2ZSBIOuHBBc5oPO7EiwyWOorJyvZYTeyUe/CdTLAoHdtFLpwHJw6Hik3Vg6LLmguGJeIl9Aujgbf8Ym9Qu88wIDH7I/Eo2wrPhrc2meffW6k7yWUbAlAObES2tT9HttogELwVr7L4JG+ZduyabJrkkulxEoUtVG5U052lDuRA46wBJnFa0kisB3olAdOQLsyPG+QnWb/y8Es7SL7nqkf7PQw4FFX9w0+kZt+Ay9sgYA165v30XsyULbZ9XGDutlCwKK/7J0SeUmW9wtUwGCPZQPsaMlPsi/JEZiWwWQJcm5JjmC6pBNZlaygQ+6nIJ+t8Dd8x38DIyUMLAiEyAAfwEfw35ISbQb01V52omyvJNmyEcmB7wyCQSry0g2wBsUS/QZDJW/0jQ56l6A9nxtaJmg5idffDLQk82hX3otO2iBhyiAzPuzDEUccEdfIrL4bWBqEUtag6/vAPXSnHGzsBz6HfZDA5gAe0BA/0byb7GZegfcIkEvwx3x1v3ZtmuwGG2KJhIRxFNCs5B368kclyJmBFLJaygwbwyfxAbNBV7/RJtsvYPvEeGSpa6vESpIwJaWZp+js05VJOtYdfPNsKGXMd72LbI4aMBC79LNzXRkaB76T2yzpIafsT9d+oI02iokllhnuK2VsGPhJg8HdQX+y16UbG+wcaPYZ2JBBG5HSbc8sl/2RQ/ZwVNzlHjpfJnbAppH5MtkeF+yU3CTHJfSVzOL7KN6KYfgrA0olP+U2fKwBSZDwWxLE9nT5bvCIHIkR0dvfDayVvAa/5+Q5g40TT/p+GSuxm3zSuDHmpJjO/ZsAJGyCPRtACaIH7cIsUTXywUlSAgw12pQVYxQw3OwuY2otBudA0SVxpcEzk0kgzPiZFSg/kjajN/MNQfIf+6zzBEZUQKkfeUZpElByMxoEuWts+oFhgH6BCbp5Tg4WhkHgKakye+P+7qBBXpcwzKHPFIIFo32SE46U8bEeEx27TmlScECeLTiVNDAWDJLfy1HcYTD67l6GimEhm2SA8S3h2QJIyYpBGsHCOMG45zGoeFA620EwkifYFLyRkW5Sy/Hhl2fON/SR05CQSgYlv2aVs8yxBfhpwKqrrz7W1QySc9+zFgfNRzkktOcIJYQSC3agtBsgQLLWTJsFTfgqcTGzA/SV3nJq/dpqdnNQwgIc37gJGDkh90Z0u+9hx7SdnTNTYOZWGyWYZrPY40wPa+H8nIO1xQXBlyCbrI0jsyXYKiP+2t3PbmVnn20sOvQb6FucMCCH7v61Jox9ZFey7OQgW8Df5adPnqHrB/Tj6/jaUQMHILG2/szgkgAyD7BmsPlslSocg3J8sOBTspLlRvDE7kje+7W3XxVRhvaSO8nZOD5qGAxcG9AyIyIA7RdfsBECw3IGn7zzkwJfA4HjwgyxgU/vo6fdgamZghwPs1H4pK/0pZ/MzwR5hrff8/hNiRc6lQHybCD+QzODpf1kJlc5zRf0hd/Vn360ZpNcz8l9v4RtEHJFQ7kPBF8gJiGTdGoQ6BFZ9K7ugMVs4blsCxvYhTbxZfzjTBIe7eaz0GzcdpM1g8FmncXpJhL6QaJrNlOSmCfIDGTR40F2MINcaxv6zyX4dzbE+mSDzHKWUW0BdjnHZ8MgNxEf99NHA5mSd4Ph+e/j+jT2TUUTm+sdGWIrdBo3x5oUN6lkV/BodpeA2swhl+70g0DSrBPlMduEMZhZlh6Nglk8hpQiMaxGLZUulAbL6Ka/5eRrSSDPLgpuCFs/ENBxgt4uGB7KwMiOY8C0hXFHky4oMoPfnSHuwsggheH4lXH6uauIDKt2zVeZOKPJqdhoR6LEKAnW+hn5SWFWzGiiTQ4YLCPsZhSHObASRgUlUIy88lOJCnnv0ogRFYAKbA0aGPkbp/0cjbYolyrLgfsB/SVDEjWzAfrWdeh5tsVGFuMEz7OB/gmkzTBxapJeA15GOzkXMugeI8KTwvcklxxNnpUfBMm/0i9Bi4EGdqcf7QXH+I+HfiZvAnuOg67ghZH0mYB+6HNOgIbBjCZ+jxqI0n+BObuqlImes5GSHci8HjZDNR/AVx8J77ABgH5A5zwD0s9uZb2ctIpjvkFeyAZZJ182WBPk47s2s7OqDSZNLjI9DAB0qxG6YIOUmxrMUX6ooqZf0CTZMYupgkJpNJlXwZA3csE7dkNfJgUf5SMYnY19EbixHXw6v6N9/foimWe76arYgs81qKX9vod+4wDv+BQDEgbkzH52bed8Idt4gw9zNWCck3wDJV14H1r6zFUfybcBqJxkL27kvhgw6DfZkKufxvXrJeg2WTITKSkjY6q/2FdVPcNkjC7QebZ/rgcds52kK57fD3R5Jn3OsSbwf6Pg/UrADRbx7+jSrTYooQzZ3+ktO0FnDRiPAjnDZz5vrqCfBrbNRFuOZ4MytO0XI3SRactW5oGUfsj+ij6ibQn6KGaUS41rrzLQwsSGJT4mBOkffumDwXLVPvOBm1Syi5gCGWtYxmGQtTNG1wg3oTIrMUkgRPAktwyNgNUoXre8wkiWEVLJhFGSEhz5TJMxgi8AHSdQkZQrRxLAd0efKLXgXHI1k1lJBluSJNHtlqdllIrEcXunEbRu4s0puHdYibHvMGBmKgQVgxyj0gwDHWbxursLM4LePxt4r112BXtK9xgYidNcwLOtSSE3DK72l6Xx44Ch4RAZeOW35dpa4Iw4S4aHsR7HiJaQvDLISh5LGcQ/JcASIwbO88mfmeZBvKIzqiyUx3WTTMaaEx8nSM2OMCPLHb3LP9sR1sAT2RA8Ghnn0FQJuG7tKj0wCixQL6GfkrZBOoeGbIoZH4lFdwbRgIjEUpJgoI3t0PdBtDd4J8nleMzQWWelYsX3yQSZQ1fXlaV122WN9qCAA8yw01vf7eoiSNhzH9zLXhkY6AZI7B5H7xkG/nyHo7SOSSCmPNHINB6SSf1RTdBNnOkS/swHDBrhr+ShX4IyCgYY0LvfwIJnCwq66z/nC+jc5bXf8SXzUTtVhKA1XRX4CJpU1kjYBXXsNt1SClyCzFjzNWimwjPpDp2yxjTrVoZ3e4+2GKRTxi7ZHqT/dEIFg79rl5/ZbfYjr39kW5VosocSsBL6Tn8H6SWfbvbdwJyB0n4YJ3jOA45keFh8QZ+11W6x3imJpz/sSb8y+H6QHFlHyO4boBlEu/mCgW+2xSyRAZES7Kyqo1EzR12IQdhXdpCvL8EOkTcVcOOWtI6CiheJusC7O9ngd4Or8wmxkYFe+pZnC0uYtSeXYtBJQcbMvtmJ3HPIGJ0UTw5L6ID9o/to09X9jDI5Z8vdP0i/SvBTfDm/2h0IZw/4RtUZMxkY1G6xhL6PwzuVLeyTGCQngMOgTWwkm8Nf0VUyOwr6TGbpRD856+oPlLEK+4m25J/v9Ds7Z4mJhHectpewXMKkAjtsSUgJPBCzsfHssoos9rQbq2gLu2xZyUz0kX1UCi3GFA+igYovfmUm/nccLHXJLqb7IP4gZysA9jcMKxVQcmCG1r+uG1GgcJ4l4BVMlfczvGa2GCJlVDMpa1Gmh6mUygxj1wka1ZaYETBlfYyRQADzrVEapywpBxNlUMEASXgZK45av4zQUHCQeAqICbdAzLs5GGseSkUTUHNs2lI6VLTxO4OIzoLublAD+rvzzjvHz5LQXO4nsPV+P3tH5pVkwCYaApoymdBONJF4MNqDoO0MsZkh//pdEI7nmc9kQLJr8x3890xKj+4MGYdaOgS09BxtZJw4D8gGQNv6QQAsICBDjEs/oAMalHIH2dgL+Mlyd7TbejUbB5glE+hNanD0SSmJPuNluSYMJDLei6/6J9jAr0wHtB0WAOIhuWLMHFeA755FDwwkeB/6eQ7+e5dn00HvpsN4hY/aSob8nWOSfGm3oMjsJ4czbBCK88MHjlTiheYCDJuT4Ce5z4mAPkmqMz/wQQWIBNc7BBBoTm5cNwNrtkmQrMyJTgwKPLXDyKXyHzM75IIe+r7k2aCIIBhNfKwzRwd0MvigjeSBzuXZCEF8lj9OjyyTh1yJQef8Hd0MuGU+mAmypnCY3ChrF8TgmTJpfCer9And0MrHdbOzbJWBQUmsQQm0lvzbbEVCC3hNjjI4VANc2Z6wl+yhRByt8BivlYZal5yXI5CFLIv94G/67d8u0JA9yNAn65/MLuZBHwkb3rsX3clipjnZwBPP9l1QxSFI0259zPB3G3mY8SOD4PvdRL5E2Wa0ljzRp24C0A8SH98xiKCNEg42XVJCpvTDdTpgkKuUHbO6eVaF/JAZ3zEAgP/4YD09fgrg8ix8P2gveRBkSwJ9j9wJ0lST0Fn9JMvo5V+/azuZ0kZtzXbP4FDuPz1SCoye2U6SeWXYvovW2kuv6BD7g4eD9BIMTOIVGfOdzONcYWDAF88yv7Pdzr+Dd/Mt/vV98oL+uS85vtBHVQ0SVW3le/mHfjbMd70j8ynDde2hS2wz2nk+O6pt6GkwA3I7XS+Rn1n2YRIYjGM/JN2qgNCbPVM1h1dsGWirj76XyP3K8m6Jl8E6fTKYkeE+sYDndeOQLtzLZnpX2S8/u+Z9+Tq7YxBf0sDWCOrZLFUD3pP1dRAMAtMXuuXZ6J/7Oai/Pv7mXzaGbkgoHF3jORnkBS0NiGQZ972y/V34e4bBZPqtj/wUGfPzuIkEW+BeE0RscO6T5VJArsmf6+wF3uARH6t9YiQ2G/CT//J9fpS8+B7fWdo638E7/qPksXvzZxTENOhFHg3yeqd3KJ/2bO32LzrSU3/LcQ0bwRbRQ3okmaNHGdpkBliSK+kVq+LhKPChJhfwk38RY7Kl2sfGltWieckL/5njTT6ebPFZ7LH2iz/8jc6hi3b6OfeD/ulDP7DbeJD7I9b2XQMQ5JHtp9dsKr3AO3lDSX95in6RLcBz7+snm66V/PM7+6yPKiAN+PgYqBhnEnLGSC9eapCI1abEM7axT0IW258nxvf+ugiJ2bH1uK4lZsbRP74HjhFIjjK2ZE/OOrbiTwFm3JsMbRxn0UVyEHF0hq3e83MmxTe+8Y04UiAJb+/KdCSHGttwa0didpuC1DiuIAl4747BSE447k1GZNrxKNr6hje8IfqbErd4vq29bYHuPUmQ2yOPPHJqq3h01MdkwGPrcHTUrmQ8Yov7bt+ToAYPkmGJrcmHtdU7HBOTHEMcw5ESnaAp+nvGOuusE8c55bYkRY5tzZMyBf+SgWrf8pa3xHbyyUDFPcPwqle9Kniv38lhRZ/1DS2SY2mTUsd9KUiI7eCzrKA72XA0gP5nOArE35ORizaQCfQgf76bFHXa8QkZ7iFfyXFO25I/IxncOP7FM1JSEs/NSI4gZCElAXGURL9+OzqJLqQEpndlMuBZSkJia/8ukiOLo3CS0YujQbQBz8maaym5mXacRhf6nhLA4IH++Y6P44iSwY576AP662dKAOM4FkdjpCQwvvPABz5w6igs9HX8BnnBR7wiSx/60IemHRUyCOxGMuIh33Tde8lZMrBxHNIBBxwQW91//OMfj+NfHFWCH8nhhe7S4awDeEnGtNEnt4WM9+NzF/jmft9NjjW+j56ZLni96aabxlEZ2pqSnTjuxhEV+m4bf+3CN/KRgoP4bnJ4cTRJCnKmaEKOHcuT25rf5z48HoXkBIP/vqctdFffU+AUbfHuFKTFvSmhCf3xHnzyHm3/1a8WHfWGNsl5xjOSow96Op4iBQ3TjjbAFzalfA7ZyLLgeyeddNKU/UkBalzP8PfPfOYz8b0NN9xwSne8f+edd47rm2++eRy/gj6O93CcR2nDPMMRGPSefXJcB3l3PSXGISMpMJl21Bc7tcUWW4ROpuAgeOSokxRYBG8y0IMtcV+2RZD5Scc8C7RNG9CCXnj/MKSAMZ6d27f11lvHkWEPetCDgl4pIYx+6AM6OFrE7+QnBS5hrzL4BHaXHGadIwcp2R0p59rJXuB1ljv6z67zWRmOWNG/rP/0z/O9j/0nUymAjt8ddcUnebajTNji0v9r01vf+tZ4n4/3oQO/X9rWfqAvjhfS1+yjtMfxg56FVylAC3lJQWa7ySabRJvIWeaJuMO1HF/wo4ceemh83/PoPYgz0JLs4hU++dAztoZcApuXgur4fgqKp/VVf/hmttMzyAxfmenJdpJn3+FjtAtdc1vpPvp5tj7m6ymgDt1wnR3J1/sBLdhr9PL8LB+OmMn09m+25/qQ/aR28Zu+d9BBB03Zq3w/m8zv4j0as4fikFEg/3w+uvheBt3STv6/9Hd0ceONN472oZs+uIdPHdZ30OZHPOIRIWd4x876zrnnnht6zNekpKZ3dxv80a6NNtpoSr+Bb8J/dtB7U2IWNr70bZ57+umnx1E5eMtXAR6QW8/lQ1KiE9fZR+3qyhg53GGHHeL4s2HwXnET/cEL30PX/fbbL2glfmQr6Jy2HXzwwUE/sk9v2U62y73owDeWMkEvPEMM5V2/+MUvQp7FsF26swHuFcOOarfvnnzyyaGveKnPvkfG2HEywB6wx+RJTKCP+PekJz0p/Cy9F6vSpdzmEo6QQg92YFx431ZbbRX0wCttY/POPPPMaf2l+3js/fwtP8t+a5vv0i2+Utt9X/u1hS6Ra/3QH3a9X0yaoV9oT1+z7uIzu1r22TP4e+8RI5HbY489NmKRkhfkTmxHBsgFuYSUAIfvwb+UIEdfyczzn//8eDc9ybKp7fryxje+cWCuNBss53+JiAseiUBRW59H1zOMQhhhTMSM0Vcjx12YYVL2mQgdM3hGKswOGok3ImLkWzmxUqLE+N63boBRMaPDRrNnAm03QtzdeKOEUZFc3mUWxIijEaphMHpjBDQJZ+9KE6PFuaTVCI9RdCPJub9GrrTF85OAx30Z6JMUJkrajHppr9FAM8RdJGGOWWMjQsqKR42CEjOljGYcjBiaNUqGJ/qsLd13JAMY95oRSEY72q7crh9/ukgKGjM1RtmNvuErWplRNJKkrfk53mOUyruScYm+KB0tgTe+q89KEY1O+h2vMpKRDznpts97jYAavS3hWUa3jNBleD9ZBqN6Rpx932hgMgpxvYRZDzOCZunQdFJog7LQQbMKZj/Jj78ZmdRHo3FGd+2ya4RwFOgrHicjOTX7lYLu3l8XVWGYSXUfOVBahiZm8fHO7FCJvMMpvU+Bc4wujguzmvQ/ObOpKgslNGYTM32NANMXfTfS7Lr35JnJDLpipsqsXTLwoXNsyDjyCejh3f5V1oUuJQ+M4hpNxSO0TwFLvI9umkVNzjx0VJ/Qiyzgx6B2+Lu+GxmmR/RgXJnRFm1FD3ZEe/HHc9C/fBd7qoSMjVF+R8/pC6AZepFtNPZcNtU9ZklKeA7ZZKvZIbKQ5c3zy6oPQJNsg+hzt9zZCDYb41+VOkbVzVjgsxldz2ePSrANdg4mo8q1/B29zd6WsO4oV4K4l3yydewrvpq9JmvQz0ep0KAT+JNBptgCfVYyZwbJjICZ0vysQUB7NOL3zID67gknnBC2PNuhlAiFTJAdNHAPnaAbJT/ZbTberBe+qSgZ5Cf7gXyjtVkSM9RsTdl+tjr7KHqGVr7DJmgv+WA/yQ1+sOnsMTn099KWABkjM/jvZ3KuIgs9RyH31bv4HHKZAsd4lgoscqy9eEA+M7wDD/lhdPd+emi5FH0TX2hD1kt0NIOMt+RFf12j6/wz26YNdMzfMtxvKRVeAbq4Bw/xGe/MrPF9/Bheiw/KmEkfyJVYiv5l8Hn6qNSyBDrj+SCgGX+ARuINdMDDTG9+kt0q4f1HHXVU77dF8J1c5u+ZZljpkRlOdCM33XilCzzx3JI3bBS/xZdmsLP2oeBvAQ/YBL6FneWHVN+MA/JIVjfYYINoIzk3Yynmy8Abel+eCMHeoUO2e2Z16b/ZeLaEPUoJQPwNfBdfS+iDNpvFzRAzei7ZJyt+J7PkiHzSITEe/4G+2ab2Az64l90ht+yD59FXfWJfMsgvPWd70JxukkXxArnq2ncgN+wKmvH7vqNdJehDuUMyfTd7W9KmH9BRu+kIvtANfCLPZXzH35NR/FZlQcbwAT/II/3vQrWS76kkGceuZGQ5M8NLN8mZvKULMoXXdFXsR99VG+RNKrPtFX+6jhb29tBWvgnvh23IV4JuohOdoLve0QW7xO/hJXrir2rVbIfI19FHHx0zzRniNnGCitgS5IYtZJMseeJTfZ8MaDe6kyGy5pmjdH4SLDXJ7pICJijjU7o1roNf2sFBM87rrrvunApbxdyB2pJLxkmQWFFRMRwCvZzsKjvvN4i3UCGBFxgqK7yp+KFlEew2+RPgCVC78Hfr2gXoBgcqFg/YBoM+Bhokx0szyJDE02CmpLkLfzdALrmTZFaMDwmZzT2V+447IFIxHQZGnHRhsKZfci3htQmhyaB+kzwzxfjDEjdBGNEwc8Zg3JQCDOv81M87kqJiYcJghBFPo2QVFRXLLgSnRt/7VY5ULF0wU2ZmalCVGP5KtrqVQBXzC7OcYh4VS4LtpRmqSgzqDaq2I2MSNZMZFZNB1YaEtya6M4dqFBVqg+TP7L2/9asGmA1WeKvtWCumoGxi5513jin7XFZiwXy/Ms9lFQRNqQenPNcCVzFzKDFTYcDgOr9XuZJktwbAFRWjIUixaYqSWcFgLsNayFA6rlRNKWB3eUXF0gflgB/4wAei5E/JplJQcmlmUWmfsj/BniUf1a4vPuCDWSQbq1k2sTTTXtVK3nyRjCmVJWNKq81eWxYhrquxw2goPX79618/tUGfJSg2Nq22eOaw4ZZlFGBnaKX07J8ye2XV/maDNEsK5hK1jLkDI+jWyDEO1lupnV8agqKKZR8GXRwFQh7t5KuksaKiYjSsJxSsOCvR0hTnTyqjGrUvQkXFXEK1mPXT1qtZa6uc2bo/Nt1skTW21hVWVMwUZMx6R8dZSnjJmPWbZMw6ZX+zT0XFaFj/bc26JEzFhaTXWtuKmcOeC0rBrW33syTXAF/eh8WJDvMxc16T3Q6MMJjd9a9F1hhQUbEQwPAqgzMadpe73GWsDQgqKioWbRSnIqIEhzrTTQcrKmYDttwsm02irK00A2ejmbpHRsVcwd4rZMxGhioTs4zZfK1ifNjcy6ZRBgpsHlZnw2cPaSe62sRMwsvuoa0Z8/mKa2uyWzEvMHtiN1nCawe2mewWXFFRsfTArtt5p3c7MVdUVCyC3Vvph3WUdj2tqKhYOMi7Tlu3bXf1imUPdYOqinmB7dxf9apXxShiTXQrKpZtmKlSVm89WC0NrqiYDiWQH/rQh5q99torlkhVVFQsHNiIds8991yqduivmAw12a2YcygWcAbvYYcdFuf9VVRULNtwDqRzAe0QXgOGiorpcJ6kjVlsxmKWt6KiYmFAmbdzx527Xo9iWnZRk92KOYdafAfq21Gte+h/RUXFsgcbeBxyyCFL/RmVFRXzBaccvPOd72y+9KUvxYBwRUXFkoeBWrHqAx7wgLoedxlGXbNbUVFRUVFRUVFRUVFRscxhiczsyq/tePzyl788RlM+85nP9P4yGD//+c9jZPRlL3tZnBc2CayR+dGPftS85CUvifc5QHyukPvi7K373//+cbzFksY//vGPOK9v6623jl17Z3JIen7GVlttFXS/7rrren8ZDrR2fMJznvOc5pOf/OS8jGCbOXY8NHq///3v712djl/84hfNC17wgjiiZ1J5WdJQUmNr9gMPPDCOTFkc+O53vxs8636c14eHdnZ8xStecaO/26UQnF36lre8pfnf//3fWP8yCeiPZ73jHe+Ic+0mgbWiZMDxAGR10u8DGh911FGxkdr97ne/2B1wHNjdd6eddmre/e5336Rnav7yl780e+yxR3z8PNfAUz7iyU9+cvPYxz52Ih7jCztGvmyYt6T4RKac0fj4xz8+ql4cBzIOvv3tb0fbfXehwEkFNlt69rOf3TzoQQ+K82HHgTOO9eXzn/9878qN4dgU/pleOe/0wgsv7P1lYQMN7FHh7FJn9PeDMkn9f/vb3x7+dWmG9lt/zMfa8beLb33rW3FuLbmdD52zER5aovn111/fu1qR8ZWvfCVmKx1zVTEY7I24Y+edd45NqhYX6A876FxnscskPk2s9cIXvjD0b6HHtl//+tej2stxV0saSyzZdebX3e52t0gOxzGGhBJjZ+IkfNf7bG998cUXz6nxJaQcHQG89NJLe1eXLLRpww03jEREkjITOPvKWWy/+c1vJnrGFVdc0ey9997N9773vXBEvj/XQG9HQg0KhARjEsVzzjknSisFWUsqyJ0JnD+22267RT/1YXHgoQ99aGyg4sxHmww5mF7JHaOqtMd6TOf2KVf92te+FrvtOg/NQAja0jFb8//gBz8I+k8CBvHkk0+O9d2THr1B1gXc9FobZgI2RZJOfyXP44L9Wm211ZojjzwyzjO8KQLNDz744OAfuXEO4VxvwIPHEh+DIpMO3Em+Db444sUZfkuqTI2MbbzxxjFoO+5gCrDj1pSh61wPfNFbScn6668fOwRLxvCOn6WTg+Dv9773vYO2jo4YB2yCASX+XrI/COSJTTEYwKcuDXYbbw1Qsh3426/NeGcwkH3cb7/9onRyaQZdZPfYTScudIHfPvMRjKMvv37eeefFQCf/XjEd/DmZNFhdN0QbDPoo3jr11FNjsHYS2zwbsAcbbLBB2ItJYgc6ddBBBzVnn3127IljEHgh28j5tAOTYqxkFzN++MMf9n6bPQTUZhwf/OAH966Mhi37BbQC7El393W/4HyS940LSbQg6klPelLvypKHxERwKBifKWyo4QzKSRbsUzoBDSWU7EpeBGlduM8sy0xh9Hz77bcfuBGOoI3Mfuc73wljL+ked2Z6IUDFgx1tBblmGhcXJG5PeMIT4mcjjnS0hORbsmHNmZl1cgYSCLKGLzMBw01uNtlkk96V8WHUULXGHe94x96VyXGb29wm9MUZhJNAYi6RksRwljdF2Gzni1/8YsxA0mkVCYKsuQQ9Z7833XTT3pXxcfXVV8e5fQZy2LQlBfpMxiY9LJ+OCebtam+gaS5hENOA6HHHHRdHxUl43/jGN0YSMWyvBT5PgjPJER1shxk4euI8xUFwHig9nA9fPV/Am4c97GHNFlts0btyY5x22mlBX8G1SpD3ve99CyIAnAn4bwOez3ve82JQtt+5mGIisrXLLrvM+QCTQW6D8QZkDbDxHZPMjM0nVJEshLawG1/4whfiX7pdcWNIbA3gs3/8FzoZ/Jsv0JkMMYeYadL4TqxkgFFse8QRR0S1nThxScOACl3s2jSVTAYt2YoljZHJLsOmFGI+koVJjKB7zebN5hgbAjZfkMAvNKyxxhq9n2aOSfrFCQn8nbN5y1veMkZdBXfd8hCBD2WdFLm8VzK4zz77xOiY3V/9/rvf/S7uoXQSXUkueXna054Wo1+M2dICSZQZ8X333XdeZbYfsk5KfEv9tAzAjD0HajS/n+7OJJlguLfccstIsiexByUEm3Y5nS1y8j4JJAX4hF9GMG9KoGtKuQ1+rLnmmpH8COYFofOBmciH2XozUJMOZMwX2MVJIQH8wAc+MHYV1Lgwe2pAkj47Y/L5z39+0MrAgGqJUZjEN5AJM5rj7tS9tBxfJYnlf3yOOeaYSMIMgL33ve+dsgd8k0HCV77ylWHbX/SiF0UJru8ujZDMkUO+eJBOus4m90uEZwM+32AMWULLbbfdNspQxQFLegaTLRQrz6WOzgZ0Tanr0hT7LE4YPFQB6Gxd/kFMyo9PUt01Liy94ydLsJ/85rgg355jaQDdIvvisblcljlTWMpgKVwX+jgfdmBGSIo5FCeddFKbkqb21FNP7V2ZOyTitClYbD/1qU/1rswvvvzlL7cpiG+Tk+ldmTukIKFNTG1TUtC7suTxvOc9r03BVfv73/++d2Vy7Ljjjm1KAtrkrHtXZoerrrqqTUFx+/SnP713ZWbwnNvf/vbtYYcd1rtSMRc47rjjeOr27W9/e/yeDGx7ySWXtNttt91I2b7oooviuynQ611ZfHj0ox/dbrHFFm0K4HtXJsdTn/rUNjm99vrrr+9dqVgo+Ne//tWmZKxNSdiseLyk8YQnPKHdYIMN2hS0964svXjPe94TNviKK67oXZk7pIBuzvzpNddc01522WW93+YPYiVtFtfc1JAShLD/9PSmCDHWlltu2T7ucY9bJnS7Yu5w7bXXtltvvXXIRon//Oc/7cte9rL2vve971Lt01IC3j7+8Y9vn/KUp7T//Oc/e1cXHgYOzRqhtLnPM57xjBiV9O9d73rXWMenRMXP+WPGJ8MI8d3vfve4rrR3ktkOIxc77LDDtGfn9RjWxaitTw42fs/QNteUCPh+cjgxKm0jKyPXg2BtkOcpLXvDG94Q/Z0EZrrQxHono4yDNmZJNI6yWpurWOek7GfQ2l4lXjbZ0W/3G7EpRys96/zzz4+Np4wWK0Mzoqz8U/nMsDWLRoSsv1QKqOzQsyaFGVrtsqD+q1/96o2e4f34leXjWc96VtApw8iPDWaMoBmRyjweZ82C2WCbgKH3i1/84liDNwjKU4yso3dei9pd663t1h0ZZVfqmOXdKJ+Rs360NOL3tre9LUq70UD5S8mfUTAz/cxnPjPKbm1SYsa5W5poDYeSD3Txjn4jxcpCXv3qV8e/ykaUxCnzpAdzXRpn+UIyYtFeujIutBmfle7ZKKPfum8zVWY49JXMoEc/e6FMR7kRu2IG2OYbw+RXaS07YtaK7s0E5M2mFcoT+61fZHfIwnrrrRcbpWlfd0SYHCrpzzw0wv6IRzyi2XHHHeP7XZAla1/10RICNgyPx4VnmuUwi+Z9X/7yl2N9pH7k99ED5U/WgtKnXHLHbma7jRdmUEB1RtZTa5q6/PF9VRRmBz1z//33v9GGMdpiNsZMkPejk1kudHP26DBeDoIN6Nhf5a797Jnf2UQ6pO10ysxLCffgrb/xFcou6afvjFuW7hnsmgoS/WJL2Fmz3GzcMOAt3SAT/crnlNWx78rd9NMsxLh+SrvIG14+/OEPD56bte2uSSNzNhR0D1lhK4f5kWFgk7Uzy4tP3sAObbR/JusryRgbx68P2gzOPYcffnhUFlkLx17xkeTVMhabz/ndd/kuGyuhpfPg0V91CT72e/Yg6Bvd4mfY4346neFvSsS1TWmfkv+u7/D7iSee2Lzuda8LHrCP/K22q5joB/EAmWWHyBIZH6cP2cfkj/XEme/Ww+brYpsM7WOj+XD9oM+5RPaAAw4I+aHnQM7wYJLlSnhlhpbPYBvYsn5xFRuSZ+TYZ/anK7NoYL8LpeX8h89LX/rSiAfYnC7twT34qG+q0+hvv/u64MP1nV+ic+QBj+lVSWN8zPpHFvXTdd+110k/sEPlM9iVvA8KG5iv0/Nsd8WXbJClf/SxX/wzCuI2G9CJK5Si84egei+/054u+gH8LJ/lOn0q+WbW7zWveU3oi/jEHg98DV/RL17he1RH0He08fOwWL4f6DZ75/s+ZLprO7XR+leyhue77777VD8z0I1d8SFjYj7tsoFev43ZuhA/kaW81CfTrvsewD+6r7R50Oau5Ieuaa+4X8VPl7faya55FvqSa/ZO7D/Ir+kL/eBr5G2nnHJK7y/DQd/FWeIWdpUd0n75BrD7bIv+Z9ApMQr7gSeqhr2bPJX3zTkSQfsiNShGG5LCtquuumqbOhIjVomwMYqXFAAnYgbIvSWS0seMYBKm3pX+6Dezm4QjZv6S0Y8ZFs9OSUmbHFa8b88994z7kmFsv/e977UpyGhXWmml9phjjmmT8rTJWLVJ0WNGMzmKaW3IM7v+TUFcm4xpmwK+9ta3vnW76667Rt9GITnV+F4KQmJ2MQlT0CYZuBuNRCcmtomJQaMrr7yyTUaqTc6jXXfdddsksFOjoN6rX0Z+fEffknIFbY4//vi4Jwl5zLqts846QYfPf/7zQZPkQNtkNKNf6F7CzO4tbnGLNhntoM273vWumAEzU3/uuef27hoOfETL5FDiPcnRtauvvnq7yiqrtG94wxumRqT0JTnbmLHFN9f32WefoG1SnLgnCXabDF60f/vttw958unKT4mkuG1KFtoU2LbJkcfvaGwUFd/LmV3PMWtvFC0FsUEzMpIcQZuC8TYpZtxHfj3zDne4Q5sMT5sUNWj5+te/PmZell9++ZCnEslxtg984APbpIzxHrOdyXjEvSk4blPSPLQfSbmDlmYZ3JcCmTYFZu1ZZ53Vu6Ntk1Nq73KXu7TJoUQ/k8GKNiajEDKBVnicjEl7u9vdrk3JZLvXXnu1yagF3W92s5uFbM4G5cyuvqJzSsB7fx2OPLO77777Bv1SMhg0veMd7xh9TQFf7862Tc6nTQ4v6Kiv3/zmN9vb3OY27Zve9KbeHYt4b7aErUkBReiyCoqVV1455L7UV3JNf5KTCB3TfvxKxjv0dByY2b3Tne4U7/QMtGSL0FrfMrR5/fXXjz5qo5ktuuF9yfnHtRSExkwkepjpJqd0nD1Ya6212uSoplVckFWjvOTIdXYmBfZhA9gWctnV7wy6l4KNNjmp0E36dvTRRwf9U5ARs28p6An9wZu999477Ndtb3vbdptttol3A71IDqdNQdLUNbKK/8mJtc961rOmzdzQJ/KRAtqwW+QWDdEGP32XvJMpdgB9tJONJhcpKAqb6fuj4L3o6RnsWUrOQu/4JjROgUrQHcgZO4We2WfRIfKVbQBbnIKosG14rI3ZntIvdnbUbCA+kUf81L+UyLUpiQ+dTAFW2NmUpPTuXgR8RB/2Gy/IKd1Ye+2125/97Ge9u9rQfXxnxwDvUoATPi3zZhhSot+mICN0ht0lEynYbv/4xz/27mjbFBQHH/DEM1PC3d7nPvcJWeavRqE7s4vfZmTJBLvrvXjiZ/Ybn8jlOMgzu2xzSmzad77zneHP+Dm+M/MaPH+rrbaKeMJ1Mof3bCcdxZcHPOABEVvQaTqFFtpPjugim8JXpmRrqB0H70jJd/gw/oxtZsfxvN/MLtmim2effXbomCq5DTfcMNrMXkBKXMI/6x9aHXHEESGPdEW8QBbIbIZ3sg+ewb75PSWi7QorrBA2jJzx2YPAR6MFn8GPd5ESkqCP5wJd8C700f/8ff1Fi9NPPz10AB3IExnA72OPPTa+PwpkMQXkoRdklP1ku/GmrBxICcOULdQG+mVWiV3gI8D38R3/tYF9QUt6SdfpPPtUgpyZYeNT9Y+9p6dkQsWQ75e2r4TrbA7bmQL/sAviH7Qj73jqWeSyREowQqfJ5SCQRfJEBvA2JUm9vyyCZ/B9aOReMkDW0c/vZI59Yh8Htb8Ee8Em0Dfyps0veclLorrvS1/6UtzjOSnZC90vfSt+aEtKkEPO2V6xMVnXBjaNfxevkHGyx0eV+vbLX/4yaMiueg87tO222wYfxVtmD0s96Ad+aOedd26/9rWvhV3DUzohPsj6ho5kiy3hH/TTs/k5bQB5h1xCjMeWkgFtYyO1B0/I+jDow9VXXx39990y5iVn7BS5E4/TNzqlHfQKLzPcT8fooH6htZjSM8l+9jPoJdbQPj4Q/V/xilcET8kn2UePDM+l0+IDbfB7ljey7xm+q639wMaTPfaJb6J7+kf28ZvuaIt4G9ACb/lt/ORz0NU7/O6ddHE+MDDZzeA0KSsDXUIAhCESnFKJdFLjxykVLpNdRKa4hIvh60KAiWg52c0QkBNGQVYOHj1rt912i/vLIFWS632YL5jMePaznx2B0DhBMXrc8573jOCuBCVGj5zsagPjKqDzcwltYzyyU9RuBkKgm4EW2s8BlNBW1z/60Y9OPffiiy8OZy0YLIVScOB6yQsBFYES/HXb1Q8SNEapfB8lQwPtyMEYA6QPAvt8Hz6uueaaYdAyCLvvjVvGjO+SJYpT4hvf+Eb0rUx2GTAOrhtQMV6eIemlnEBm0RYtDjrooKk2U1wGQdluBsclOJIYlHLziU98IhwQGRwFQS2nUeoKx84ZAb3ZYYcdQuEZsgwBPUOSB23wFz0ZC4FQbg+DzckxaLNBTnbpE1pyaAKYQcauRE52GeQysUXf5ZZbLoLSDLTU1jxYwkDq58Me9rD4HQQvBjQMDGQomfmf//mf0J9SXzlZyXOp7wyp9hiwGwf6LGAj3xkcJ72WIGYZoQvkpnyX4NC7Sjml365JHsqA7a1vfWtcLwc62EByl5MxQBMBtO+Pk+B4Bp0QTJRyKqlCRw47yz+wAdqhjxkcbZnsgmdJyMpkF98e+tCHhlyX0GYDS2xBtse+bwCKjcWLLEtsgSCEnRoF72XfPIM85XawMYIP+pB9FHnBMwlDhqBEX/EpQ7vom0STrGSwLXyKJGscsA3oLqjOMiKAZTclv6XuCNQNnuTAHPxskMIAC7if79CvMrDj+/RhnMEnfBQs5faAAaac7LIXBpHKwVn4wAc+EH137yiUyS77JYFgk/rJKt5oe9c2D4Jkl8zidaYf2RWwShyy/9UPsknGy76yl3jL7rANWTaUFKIrW8F+5+9IDPFQfySww0A+JCnlwAFIPsld9uuAV/Sp1HUQcJLZZz7zmVO6mm2gZ5e2RTCqHyXttFFbDdpnZD0TPGfdGwb3CO7Z65J2fjbok22457KNBsi6NCb7+Mr35EQY9M/1cZJdzzcYgH4Z5InuGFTPQT97L3EqJ0cgxzT4XPpOPlwbxGy53eiKzy9+8YunyZVBD4MX5AncLxHiD0r/MwjsIVtNPvExwzskXnSqq7fkRFJZ0nQQJAOekeOFDDqXB0H1QxJK7rNMuSbWIlM50RsG/JKglDosxsMH8UvGoYceeqNkF8QwOdkFfeMjfB8/y3bxExK1zIcck6FjjndAIsc3jmOPyaylLnie4bnoog05Fpa401WTGBn6SV7IcYZBA7ZZYpyTRG2XQ4j9yP8o/rETbD7ZKKHfkl2DogZw83PIj/harJ9pg858pdijhJjXBIk8Q7vA++iJ+M3AfYZkVi4nDsiQHFu6Rb5K0H/9K/3UIBgoYLf4nNyGjGz3c7ILeKu9cgOTebnfYn3X0GQ+MONdlUx3J4LEdHt5PEpiSkxtK9WcBClIjLIVZdKe3UVi0o12h4XkEGPxs5KLFAjFNZsjJCWKf5PximsZKQCJhd3J4PWuNFESkIRqZKlHYkqUQyjTSIrSu7oI3TYnZY8yaWUn2lFCGWMSyKmytGRQo2zgXe96V++OZmpBd7dNud3Kc/Jzk1AHvZOBulE5j/vLHd/sXqutyk+69w5CcspR2pDfp2RRCYo2KpUEz1VKrnwm37fiiivGAvVk4OL3SYHeykySUb1RCW0KeG60oZC2KJ9QllLCJllKv5WRJAcT17QxGb/YCMXOzrnNnpkUd6qME9DKuZJkR38yklEPGir5GQVyetRRR0VJDp4DHmbeoKXyHvqUjGtcA99Dh6Sr8bt24mly7lGCneUBrdEoP3u2UJKqvF9ZZjLSY5e1QAo6pm1Eo7wJ3VIg0rvSRGmVc+Zy+/XLPSnIid8hOazgczLyvStNbOhgowfle2SuhBKaddddt/dbEz/TjRSM966MBrp6Z4bv27yCXOEDpOAh3u99GbkfybHGv4AnoMS13C0626ZSL5Qp6j8Zy6B3Sp6UQtHtUSA33pmC16n2AHkmX/hInjLwBdiiSWFXSMensG8ltJk+KbFT1gT6mvuivDzrEBlhs1NCF7+PA88g95m2bFlKuqLMzc7v5Ef5Hp+ETxm53+7L0A7X6TGbloEudhtOyUDvynDgGf/EL2Q7wlehO9pm3c2wcaB3ZniXDztDxrQrJY1hz0oZzzwtdWQQ0MdyD2Vh+f1KV7PfUu5Kv/CDvcwfPkgbUhA91nsylLt7Zgpsp9mvDH2eFPr72Mc+dkpe8Aq/nbGa7ZxSU7xWWphpD/hB71xLiVqUpgO60AX0VyKcv4M2yuLZuzKe6YJ+24meTUoBeO/qIpR2A/gG5df8TNd/pQQ9liukxC2W04B2+ehLKR9sMT9V6qkSZ/JS6rmfla1eeOGFYx0JxdfREbqcErHe1UWbBtKzbMMtp0JnJcBdGqfANPqXEqygc6nbXfoMgnfzzZ6RgQ6WhrCzKaGIaynpDVux0UYbxe8ZaLXrrrvGUgB+OiPTZvPNN59qNz3jc/mibM/FrJdeeuk0/+5+91133XVTpdkzgedpm3elJKp3NUX/SSf5MTJX0nQQLAnzDDFl1mf6qc/4AvSDLXRP7rtn4484cpQ+ky8xCF0pddgSB3yg2zOBtvCrlvDlduEv+pbxSkqCQs70w98z+E6ypvR1FM4666woKy9jQDpvWZs+0DsgE36nWxnoBGXM7btoKH7M8ql9eVkV30x+ZgPxqTL0LAfawS/yoZnXfKn3dPMqsfE222wTcW1KxuMameNv0Vc5fYZYhoyn5LR3ZdHSOiXMue8Z3kPe/G020I9urqSf2sfPljZYbOfeXAI917ghcp8QCMpBrLXWWuHoMhgtwQjhHhcCPWv3CHU3gcnwvqwoJTIhM8EyCOS4KAPMYbDmgKMlYN33dX9nwDnOrhABhy1QppSCWN8VmHMQF110UQRtxx9/fO/u6cgJfQm0KY3DMExyb4lu/xgJz8kO2N/1Kxsl614FU2XSOCn+8Ic/xFoActGlo36UbaKYp512Wvzb5T2DxUEKVHIgo+39AjDP7MoDmRQMMzZlsOx57u/Hky622267MMCCWIbEYIH+UfoMgS1nLDk7+uijIznurtn0vhyElP2HSWR+FNDHGhZrTjkhus4RdQP3fui2C/27YHh9GNNjjjkmPuiRgY8GEdC2/L5nCzTpCxko0X2vv8+WJujQ1ReySNbJgjWI9FXQ0UW/oB/60YM94GS7iR8ZI3+z6Ue3/RmZXpMkNUAGvvKVr0Sy3s92Wksn0M/BCT4MCny7PByFLo+BbnOcOVlEXwkvfyH4sXar31pRNO3HI23qx6NB6OfrPGNQ37p9wJ/uveglYaYTxx13XKz/G5aEdSEJ4RsFQpJwtgTyey655JKwI+RW0Jc/fBz+GnQbhwbo/cEPfjDsmaRjkC+dhJ7DUD6H3Erm/cuWdEEOtY+f7cJzSpqTBYk1XgwLXg1iCxDLga6MLl/Zh69//evx7K4O+j3rSV6/h3b9Yhz3dr+fk9EyqcU3NoTN5IdHQf+f//znx3v33XffsDVoaU2gtbAZdAi9xD1dSOLJv4GOEu7vtnkQJO7iiG5QTAfocfb9Yktt7tpC1/Kkgvgso18s6d5uuwTZ+sbXlsmXn71rtjuD8/uCeus+88CrYzT5vnIgdxjQ4QUveEHYAroL7IH4oaSbthqcZQvpvA/6jgNJhmfm+CKDfHj/TAas8GRQfNTlIz5LKA0ylgPjdIRsyzVGgQ0jx914Udv1Idsn/0pW2QeTNIN8REbXfqH5Ix/5yLDPZfI4U3RtR2mbtJGdRocuzciy2FSfs791Tz/Z947ue9hN/CGX3pORY9tx7Mgw9LNdaKl93bZAv2tzhf7eeEwwEEamjEBTQMGPGdott9yyd8d4EPwTHCOmNjQYJ6BeEmBACHa/0fouOEX0MDLYBUWhfKVAe65F2hJENC1nJRYistKVfRAEGLQw2mX22sYZs1EWiTLnxQhTvmGgqDnxlpx1kWfWyvaOC05XkipoYhjxnuERBAjwjPqNgvvMluTk8fWvf32M4Jsdy2DgbfbmWCVBKhr2q2ZYXEArs0OCWW2zAQqjWxrFmYJ+qOTQV/QjN6VT9A7BBlnqx88lCW2T+JsVUxViswr2azZAAzO+KhnQBgTBBs1s8DAoYFgS0P+8QVw/+yZ4hHGD3dlCgiC4ye+jnwJJNtTgoYEa1TxLE9g7gyiSEaP++lDOPo+C2RiDRa961asi2PV9M/55tppvYl9nG6ixEWby8Vx1VQ7EFwfIYZa/nDCWyAOJ4wZQEkiB2DCfZXBaEsvXjYLEkS6zX90KLcg+aSYBnmRbZZCZYQE3mcdbybWZRH0ZBwJ+tsfgKluDjmSjTOb1maz0o7GkQSwwmyAVPfHSQMsw4DW96DeALhZlA2bSDvzeZZddQl/M4mqL95x66qmRfJkFnA3IoYpFukan8UpVkwQ4J1+j4D5nqpKj/AwTAWLFMqbxdzEGGSAfYohuVcEg6LOPygDPX9xgx1WLkmdnttIfvBAj4ZFkfxTILoyaHfRcuYoBLvLLh0/iI9DcACvelhMW8wFtzbFtvwovEyQwk9iWnSBX8q4ci5IhFRIqKibxOQsdk1OnAOKaxaWIpvUZB4nBpMz3HCPDm2yySTyv3yzJQoCRJU5dklOOAGYwEBQUJDcCVLPWXfgupTTiZ1TUSDKDSnkk/N1RqYWI7LxzuQhHqUxSgLnzzjvfaCRsJiBH6MgJmSUfBu+7z33uEz+Xo7sZkjXPe8hDHtK7MhkknxyWoICBFODhodlkZSijYMRRG8k3o6KMV5skvcDho5vSFeXt3dHVJQXBg4Dbrn/6yyGU5VgzAYfKCRtNVObXr69oZdQbjfrpEIe4OAPrDI7n0EMPjUTdSH23dHGmYFvMbrMNEhOl4N5h91m0mk0wOdeQVGY9MhjRhWBUADFTXZsUdMc7lfN5L3lRzik4QsuZBAFLEvTDTponnHBCzMz0m7UcBaWp7B2/ikd2dRbc+Z0MC5AkDwayss/K8He+3L/jwMAt+8D/Cb7HKaGdC+B19j/62C9Ax/tu6d8gsDWeMSxRFHQLystlDYOA/koJ2bl+tsr76LWZuEmh7yrqxEzKQ5WeGpC1Y/pee+01kb3gd8iAWUP+zC7tpf8Wl4CZo0FJkH7OFBJudLUTdRdorIzae82EGzzot2yI/uuDpQMzAVth2Y7BRrGYgRt6RwfnIpYxKGoASvxg0kRiL46YBPqWd5MWJ5g0KWeG+We8tORIZWC/mfhhMCusYsrz8wx0CaWy8z3wLLmyVNCkgkkzcZfyXJVE4yTt4kX+qXumLZigEHuRJX0Ui6mYoTuT+lfPMLiEZjOxz5OA/OW+5yUPJdgROUMu0Z4E7KMBUQP3dl4no2QIH0y8dastlmaMjAIYVYzNRi6PwmUQLjN41gmYpREMzyQwU8LpGUY7lU92a8XLNpQY1yFDv+9PAoZFcEvgjHyUzxOgUKY88iKYIHxGybolPhI3wTplQ18j78paGJpMO8/L8J4ckHQDk2GYbX+HQfKGHnk9jXIyAYDyztwHCXHJHz9TLiUMuW2u5cS5C4MF1gpzZIIy9M1AH98tR7qs0RJgWNtTDka4Dw+UZpUjVZPQ8swzzwxDL9HjTLxDQDpOogu+n4NAwaGRRElMnpng/Iz2cmh5tFd/SznI/S/pMApmtrx7UlkoaYOf1gxxDGgpuGIIJ2lHCY6U4xRUkn/wXJ8M7zcy7ZrgrQxw2AZrkwaVxs4U49CILApYlL/mGUxgFzPQxbPK/oyCIM56KcdoCPokG4JZNJgkWfPeSXldQr8ETT7gWWyY9rFbWR7NBrFXZLarv2a9BMh5nSTMVFbGwfe+970IcAzKkFW009Y84g1lG/VpJjwahEn6Ng5v+AYDKgZAcrChnWUfcvsHQYJAh9CDnaYvBgDMLvmexEGiKLj3IdeAv+gngJpE7gxsON6Ib3TMSJafmWIcOumbwQz9U2lR6iBYh0kGrI3toks/P0vmVNsMS44NzEns+BMzbKWd9DP65XZIitlKvDMwVtpy70OrpzzlKZHs5Wvj9Bu0X3Bqnay4yQSBpUPs9KDlE4NAFsz66w8aKPcsIfkz02v2pzu7y5bTPTFgiXH7AQapxX2eL0nLcs6HKy8lS3jNv0uK2cgy6fIu/kG8Ve4hMIleil+8Dy3JvyRXEtDdF2IQ0MAn95sslDpAl17ykpeE75JYi5snTSQ8w54oYgXxQ3c/GHZDkoiWZQxR2o1SBruQuJEDS2nE8rkKxDMMnon50B88n5yXy27Efz76Xb5nEj4YFFJKraTYzDW+mGQgk2VfB8GSFvJP33w3v5s9s1+K331yBWkZv5Uy5Z7SN3T7oH90hY8btWRTu8UqWTb8m21EvjYK9Jy8iA26sa0YTwUC+w6e2W3vIPg+WusHmbdUwKCXir5xl6KSS/KQ++KZZRu7mKR9c4mR3kxgTngF+ZSMoSmFACgehkpOlOKNC8rEKFgrgQBGODl5joQTKEeIBVtmD/N3MrLz7hI3/84AZOTR2G4pgN8RP5cKDILA3Mwr4yHYM5qtPZIfM1SuExxOzGiMdTAcnqQmv5uScEqMCgEFDtSz3c8YKpe1oJ6DEWgScDTx/byeqJ+TRa/cb/caQUSb0vBoo4/3lM8YBELs+97vfs/DB/0V6EpuQVDBWEgAtZHz5YzdL9ky0ib4QA+Gi0HjoCjYoA1qOA8zn4IBMxIGB/QRTQQ5EkW0N5Pr3YIUDgoPOEntRgcO2Ro0JTLZCfib6/he0iHzyLOzQSL/NmdgfHPJvoDe6Cr5Kp3JIOijc3xzUOk93p3XRjHQDK/3SAQ9X6DESGsLZyOg8z008G8p8+isH56fjTbdYMR8+s2OduEZWefoevn8HGxwtkpY0R9/6Y7vQXaO3p+vQdkeYLR9BNnKxsgFvtED7ze7oOSbjhlx1HYBGUcmoPGzsuG8hsfz6W7W4wx8wxsB2ihZR0/t9295b34GG+U6vTaSa7BLuZjvSFINWNFhvKMbvpfpgY4lPbK8lGdFky0OmhOWvOG/D13SL+0aBbz3yTzMyMsuMh/A79kulP1lk9gGM4H0TIDAnnHW+EBn2TJBIN2kx+yWPmmjtpqhZifzWjfv0Y9+upa/U9KnH8gf26FvdCHrtrYo/dfOPJPhXw5Yu/ydLTI44xlmCZTIsY30m/7mZ2Voo7Z6V9nefnBf9kGl7PmeD7nJdPZ3upyfn6Ed7sk2mY1iI9lGH3Ii4Mt2UiJL5spndGEW16BMbr/+oQlbwK7ijaoBAY0ZQb/TKT7H4NKosnz9RVtyngfs6KtEF32doehvGVkm3TuK1/5OXvybbTD4PcswmQEDLt5FJvjj3F/ySJcMkvabqeU3yg1gyLgYx0z6sKoaOs43i3WUvrKB+CMR4KO8l6/xPDQ3WKvaCS/wDc9c1142gw0xQAv65EMWShpl+USTLKfoaXDBjBdbme0Fuy1WynQYBxIYukwXzOzQkxKW0phtw2/9zfKMv9pA180wlyCrnudT9qUfyJ4qFr5OZQB/T07Zd3RSxg8GVLRTQpdlGz3EI2wn+mfeuZ6rwbp6qf18QvZvfrdOWaAvTpmJfycX3i0BMnGBL6W9BYMGBi+9Y9JZ3QzVcwbszeTxgyXYDdcNGEjYyYtBLn3mY9GNb8oy1AXfJkaSLBto5efIg8EIMmymNcuGgTK+xvIjlY4G/9GQXuAjX8GeeRdZ9W8ZTwC60++sy9pJDiSpJ510UuhQlms2trQFg8BuZrvPHrFn9iyQW/DHeSM7/ov+kV2+AM34dH6O7STneJ/BXpSxm5hWe/meUSAb2iUpRRd90yffxyN0KW2l56ON92XZxWsxku/mgTP3+T57w2bn2BadXHdPKft+poulTtKRPffcM55rCUSmN7/FjnjGKLBf6Cn2UWFDzrKvwnvxR0lL/c2+1SdDf7TLe0fZjBkhPXQoEsHjHLYkBHH0QWp07y83IDU+joVIRO9dGY5kPOKIoSQAehTHwvg9MSm2nU5BTVy/5z3vGcf0fOITn4it7V1LQXKcrZsUKbY0T8Ic15Mwx1m5yfHEURYp+Yrrjhlwfp2twu90pzvFteT82j322COOpEnBdJyBlQKBNilwnG87DElgYvv3bbfdNrbxTsF3nAmcnGo8y7lWSal6dy/aTjsFE7G1fUpw40gJW8WjQQb6OfIhJTvRH2fEJQGJI5zud7/7TZ09Zyt9/deHZPjjnd692WabxTbhSdhjS2/b0XtXEsLolyNCUrAX28rbQt29aGyr/mTQe63oD/xG/2Ts4giUlHDGtvPJwfTuWAT9SQFZmxxXbCevzcmIRZu9E83QLgl0HM+Ct/m6a8OQlC/4teaaa8bZe44o8P5tttkm+pSS1qkt2pPyxLby/oYuZCEZ+DieIL8nGcLoT6ZlMoBx5qbv6SP6JKcRW8VfcMEF8Wx9ds395ScZzjgKIxnDePYgeL5jJhxvYLt6cq3tSbHj79qWjHw8ixygpb+RC3LrGJVkQGJrfnTw7vve975xDJEjfZw1mBLmOK4jJSwhh/Rpp95RBPo8DCkhiCMH6IJnJ8cXspQS0im6OVZK28r+0yVbzicnNXX+nGekoCWOB9HPFLzEdf86Z5a8p0A09D8lJsFP96Kx59HBZPzjnSlgiGNQPJs8244/Odcpfuu7duq3TwqSghfamm3GrW51q/hecpjxnS6SUw364a9+O/5I+xx/Qs/okHenoCvsDnnTZzrkOJ7kxOIZ+ORIi2TI44gb/PF+ffR+ukR/yLDr97jHPcKmklnymRxaXO9+tN99mSZd4DNbkemcEoDQF+8j/3533fucK56CkThSLAUzcZ3MOWYDTdmZFFDGO+lCCgCCB2wbPdLX5ADjve53lANbiGZ4noKEqfP6gP1DN7RCW7aIfUNfz3edHU3B37QjkPpBux1D4j3sKdlGZ7QvQW/4LH1gYxwpwSY7B1A72Rx6nYLPeD9915Yvf/nLoafsAbqkRDDeNUh3UmIRR71ov2ewNyloiv517SzbkumQ7TQ/QL+dcUjG6C86pEA8jgQiy9pAh8hdCsbjCIs3v/nNwadhcMyH/jrSxYf8nHzyyVO8A/xLwXnIgneTX3ZnkJ5kkG/PZOu12zEXzlSnw/qIdvpOd5wd7siQ7Ke1nw6QqX7gM1IAHTaEbaX3eMneeyeeeo5n8zGgTym4D/tKj/WHrLINXd+CbvSMHOI1/WCTU9AbMtG9fxBSchvt5EP46JR8xfEabLt2pSCyd+ciueVDHTuFp/qP73iawWax02wYeeJ7UkAddtXz9Znd33nnnYPOnkn2XO9+fB+tsm8ZB/w3mfHcfsiywr6hsb6z2/wGe15CvJVtjjjMdwY9N8Pz8dD5vHREXEWPut/TTr7NUUhsAP7xUaV/T8lL2Ofs3+misz3Fp2hMNukgnWeffA//SxrmD5vFjqckJZ49DGjBltJnfemHL3zhC9OOm5oJHA+Yj8EpoR9iK7RLiXfoDTlkZ+5yl7uEbR71Xs8Qb4mX6TebIGYtZRX4rKOOOiribn3ms/EGr53tzsaKV3bZZZepmIIuo/M555wTsQb+kHe6yPZ692c/+9k4iqfLBx8yJY7NfB4EspSSt7C7eO1ffqPsO5uubWyMWJlsk7WNNtooYlY0gJQQRzvdm5LokCt+Z//99592nOAo8InyC7aHP/J8/kdcQcbYMzEeXrGhYhEfbc/HEaI5OpWxLdnn/zJN2CV6gV5k3M/svqPVyAV7zYbKofBHfudIKXTq0jv7a7o1CmxVlv3TTz89eOC4RnLnWeTIe/CeDfRsvNcPvGEf+WbX+Dw8ubTPEbSzwXL+lxozK8jarWE0oj/f9esVFYsbyZDEbGMyCDH7aiTSrDDVMUJsRNg9yj/yyGdFxSQwEm0Wzxol8kWuUvAQo7RmU42cq6pJzqf3jYqKiklh1kA1TQq+ogIoz4YsbUiBe1QvpWA4fA/7kYL1+JuKDDOLqjNS0hvXKgaDH1c1ZYbZ0hTVB3lW2AyXGXmVa2b0Zwsz5CqUUgLeu1KRgQ8qJMyomzk2M65SgXybfTWDrJLIDOSw6ou5BF1STWbmVAXJsgYzt9YvWxPMFv7xj38MW4LmKhxUCOCFisOlPraV7M4WX/va12KGKRGod6WiYsnCDL+RWzOJs5VLo6Vm8Loj2BlGNFUZVPmvmClUxlx88cW9326Mj33sYzFzUFFR0R/sr+ous6KDZr7zzK4ZWHZ7aYVZOjOcg2AmyexWxWioXnnd617X+60/zKDNFqpLzMYNiiNu6jDbqWpAdUc/qOBQsVRWTs438syuWd1lESpSVGgMil1VGZmNXxZi2xltU5k6HrNZ1koacbHWxXrKOqtVsVBgVNAaDWsDjF7NBta5GG0049ZF0qGQf2sqqvxXzATW/5hlsi6ePHVBjo1wmxGoqKjoj5RExFoxa2jZ/2UV1jJa28he/KdYk5eh7ykRntoTpGIw0MqadetsyU8X6Kui5iEz3Fne/iv2CbA20fpsPFlxDnZ3XhZhLaqcwsxiP8g51l9//b5nyFZMDtUhKg3YE1VkXYhFbNjmiKxlIbadURmzDVQe/vCHB4FufvObx4JwOyhXVCyLsBnM2972tiidcSRBPt4gl5huuOGGsWFTTXYrZgIBuo24zj777NiYz0YmNiwDSa4NWJQRKaGvqKiYOZTm0S+bmCn1taHO0gbJ/M477xwJrThsu+22m0oAJAo2iXF8kPLDiuEwEG7gwIC2JXjOkrdBFkiEbaCoVJxdXn75yeaGxMcGKMUIYPMtCV227RXTYcNTO1YbYBBn2ewWzQ0UKCcm40qJF1ecJTVSxmujK+2yaZWlbMsKTFo6Y5dMimnJp83JwHIPm2lZnjrTzdQWHCS7k0L5TzIKUQ6kxNNi5IqKZRXk20YPSpVtrJWMbWzKYoMTZXHLQolHxZKFzTNsJGFjBhtT2LjCRjs2dFC+VVFRMXPQIRt92YhL2MOG2wjl05/+dO+OpQv6kzcXU2bJZti4xuY3ozYhqpgO/t1GnTbms5EO+bCplQ0KB5XDjwNxgU1EbdJjA0AbCVYMBnrZVM2GlDaXtJmSTRWV0V511VWLPc+wORS9Ig82VLJB1lxvmrSkYdMrm7TtvvvusZkcmtvUyoZRNq9aljAnG1SVMEthpMxW1K985SvrKFZFRUXFAodNPxyr5ZzO8izqioqKioqKioqlGTNaszsMa621VpTPHHjggVECUlFRUVGxcKH00dl4b3nLW5qPfexj086+q6ioqKioqKhYmjHnM7vgkW9961sjaLLWbNK1DhUVFRUViwfW7jhuw7ED9mOwfriioqKioqKiYlnAvGShFpDb4c65Zf12uKuoqKioWBgwGHnLW94yzpOs53JWVFRUVFRULEuYl5ndmyqQ0jEhdvizs9+SgMGFq666Kg5BX2mllXpXFy7ycRF2ml2c7cUj7zUgs9pqq/WuTg7HEZkVs4td3Y15YYE+/uEPf4hds+nDTYE/dgC94oormrvc5S4LRv9V+LBJdr61e3/FwgI9MavvKIol5bdUF/z6179u1lxzzWbVVVftXZ0feNc111wT+rHQd2PGm+uvvz78DBtWUVFRUTE55mVm17bVW2yxRWxZLfm7KcA5rC984QvjGJoDDjigd3U4bLH+/Oc/v9lkk02aiy66qHd1ZuDATznllOZRj3pU87CHPay5+uqre3+5Mb7whS/Eumol5jMd6xAc2cjG+bLl5xGPeEScbQvW/3X/bvt2kGx+/OMfj3Y8/vGPj8RzXKCb9YWed8IJJ/Sujgd0cmQD2XzQgx40dSzApCDj73znO4Pfu+2221hn+aL1iSeeGO22hX5dGzl/IE/4gj/77LNP8H0cHH300SGT//d//9e7Mr8giw94wANi2cdMdRHoxEc+8pHmwQ9+cPR5mP53YTDA0Vnk8rvf/W7v6uyhPza+esxjHhNtUiK9kIGG9NNGXTcVkBPH1OA9ezYuTj755DgaxCaUs7Vj559/fvO4xz0uZGS2fnAUJNS77LJLvOtzn/tc7+rCxO9+97vmDW94Q9gjR4RMAjq90047hY92zutCg2N9HOfj/FpHJS0EGFB4whOeEMc5/fKXv+xdrRgF5z3zO2LPSfxOxdzii1/8YsQSqmorbow5T3Y5PufummFwULfzy+Y6qBdAOZMyB4f+dXi3JG5JwYzFjjvuGEZ83KDVmV0vfelLY4MYwcNsgN5mF51Fpg2DIOjn5JUuOqtvprNd3nPOOec0H/jAByKxkDRKQL/5zW9OjUCjx+te97o4J5QSSkxf85rXxN/IhCT/Tne6U/PXv/41ro0LAyhHHnlkOKVJyy7xRpDmY0Z2pjAj7fw1o+7jJLqA1r5jQOD444+f1fsrhoOcP+1pT4tBiUkgALvrXe8aSY/kZz6hjZ/97GdDJg16zWbmmQw6P9TM3KT69KlPfSp0WX/f+973zunSk/ve977NQx/60AUt6+zlpz/96WarrbYKmWGP5wtHHXVU2IwMtP7gBz84r+8cBjzfdtttoxpg3AEhMFi42WabhZ5IEmaKLGt3u9vdbiQj9EIA59xT50AaiMr3f+Mb34h/J4Hn0Q0JYD96H3fccVGBkOF+McWll17au7J4seKKKzbPec5zJvIxGZIOMr3NNtuE/i00fOlLXwoe4IcYYVjMsjiA15/4xCeiusEgg8FoP1eMhskd8e+5554bExgVi5AHnMTK9DjbEbmK3GguYYKJzDo/nB2b6STOsow5T3Z/9rOfxejsSSedFLMWkpIf//jHvb/ODe53v/s1L3jBCyI4ef3rXx/O+pnPfGYkVEsKyq/WX3/9iY9aMrso+fz2t789cZCaoSSL41D+pQ2CFsELo92FA+kli3gj0ZwtjDoLVMDoXrkZGWV3ULgZZIHKBhtsMBXQa+u6664bMwqTQvLsvQZVVlllld7V8WCAwbFYM3lvCfzWb32YBErn3vOe9zSPfOQjox8V8wMDLuwEPk0CTttAhDLgX/3qV72r8wN6aKDoK1/5SrxvUjho36g60AOyeM973jN+HxeSh9NOOy0GEM28qtiYq5lNum55goGlhXwY/8orr9w89alPjcG/+QaasIMGOffcc8+YYZRgsUlLAvSEz7BmexKw84LcLbfccsazsQai9P3Wt771lD32O52QfEg2+BC+UTvx57nPfW4MDE+aYHuW2bqb3exmMZjl+fymmd6c5OMLHyYwNTuy8cYbR/yS/dvihhJrOj2TZTZsgxls8dF8bhD6gx/8IGKNSSBWkYgbKGF3DHyfeeaZvb8uGZANg37axR5fdtllkbwtBKDRXCdHcwX+h+3Sxm9961uxq385YLQkoWJkkorBuYYBuTe+8Y3NYYcdFoN2Ki6POeaYqHica3vv+a961avCd6sSe/Ob37zEB5Ay5ILs7JLGnFpBToNSHnvssc0tbnGLGI01YyAB5lzmCmYvJFHWWxIkDoyRmovkbTaQwM1knZzZD7OgDOxM8P3vfz8Eykc5tVHgPPvdBQPOAc5HcGUkOkOQYsT2yU9+crPHHnv0rk4HJ+yoqkkhSGE0Jg3QShhtmy3I3UzWfJETgeJ8J1M3dRh4msk53xJHzoLznku71QVnTBclhJOCI6Nf3aqZSfRJ3z7zmc80e++9d9hUtGJHJQZz6SjXWGONBbN+uB/YLUno4liv+oxnPKM5+OCDIxD65Cc/2bzkJS+ZqnZZUiDvM5FB9k81j1mEmeiJQfDst/KgjU3S0IZciycMBqtYMsN6yCGHRHJlVvDRj3503D8uBOD5XWeccUZcUz4rcc6zxQZQ8URgJq5Qfq9yaTYVF0sCeCGhfMc73hEDOfMFgxXeMWkFDHmhA2IQOscGXX755THQtqRg4NnMrpjSYIjJADK5pGd3yaZqm4UIA070UUJnMNNkE72hU3NdzTkpTBxpy5JqBx1UqWKwykScAWX2xVIRv89F/JlhsMkgt6VIYmpVYniyEGZ3ya98cEEgMaVijpCMdZuEu33Vq17Vu7L4sc8++7QpAWtTItW7Mr+4/vrr2wc/+MEinTYpXVxLTrBNgXj7/ve/v02Jd1wbhHe9613tne985/aXv/xl78riQQpq2hTktmeddVbvyuRICX372Mc+tt1iiy3af/zjH72rFQsF9PF+97tfu/vuu7fJ6fWuLv1IAVibEtQ2BeFtCth7VxchJR+hi4tL/8dBChzblFC1KYnpXVmY+OY3vxk0/ehHP9q7ctPA7373u3b99ddvU+Ldu7L4ceKJJ4bcpuC5d2X+QGfw+cgjj+xdWbjgX/nHpz71qb0rCwN8nzjnFre4RfuLX/yid7ViLpGSyTYlLe1KK63U/uxnP+tdrRiFlGC1r371q9vb3/72C8oP3tQg/uJT7n73u0/lBksSA2d2jbIZ4cqj3kpplF9mqA83Q2VUOG/IlJ4Xa0VsquC7yoIOP/zwicpzzUoqhbBhhVmKpz/96TFb6dkZnpcCktjcQAmUEdhTTz01RoLBvWYWzWxag2UGzSiLUXRlispqxxmxM2Jp9DIlbbHZjVEiIzTK8pSf+XkQtMXo4H3uc58ojTKLU8L71dZbT2Pmw/pTo9e5D+PAOl2jor5r9DsljgPLu/Tlpz/9aYz+GFXyXmU7njGXQC/rFO51r3s1L37xi6fN9o4CmUuJScww6Uu3bdYu2eBKeaoZVeXrRha7QEMjxXiWAoWgPzrlEfwuPPdtb3tbjDR7/0zKyckcObXZltE8ZSUlL/18ySWXRCmekjxlq/REWXkG2TdKR06tffE72cNbctyvFIQcWfNnHZr79DnLO3oOG3XXJvyysZF+64PRQLMmZNIsn3t8VAoYubV+TqmMez3fe80esBHKv0BZIxnDe3agbDcekHM6S3c32mijGFEfZ3ZAO+yufMQRRzQvetGL4lmqGrSBTFgvXtqJEr5rpla1iXd25cbfXdtuu+1i3Yt+mrVAn0lgBglfcxm10WW2qIS+qnYhC+hk7br17OPoonvoF/3Q10033TToyGaW8DfLGOi7WbtBa3G1TRvx1n30AF/HBZuIB9Y6mxWxwQs6DuID3WJ/vUuZZb93aSd6WBOqeuPZz352yBQeZaCDtU/PetazoloFn8zG8xkve9nLlsiMjDbYowLf73GPe8SsZzlDjibWbZFdMsZOaGu5flS/0DOXByt1dw/bRK7GkZGsJ5aOvPzlL4/fzaKSFSXLwyoW3HvWWWeFjyMTaFze62ezYGSXbcVH5XNlH0aB/CtNtt8CPVHOrb1dlPRi75UT2xBrkvXfnkHXzHaQT2dI84P9oGLIjIhZEvQWe5Ql2tqtnXhsNh6t2EX8ZoP6VVL5jjiAX/B+Pst9nqMf4/Azg66paFtvvfWi7NsMeGk39dVzyQn/y7bQfzTMPHS/fr773e+OPvAxZuL0mR3q50+70G520iZ+4g1tYYP0i36LxVwTC5pJ55fEGhn0hF8TG/GD9CTzXzs9Q5vQlVwpMeb/PMf3Jpmtc2+OJ9Fj++23j+rDTI8M/eBXxHUqBMlLGXf6l02hm56hTWwX3RQb60PX5viO2WH2mvyir4q0zPtBsRr4Gx0Tc+MR+fIMpd/KYc3g8blicDF2hj5oD99Lr2YKPOIXVB2yU8r6M48y9A8N2HMySeb4j/I+97CB5Jb90W/2g33DeyW9mcYZfqezqh3ZF7GqGIEt9P1hVUfeTcfIJtkhY2STP/GzGeicz5SbUOKLayqQxF+lr+ki20j7FmQ7f9BBB0WbS+iH5QT6IZ4SV9GNUmdHgX9WXaLCha1UCYYGJbSHnSJn/EqWszLuyHqvndrrd/aDnnr2eeed17vzBrhHTKefZE+VpqoY7/cZ5mPxio0gm/RILogPbKf4Hg/IMJ3ONpacW6aiYkieRmbmFIkhA5E60771rW8liW1qdO/qDTjwwAPbz33uc20iSvyeGtemZKRNRq5NBitGypOBbxORYoRyFJKCtyl4aVMS2CaBbpPgtil4bxOR2pQ8xD3JOcTzkjGKd6TAqE0K06agqE0GNe5JitqecsopbRLENilUtMsIWXL+7a677hozeonpce8wmG1MxqNNhG9TwBWzKfqMFkbCUyA/bUYyKX7M7CYD2O6///4xe6gv7k2Gu/3Nb34T92m35+mrPieD3B5//PHxHm0cB0mY2uc85znRFrRKgtKm5DvelQRz2ogW/uh/ChpihMX7U4DYJkPWpqSjTQlX787JUc7snnnmme3WW28dfdGncZBndr/0pS8FrZNzbJNCt0ng22SMene1bUpe22RMg2/6iu9G71JQ0ibn1btrEXwvBXntlVdeGSPQKTkLmuh/Rp7Z1dYDDjigTQlYtCU5jzYFVGO137PzzO5nP/vZNhnk0IcU+MdzUkDXu3PRzAXZSEalTcYp2kYmfBd/fPwNT9Hy4IMPbv/f//t/wd999903npeMx7SZcnx7+MMfHjrnOn0ld76Pr/o7bNQ9JaFtSqpDd7Q5Jbchr9q61VZbtcn4t8cee2zQxWyXvz/qUY8KWp5zzjnxDO02g58MV9A5Q1te/OIXR5/zqJ420o0U+EXbfTcFImEjUjIWvw/DJZdc0iYHHP1LRrFNhjP08aijjmqTwW7vcIc7TBsBp49obHQxOYywD/qWgvjQk2T84z78+NCHPtSmAD/o5fcUpLTJELfJUYWsjYK2J4fapgQunqH/KakIuqTgKPQ835eSsvaFL3xh6CgZwvcUZLWPeMQj2uSg475h0J7ksIIO+MAmZtrl6+T6wx/+cOjTS1/60pD15ADjnowf/ehHIWP0R3tTENImR9ne//73H6vSQp/22GOPsL/J+YXd3WuvvUKeyAs6Qp7ZNZOWgrcpP5EcXpsCsqn7AE3wQVs9z3PxnCy+4x3vmNJ9/d58883jufhKZ8nqK17xitAV+l/qyjiYzcxuCoJDd80a4kdKqIKOKYmYssXkwe+nn3569Jk/oL8bb7xx6IPvsaF4YDaHjWLj6CRdwkO2YJSekD/yTA6e+cxnBn/YOPTfaKON2hT0T5tBzTO7fK13oednPvOZ9iEPeUjY15Qs9e5c5OPZ4fPPPz/6wI7Rp5RMhAyNgu94j8ofvkNfPAuttLdsV44f+DWgG4985CPbe9/73mP5LO/64Ac/GH4284DNo4/4XM7spqA0eMMesv1kOyWKbUqwp7572WWXtYccckjIF9v6pje9KXyNd7Bzvu/5GXSbPUhBaMiyvvIz+pmCzDYlM0HnYUAj/nGbbbaJ+MO/Pp6x8sorhy3J+PGPfxw2i+54Fz/PfukDPgG5ZM99n+6xF/qEFuIl7RoVq6ErHcRHM7vsB9mlq3Td+zz/0EMPjXeQ5ZSAxHdTYNumZDxkirywQSmRi1hE29jsFGBPPYPsaiO+ZL/Kpo0D8pLjEfT3wTf+S3yYwWfwdynBDr7TB340JVphewBNUqISspeS4eCjmIrvQQd9ZNMy0Ejb6XKOT/zLztM/8V9KEgfaqEzj17zmNUEHvM12Hp132GGHuM7Gd0Em0Wwcv9UPbKv20UsyjD76nZLFiMMy8JrPOvvss+M+fl5cLi5m60CcilZolhK+iPHIMTsj9iE/ZZwEYh50IiPowC+RTTO1dAlvBsVnmW6qDtxPZzPd8ND32VHy1IU4RmXkKL8hVuX3xN3ex95uttlmIb8Z2qCfYgL88m4xiLiWzo4TX4oLxEp8AvqyLWyymKaMqd72treFDLrmPr4I/djKHP+hpViJnMqB+GHxkzatt956Yb/QKkPf2C78pJP6iY9sDhuBjvyE6/3gOvvj+56tHZkP9MBsL/6UNAPfExux+YOePVMMTXYBkTSKgyidGQZyBggBDAmDlhM6wFAlhJSS4x4GTBMoMUYIkkGhJIHvfOc743dODiMpdCYGJgt0OdAM7yYAEmUKlp/JkK2zzjph3MYBhnFihKwMADl9gWyZnOZk17NzcAu5RIuSACPMuQtcMgTeFPoFL3jBWEEahyHx6AYYHGg32ZWAEehugGAAgfAyDOO8sx8ocU52n/jEJ04F96UcDAPHy/iXimOQA484qozvfe97EfiQh4yvf/3r8V5JZgYD8dCHPnRa0OF5AjLKT+GAPGorR59lAw04VIaZnIwCwyLZFShy2hkXXHBBBOFZZoERJUc5wSKfkjCOQfsyBML6RA48HxhOxoVs5aAFtF0fBBAZnBGDRg5KPRoEekvuOOXcNjBgJXDikEq58S5OS38yvxgmyUiZ7IKBMm3Ohtm7JOESkmzsGVXJjQBunGD5qquumgrKBAAZBhtWWGGFcKIZOdnliEp5lBThT3bI+I4XkqccIPj3Gc94Rjj5cRJQDlliUJbF6y/5IMtZHzkMhr77TAEeXRQc5jYMAwdHTgaVMWdbA2imbQKYLBNozalodwmBhu8LxIY5G39797vf3W655ZbT7iP7a665ZiTYmcc52XV/vtf7n/SkJwUfBUSQ+UAHS1lwXfIqQSn138CXwCUP9gD9Zof4rHF0uMRMk126QobxtoSAaPXVV49gUL8FU/pbyqIEHr0Flhn8GL12f6YhWaKjbK2fR8E7PFcSUdompeQCLglaRk52H/awh02zL1mn+LoMPBT0Zr+vfQYa2MzS5/QDGrC73lPaPDJJ3rS3THb133Oz/QB+D48kp6Pw3e9+t11rrbWm2Qlgp7rJLrnyrlKf+CRtKu0aWkk++RJ8z8j+xHcy+Cyxi2QrQzxBPjfYYINp9nYQ+Ffvwx+2JesPmZIQkvMc0ErWsrxlSLhcO+OMM3pXFg2GsEkGWkraSuzo6bhLe8R2/cqY2Rl0QxPtxSt2Rl8kR93nSzzQTvyXIYbwjDzJAZ5hII3dGuXbvJf/MdiTfT6IhcSEOTEVp7HRdLUEGyz+kPDm/pF1g4PiFfqT28B+8eMGfDLEH2JS9ryEQSeyx8+PA7YAHcpBXKCnfKtkIts+0Cb6WMY/k4BesjFlXKvfkm50YyMhD3KVsg2u87nku7QlT3jCE0IO8/eBXNAPNMq0pB9spDwg2z68FCd6v/huHGgv3ejaJLYQ/8huSTfvxe9u8tUPBuzJS/l9sl5+V0xkQCLHcMBuG9ikM6PsF13hW8vYFsTq/GvWIXpNRrt08bt4WdyYaUuOvVs8VNJF2/lRkxkZYiNySl8y6IQcj6yPE9/jn4TZ/aWdyX5AvGNgLts0EBfRsVH6PROM3KAqGdRm1113jY0bkqD0rjaxc6fSHGVmoLwjOftG2UEyXPFJQXeUQiSiRdlS6lTc2w9JOaM0T+ma72Z4R2J8lOaAcgAlwcpHPBeUJvhOYkb8Dv6mLEH7PCM/0xS60owUTMXvo+DZSRCiBEIZQYZn2Ok1GcvelRtgyt57MvyeEtCpkj2ldkkYoxQ8I/dhnHYlpYmyjpSIxJR/CaUkJZLANQceeGCUZaFdCeeiKQVXKpMUoXd15th///2Df2QlGeGxy43wSDsyP5PDbTbccMNp5SpKT1NwELzMIF+QDEr8633KJJJRnMYrvyt1TIZ2Gr3QW4lzlg18TglplBInQxbXxkFS5mm74KKzZ2lvRnJaUeaSDFD8rq/an5R6ml7o+6qrrhrHyPgZ3KeskHwnxx3X9NWZqL7rXRn6SlaVWY1Df30ne+iV2wZkVD+UmXhmBjlKziJKpYfpcz8kQxtnQSup9U7wfu3Xr2SP4towoAW6KLEsZV3ZMVqWMpPh3nJXZvfSs6yP3n/ooYdGSWKWqcwfcuC5o6C8DL1SIt67sqi/SujYthRIB73+7//+L9pStgcsRUjJTJQZzXSjuhIpYOj9tGgzNjaIHc19ufTSS6PUidziQf44K1zf6UqWtX4giylZiDZnvYUU6ET5tA1oMo8zlOLle5OjCxuKX9nmKfP3TKXQ/p6BP8lpR2mTMr0MeuJvShSzDtBvpepKKMfh21wgBTah2/SuBF7yD2yMflvWkZKpKDUD8p7tUWlv8Avt2OdMQ7JE3lNQNpZe+57Nf2yKgs4ZSgfRKtvMEmwu/52hTFkb+ZsMJctKorPfh2zHRrUrBdJxpi8ZKW0KuXOtC/RiZ9gg0JbM53F4S6fRge6VyM8rwa94V6k3mTelHni/9qIrW5jhdz4efzKUgON/bjOQWXRW3qrUb1zgYekj+UNn75LzFJDGNXqQ5S3Du9GtjI30y8du0yW/c1zUTzYmATpASmyjvWwPu4i+/LCyVHzJn5Qcx/0pgI9/Ifu+si/k2bPQeJTvYYNsjOPEjsxHUDpPDpVwQ0pQYidobSpBpsUwlqWIKbxPX8SUdJGNIgfgGtqVcsLmp4Rg2rvBfb6XEsHelZkB3+wgb7M2bcxgQ7WzjH8mgTJ2cT55zsCj/fbbL+jmFAmwLEwflFSX0C6lqOSbr89Ah+y3M+glueADsu9HN/0pdUZ/tOe6666L/s0GbPRuu+0WfobNziAHYh6xwSjwQ/IaNMk8V7JbxiN0UhwsD8hyzubJm/Q3l+4OAp/i3i59LT8g22wBe8vPZjqWYGP4QcsBchyqDWiJB6VNRBPtLPU+t6/kA51wr1xhEtvVhTY85SlPCd2We5Tv/dSnPhW2LevWXGKsJxJeBsw6WaD4dllWw51hvYaafIz09+6HwRjWAYYBusZhEDAaI62r8283SfSubHRnA+0Zt02TgoJ/61vfat70pjfFGs9+gXo/MEgch6CJ4AwDQXJvP9pzvBQCKNBsgd4UXODACHO+c/HcEoyLd0isu4flkwHONCcsCxHk3Br3j33sY1PnrpVgSLOjHwZGiIPGVw4ig1789re/nUq45wvjBNyDQO7ZC+vjOAVObFxIggQX8wWDBLbuFygZ9BgH7JvAlp0YZuPILkfRT2fpYk6WBLDzDc5dsI72XVvtI/EfJocSIIMFc2kb6S57xSl3wdahUUkbQedCAFri6TDel7j22mvDyR9++OF9g54yEZwp2EDB23xBAKUPYoKfj3mEGt0SyHYHekYBz9l7Aeq47yJHF154YSRHk/gDPoRtNlAh2OyC/Rn3eRJn9ly/M+gW3THo4G8zBXkz0ATduMGgFlpJ9sUKXbCf5WDS4oI4RNJ98cUXx2BF9yOOyzDgMxuw3fwrmzEM4lj062dzxEZoJXEzGEW/x9VNAyoSP/a+9JV5cqQ78TAT7LzzzkE3suodfrZ/xxOf+MTeHZODztCBYbED/22AYJDNk2iRr1Lux5X1TDeJqP5k8FN4WQ7OzATa/KIXvSh8h4Q1g7+zv8E4MZNBuMc85jGxR8T6668fA3jdGIyM77HHHlOD5d2PZG8Y9D8nyYNg8MGEBx70iylMkJC3nFuxW8OeVyLnBd1JMD6f7M7W92qH42P5TgPrQA/lQ9YIzwfG8s7rrrtuKNDnP//5MCIcNMErZy8xmHERaM8EFIgjYFhGwQigkX5G3YJtydU4CcJCgb6a2dUHGylZ1G8EsqTnMEggKZHAwbOGAU0pF6H3cwkKkkenx1WCURCUSkZtEkCIDZSMmzQMA/likCz2NwNpZNYscoksQwxPdioLBYy1UTm8tvGJjUPGGUUcBs+R8NrAgBHSd7qBVnvuuefYwffiBCO+yy67RCApqTRgNhfB/WwhAdl7771jIILzMttgZmtckD1985xByLpoZsK/JehinvGbz0GKDO/nLGc6i6y/PqNGqCdBHiUXFHftmqR6Eme9OKGtdC4HFYMgATMSb5MlumsWXTK2NEGipg/s7/bbbx8Bd1nVMgw5KRt3MMf9qkDYCb7STJuNcMaBpIoPEE+Us5qD4B7VGfTeoBP7afZkNjCLZ0Os4447LvSMnAiCzdrstddesw7ccyKX/6U/J5xwQlS9mb2x0Y7NZxYKcvwxF1Vko4DWbBx/2I17StBJ95ZVWBkCegMzbE+/ZGIY8HafffaJo7S+XGzoeNJJJ4WM5YGK2YB8ORP6/e9/fySp4kKx1mzkFq20tUxUu/B3ukne+s3wSYbY6Zn4MbJMfvkV1aDsKrrRTce2zVYnwaym+NRAO18jZ6GX/apL+sFAlSrWo446KmbQ0V8clisT0AcdDTSRr5nAM+Q3w2ay0YaNw4OyogTIqzhZDDgTPqjCYtvLwUzxjUEOA4/9qmMmxTbbbBMyTE/wWEUBOs7WLg7CWNEwZVe+hKgcHeZ2R4+M5lA0pXEYVUJixggPMzp5FPqzn/1sBGFdSJw8VwnV1ltvHY7PDn0LMfgZBX1APwGP5G3SpISyCfyUjhP4YWA8zLhS6H4DEZIwtJ8ksB8FJW4MgTKbr371q3GuWFcZJwUngd9G04yq9YMBD8GjGSK73nVBaWdbBjNTKDkz2202ZC4MBXDEZiDplTJYRlzZLMfXLctaCOBAzfZrq0BskhmX+QTZJFscrJL/SUfd6a+A34h4d1dkYM/sYkg+8UxQ0i/gz7pocHG+YXmKxMVOmt2qGPJEf4clCXRcMCgg4ZS7yLO0kyDPbAsQu99l53zGDUgWJ3JZvBKsru/zuyoGbZfk8m8f+tCH5tTeLk6wY2RDDDCpnBrUEoQZzR8lGxIVy3zsBspmliXD44CueZ/39IsnurAjvZkd/SpLZ2cDvtfzlH5aCsYPq+ISI5nVmC0kaN6RSx3N5tqd3ICqWZ1JE7T5hiCWzT/66KNvpCfAlswVvIt80rVu3OPddJXdVx6Lhv1m8ek026Yce9IKFrQ30O+UAwmDmWpxq4+lGONObAwDvyMO9i/5ZTcNrsymYkAprllZZcpd0EmlyfomGeKvutV1IBHmQyQyMwHdMIlllloyaedmMaTf5yLel/xJqPF/3333jVMn8lKTcWA21TMMWpiJRCu0yEstybgYnTyz/V2wR2XJfj9YGoeO+lwucQGDDAZQ2BMlv4PiWomwWGYmvoZ8mkQxuKDsm/yyXa6RubmwLZJxg4pooT/HH3988Hq+MHaWJZkVqCK+QKc7K8XgqhuX9TPwOblhMASQDM+wpE4CQFGtxzWzQnhAwMU5MFgILOklBGUpI4dWzpQILBi0rpDMBJR2WJJeop8B7weBoECzNErolds7qu3KoxgShsenfC9F0N4cTFA8im3WgaCWdPJOSmI9aZ5VMjPFOA+boRqEkk4CYc7XaBwjbNv1fmW749LWaLh7y/IrcpChX+TD4AHnZat8o1Bo46PM1Ah7DtDG5dUojNN+OkCutT0ba+/POgI5sSC749LEzL5khb5ZC2gNjZlJCdWkxmg29BBY6lc5Gqxt5FzlAlkHPNBGcp/bhzZlUjVKZ9GmlOFhyLwfBbbGqCK7ltuFDyV/tHPYsxhpMu/QeIY7t9EAoLU9bCMaCX7YMrroHRn01cipQUVr00YhlxHlPkqg/Tuu7BgUsuafo+ek8wg9+huYRIthAZ6/KTdiP+h45r02GDEXBGRdHUa3EnwMH0DXVb6UMDjgeXl9H8yFfZ8LCAgkYwLrD3/4w1M8wBP8FDiwVWhd2gD3lRUoc+23hg1WdDEuj5R9ko2yD6Ud9s5BzxIAGugSIIsjSlnN/ir7fSP9fD165UExzy11chidfI98SlZU1OTnQ25jOStlkIrul+8qB3Hos482j0srdDHzJgH1fH2jW2ZdJx3g7kI7DJ5KnvI6SHrDLpR6W9Ir+5ZJfMwwkANAD59sgwZBAC9u+fjHPz7tCCntUTpermOdrQ6IZ/DfOyyXyQmv5wqqyYA4Ae3EU45hMctXwqCMZEFVAejbuO1CX8sUlLnSez5Q8mNQdZKZthwjZrpmX5phkNWkgkFvSwUtJSxBZs2KisHp1CiwwWwZGinzzdU23vuWt7xlasCKnabPJr+6s+JiHTaxrLwrfd0o2NeCDGsDvrEX+ph1cxzgbQnxbCmb/J/JJoMERx11VKzBHhfiSrIO2qQqEz1Ke6tiDZ8l7srzs76pOrT0ctRAIT7SFQNDaJyfLVFGH7ok7nrpS18afUWrEvoq3iJvWYa0YZh+lmD7DNYYpGO7yI53SK7HjS3dx/eV7+wOjKvK1RcDm6pfyrXEc42xLS7nxnAjmMXY2dll5FFLRlxAZzQBYYzMMPqjyg8wDlONSEpuPU8JDmWWpNiwB3LJlITYqK+SWYbSeyV+7hV4UVLGSpCajSoQGopL+McZ8SXU7sfsHMBinu97lmAvK7IAX18paHmv69qDmeiXGaoPZiwZIwkmR2UGyMif2blBkOjbzIsyMQKCaYGBYEt5BQfnmUZ8CJwA0WiMQNzftdGHIgkKCDT6aZvAYOedd47SgtyHYRDM5/UKypNKweYMlaBxPEa4JATWJqOn+/BGPwV82XgAWjGgJY+sIdBmiXnms8ALDciA5IEimTHXV303u+l7DLjrRmjdr5/KVrShdNAcWW7HOKV22qbP/i2V2M9ox3l7JsNtMEcwwoEox2aw8vsYXPzSDgkPWROI5XZ5FlqgieQxXxfs+J5SvxNSEIW3PoyT5G0cx4z26J3lOcPv/kaW83O813V808Ys92YJJWiMOF0U8JPhHIQZ+cRno+1k10CEkXVtRQ8Og3zQ+34joSW0hz6hT3bEkB05vme5Fbygb9a/jMxjJY7u5Sxy+b22448BBDaJfnOGArRhMEOgtJMskHMj5K6hAceVB5Ny+aoRZUlh1kXBCl21nmicQFig4X40IwcGFvCPzYMykPd87WIXc7Ckz4IXfBMIsUlGt/GSLEmEh0EbVVnYRMn72WW22/cFXWxOtil4T2Yy3UFb6Rjbkct/2SL2Qt8k4GjvPvdYlyZx5FPAc7M9Le07Wc2/5wB3HJDtTDP/jmP7MpTWsj/6i3903cyHYMXPbBAboHSR7TLzpvKEDWCr8RHNDznkkJBTFQbak3kF6Od3A4bZJg6De8iC7/huBj1Bs1JP0J/dwZ8yKUSHfK9/gZwI9vBYX+gJmtMxPow8ZvvUBf9Gl8gK/pq9kWSQfd8F3zfQgV50iGzxRfwb30SWPZ+u0sncrn7gX/MyD7GLd/G3BgSBL/IudkzCQz/YJv3SHrZdnGMzyMwrMqUNZCy/W3vQjqziT75OfsUobBx76N1snj6ZSSz5OwjeT77oEBqwyd7vGXwY25+TJwNq+GsAlHyxZb6n3fxlrgKiT3jLlpc+Iss/3zGMrhl0nbyIIyxxU7GGBnngK/+bYXaIHvMDbI5/xXiew2cpawQ6kL9bDgb5mW8lj+X1fkA3MiaQNuju32zfyJiNquhdbhOYweJf9QHv8Yw9yhs3uk5P6FO/mBL9sm7y1ewrHtCR7JvJnORt1JKHDLzHX20hS3hTgs1UEg/sTXc9PBspRlSRoT2jgCficLZMHI9ubJl/6W8ui6fD4kn0wsscP7AN2klf8vIk9GIfyFQ5+IJmfmen8nXPYCPIK3tIrkq6ec4g+1KCncKPrHdmD/E7Q//EudrEP0+SZOVBaTzUFvqoL3x7hljTci3t5UvxUSzgY9Jw1IC2eIFuG2wxMCSPIr+qn8hezoM8i22TiIon6IWPmEsOxZ7lfmd9z/Fphut+L+N3csYnsV3i0yy/eCtGG8d2obF+i8PwAQ+7y1TJq9lddlU/uoMUc4rUubGRFHnakShdJILF9tsp0ImjSBJzYqvxJMC9O0YjET6Oz0iKFVuY23q7fJ93JGWI7bYdYZCcRmwtb6tyR4ek5Cu2PPfuFETjXByV4uiKxLzYDj4xIY5USEHVtK3Qu/DutdZaK+5PBie260+OMLZ7T4ocz04BcWzhb2t070mCFUc7JOMQbUsKEFuduxdNtDEpYWzprQ/a6YiE5HDjWAW/OyohKWGvFf3h70lwYov+lFTGluBJCeNoCOd4JWcxje5o5Jy4xz/+8XGkjO8lB3MjXtrKPAXpI7fGJwvJuUaf9c1HP1NiObWtOVm4+93vHvTL9+AJmuLxQx7ykKCr60kxYzt3RzeUPLrzne8cNE/GMPpGLpLxjq31k9LGz/qSjEq8E/Q1BQOxhb322YqfTKCZ/j760Y+O8/q8F+1sOZ8Ch9guH+9cTw4uzrodxIeUuMZxLu7VVj9ru+MTkgJPyQFaejeaOGqF3JCVZCDjPDsynoKxOGqFDN/85jePZ66++urBp2RY4l9y5rrvO98PknGK44xc737c72xOcjUI5Fu7s3zTh29/+9txBlt5ndyTB3TMMp6v0zc0crZbCubjOIxPf/rTwQPH4zhrzj3JyIbuOvokGcDo98knnxzt8z60R49hck9n0Fb/yAY5cSzIc5/73JCf3O/HPOYxcYROlk1tpWvkKCWi0/QRT9A+BalxdITn4wd5S841zhRNQeJYW+HrC3uSHF3w0REZ9LD7XbSxtb/jGNDwaU97WtBikF3th+TQYov+ddddN+xhCq7aFJRMs3nJIcfRI8lxBs/w08/oDGjte6997Wuj33iXAsOJ2pEcb+glnabryTFOOxonn42pTXQtJcQh0/qddU1bU8DZ+8aiZ+6///5hS8iK4zfoZ6ajvrP9+bl0wnvYv5RYTtNhvBwmU8DnpCQ6bIvvea7nsK/jwjtSgBDtQGv2+Nxzz53Ge+9JDj3kjq3XzxS4x7Ey+ssvpORsStfRZYcddgh6kd9sK9G63zmRGeyQe9zrO/QkBaHx7qwT3qHP6J6vkR33ep8jx7KPQw9+Sx/ZMm1CK7rNBqMTO+dZdGkU2IOXvexlocOO8NE2NoO9Sgni1DNSADTl3/g09HJEk3alZHusd6XkL46ZQT909h62iq7rJ1kC/WC70cCRiimQje86lsa5lHjDpmTb7r4UIIe/FO9km4JW/Av/6PvsjevdD76wE2zBKLBFfDdf553+dVSS6yW8zzEu+ClGSQl4+ElHjYh/0I8+lPymh2yWfqKz6+TTme6j2uZ54kF6T+bELexltkH4pD1d+0eG2Bw+jn6zUbkv/DjfUMo6f5mC7vBJ2Y6R0wsuuCC+MwzamBLW4BsfQ2+6dAPv5VfJSEoaQ7bZ7mw7yINjY3Lf0JAMp6QiZEubfPCHLefvHC2Z7y8/+sCniw9HgS12hKZ3eJfndqGNzpLOdr0EW+xYP/aInxkHnnfhhRdG7MqWio8cCdaNJfBVDJKSuvBDbNcHP/jBkP2Miy66KGIU/NRvPHRkYvYZrmVfLl707nwcW/eDvujAro4CfUY3/PjkJz95IxkE9oMupUS4d2U8sD2ezQfhI11hw7q88bt4R36g7e7jx7JMjYI2X3755WG30Y/NyrlCCXE+++Dv2oPX4t9Szp15zR+iN56Sc3a7m5/QEXaEveMDujzw0Rb+AI1HQRu0X64g3+gXj5IX9/TTy7nEcv6XOlBRUbGUwQhjcnBRrpWcYswuJGMyNQJtVNTIcnIwvW9UVFRUVCwOmFky66mUMAW48XtKIGP2xIyY2RdVSKOqKCqWPuAz38s3KyNNgXzM+uK9GUElzSnZihnQlOz1vjUzeK5ZVtVCKRHpXZ0O8YGZXcsMFzLoCZ1xLBa6maVMyVf8TSVQXi+remG2MOtt7xBVIrnUt2IRzLSSXxuplrZLfGmm1qyv6i22bbZQ5q3k2gz2fKImuxUVSyGUxyibYXTuMKAkhtNQUpvLsCoqlhZwsAIa5aRK9XNJfEXF0gADjtahPec5z4ky0H5QVn2zm93sRmdpViz9UPrJRyulXq4on82w/EsyIQFdfvmZr98Wvlu+dstb3jI2cRoEybXlEZbQLFSw+UrtDQYov+2H665btO7d0rvZQmntrW996zlJ2JYlSGjR33rjQRtCWkYB4svZwICPcnKl+Mrw5xOz2yWhoqJiicD6CVvbW7fVD9ZwWvdk3UZFxdIIQWL+VFQsTbAW2CZc9uD4T5/134J2m7jNxRE0FQsLZlElsmeffXbftcUSVHtbSE5nkuh6pnWtklf+X4WAGeRBECdYP27zzoUMM9T2vUA3s4hd/Otf/4p1vPaJmAkMQJnFRTeVb9bA53XiFTfALCvbZe+CfrZLlQKZesyAU1FG4corr4yJGLPHZnWtB7evxXyjzuxWVCyFsNDfZjiOn3K0hc2BOE6jo4yIUTJ/X63YtbyioqKiYv4hcDc7IqhTlWBn2myL/W3VVVeNDbRsxlaxbEFIrTzZue0GmyUFeSmRmSzJsBLQTTs7J48LA93OiZWIrLPOOrGBml3O+4Gs2TQtxwcLGZLZQw89NDa6vNWtbhWb0ma6SbAkqyollDjPZABUhdBTn/rU+PmOd7xjVA0NGyS4qcLmU2yXigG0NiCXy7yVlKtG2WOPPWZsu2zuZfMtYBfN1JPj+UZNdisqllJIbM0OKMexU6FyZkdRvPjFL66lyxUVFRVLEEIrO80KGp0373fBtUFIu6rWioVlG2bvzZDZDdgO2E4ksUbbDrqzSTwlHNaaglM5Rh1js7TB3iNmvs3CGriXbCl1NWgwaE3yODDQ4KgeibP1zXWgaTDYKrue20nc7Ksdp+1grgzeRMpsbJdqBFUGjh2yI/8qq6zS+8v8oia7FRUVFRUVFRUVFRUVFcsclvk1u6bklYuoC1eLXrH0wQymM5xXWmmlGx2eXVFRUVGxeMAW23xHKZpSNyP+N2VY/7fmmmvGUhKzUBUVFRUVCw/LfLJrbaPDkq1zcHB8xdIHJT9vfvObo4Tiy1/+cpRYVFRUVFQsXkh2HQFiXZ2Swn4bydyUcNppp8X6P8e81SPeKioqKhYmlvlk99RTT411E/O9rXXF/MKs7n777Td1zldFRUVFxeKFBNc6K7uZ2iRnjTXW6P3lpgeDrgbTP/7xj8eGOhUVFRUVCxPL/Jpd25jbGKBi2YCNHhxwXWfpKyoqKhY/hAxnnnlm+NUVVlihd/WmB7vH2oBq0FmUFRUVFRULA3Mys8v5SULs1mUNyyhYR2tnNVtOzwYOZX/CE54wdN2QA937nRU1F1DS5bwpbbCD3LhAL22ar3bNFbRvp512ag4++OAFUTqM3nYcXtaDC7R2lt4+++wTu+GNi7mSKaWJzrN73/ve17vSH3PxvvyM7icDz7t/cy3DcQRHHnlkzDZNiu6zJgEeqTDYfvvtY0BtUvi+clDHj5xzzjm9q6OR6bEQ9HFZBPri53Of+9yoIhkHeDEbWZoEc/Uuz3He4bOe9azm29/+du/qePBdie5sjzLRD5/FBTT77ne/Gz5tFPTxuOOOi9nrQXJglnuDDTZYLHwfBW1wbugjHvGI2K13XCxO2Z0N8EB8ecwxx0SbFwoy/RanHFfcGPhg92vn9No9eHGC7uD/QpDLpUWflwRmnew6M4xwORPLFuvj4IorrogkkTOZKTDUYdq29HfsSheYrrxo9dVXb9Zee+3mwgsv7P1lbmB20dbojhKwJngS6PfKK68cZ1dxUAsVV111VQwoOPvs+uuv711dMpBY2CpegGH7+LkE/kmaSpAvcrUkDNiPfvSj5nWve13zxje+MWYPxoFg4BWveEWUFc5U1vX1e9/7XjiMl73sZUODJjMaNmZxjMZM1+2hubX0u+++e/DVR5JBr/Nh/Ppirba/0Zc3vOENzXnnnRdttTX+gQceGEctSRwnAftzi1vconn5y19+I96PAkdy+umnNzvssEPzqU99qnd1fKCXoFui4ay/cWWMTAr2lEwedthhvasVc4Vrr702fNlTnvKUiQYgDHTyA3e7290igZwv4L/zDfmzr3/96zO2TeSXbXv6058ePnISOLfzYQ97WOijY1RmGlQ5/sPxKXTQWeHzDbz92te+1my33XZhP0aBTTAYf8opp/QdwGeX99xzz1he4wxTA/hLCjbGcp7vk5/85IkSXbzjZ/DSILLzWBcqfvnLX0Y1gYHNcX3i4sCnP/3pODpFnCkWrVj8YBfZawPH7373u+P3xQXxiYkB7z3ooIN6V5cM6IWjJ+kzm8RWV9yAWSe7DkffYostIvAbF4ICCYvdHMfFNddc0/tpEZRP7brrrs1b3vKW2AmxC0GHg705c4m4DY442BISBE5wXEi4sqGVVDig2rMngTbYUdhB4Ntss02cwTdpsD0foBhd+jjoOR8ALShZkjCwQMYk3mYirBmbK+ApeRQASqAEQ/r8m9/8ZomchahE27lyAqlxwcA5c4+xI/MzCUL19cEPfnAkl6NwxhlnxL3vfOc7Y+BmJnA4uQDtbW97W2zywpZ4ntnSfIi5WXzr7b3r3HPPjXXbD3rQg6Kt6623XiTHt7zlLePeSSBZZTfs8q0dk8CMlkP8JQszAXrZIf6Zz3xm78p4YPMcqm8gQhC+JAZilmU4m5ovM1s3CWxMdOyxxzZrrbVWBOTzBYmMZNzmUM4onMQ2se15AIn8SljJ0qT2TT/vda97hQ8zMGaDpnHA17KnGauttlr4Z/S26eBMk+Zxgbd8tfNtxwGbYPBQxUi/77BFBoJtTCXROfzwwxdrkC35y+8jf2zJxhtvHL+PC8/QD31Yf/31I2Gebz6MA1WC3XY4S1YyI46b1F6Pg5nspG2ix8SFj0GU+YrlDOQ6I7aiP/jFjTbaaGJ/OhcQo9E//nxJxIolxGTs3Oc+97mQTRMJCwHzOQA8EVLANCf4yEc+IvJqf/KTn/SuzB1SktkeeeSRvd/GQ3LK7RVXXBE/JwPUpkSg/dKXvhS/Z1x44YXtZz/72d5vw5GChTYFB21KCntXFmH33Xdvk6Nok7HsXRmMZMDbgw8+uE0OJn5Pzqo96KCD2hNPPDF+X5LQrssuu6z328LC5Zdf3h5yyCFBLzj//PPblCS1SaHj99kCXz760Y+2q6yySpscaZsMWLvLLru0KUDr3bH4kZL5aM/73ve+3pXx8Pvf/7593OMedyM5HYVzzjmnTQlmfFIgGrqMFne9613bFHz07lqE5Hjbl770pe3vfve73pXZ4ZprrmlTgtHe8573bFNA3Lu6CD/+8Y/bpzzlKQPfde2117Zrr712u/POO/eujAa5efnLX97+6U9/6l2ZGVLA36644ortWWed1bsyGej9LW5xizYlDb0r44FcpqS/TclP70rFXIEt2HXXXUMe//Wvf/Wujoef//zn7Rvf+Mbeb3MPcpIC6ik7OAkOPfTQsJslUlAUOp4S1t6V4eADP/jBD07R5eKLL26f/exnj2WH6ciHP/zh3m83gL168YtfPGe2fBjozfOe97z2/ve/f+/KzJD9NnoAPdxhhx3aiy66KH6fb3jfjjvu2P7lL3/pXVmEpz/96e2GG27YXnfddb0rg4GHr33ta9urrroqfv/HP/7R7rbbbu0Pf/jD+H1JQbve+ta3RnsWF/iB97znPb3fxgM78YEPfKA9++yz43cy8f73v7894YQT4ve5gue+4Q1vaFPC0LtSMQjf+c53Im7pxvnzDXaFL1+S8aJ470UvelF7/fXXx+/+feELXxjx0ZIEfd533317vy1ZzNluzPM1qqEO3wyuf8dFEroYuTZbBEZflOuUI/ZmipUwjvtcI9nKS7uYpN/atdVWWzUPeMAD4ncj7GYUjap2RzIXJ5R0GtVdqEgGP2Yb8xqx5NCb5GjmrJwJD1MQFLMyRmeVI1mnvCQ3X5mpPt3mNrdpPvaxj03cdrOnSpN97GAOSiaNFnaP1CCr/qaMea5R9tvsZQp8Yu3wXL6LPJkdnW21wmxt3ky/n6ta2JOKucdM+XKPe9wj+DJf4M+sN510rSz7/va3v7332w2YtJ+qf8wGqyIBlRV0c5QcmlG2JKOfj2Ov6PikfVqSsEeIWSSVKKCyxPKCxVX9xEf1Wzo1CT/NFIp/lC+D2VJLQsy4Lymwyx/+8Ieb888/v3dl/mFJidn7Cy64oHdlPGirqgQVR0B+6T4/6m9zBcvcann0wga9e9SjHrVE40W29YADDpiqiPPv/vvvf6NqzcUJ8bl9Z+xYvxCwQnI0b+39PBApKY41qhp9ySWXhIFg4EvmKv00fS55E5hedtllcT8mWGNWGmLXTG1znre+9a17V28Ma3ut0bMujmNVLmR63vM9j8HWHtfLkk+Gh9H2N+ttrKnimKx10hflyEqoTzzxxObe9753fLd8bgllKRJBJU3+pqxS6bMEgNNXgmWti/VLyhOV11588cXhPLSrfB566a/3q/VXrgN3v/vdb+TsJeHopzROMKEfaJqf24V2eq/vSOTdp8/d/pTwXCXBAhjrc+9///tH3ygK+qGV8h7tLWmD/5yt/qIdXnJQhFv/hr1TH374wx82l19+eXy0FS3137pgCafr+u+6ZwmIsvyhtXYL/KyVGQeCE0kc3niHoKSUF/30Pu/Qb7KNBjmYyfBd/VbCzqGht+eidTYyw9CVe+/kZMknHSnbpC02p3rc4x4X5Wl+RzffRY9S97RfqROZIvPeo43aNQ7wTUmbvvkuuloTypkriy5l07uUI/qQX3RAr2E8HwW6Zy2Wd9MjPKBXknbBDx0YBN/VVvZBSTQe/fjHPw46o3FJUyC7ZJC857JK8tBtv37SBTR1v+/hUUkLf7Nm6wUveEHYFjQko+jZtXn9QHbYIAMtvq9N7Kjv43H3+3jv+eSYTLsHr8r7JBb6j/+uK8t3v3b36yf+0Sl9QQ9y1bVbg8Dm+C49QWffZwe0Qdu80/PZD3KOhrlfZEcJZdb1HHSTX/e67rv6kUE+yKi2ojX73+XJIGiTZ5MJvEUX9Pfdbhn8F7/4xXj/brvtNqXnaMjedW2vNrkXzf3rHm0aN/DRFnzPffK8fvokaCHT2kIO8H2U/fOss846KwYK9d2mUtaWej6e6dMJJ5zQ7LjjjrEfQvZL+NTPjpMf3+eLfJcdvv3tb38jO1mCfBhYUlLH16IP+VZuB/SV7eJfSj7SPd91nZx5pz6UtpYOaC+6o8WoRA2tleySU+v8wfvRiFx5TumPPF8b0KJsmz6gDfnxQRP3lLLqXXwn207m2Sky4j3omHmnNN0gOt7iyzCbrT2OUbR0S1+Vk5MFtkN72CLv23nnneP3HDPgT5c23qMNWffxQL/udKc73YjvJS/IRqa55/bjvb5m2vBb7hklq/TzqKOOCp1Dh3ve854hj+yCOCvrCZqWtpFs0GVt92FXsq3p8q0LvDZYY62lvtEB9Mz8x1f88jc0wD/6ry/+rp3oW9Lvrne969Q7tZmsZRnwPLx2jQwM4zUdYYf4BrpvgD8/x3v0G33x1Xtyn7PfyXrqHv1kn7u2y3PZE/3Q5iwLvu9aVw7YQvRAB7zw934+pQQbbcM/zyYz5IE/xzO0cM2HHuR4T1+03XX9zbKjf77nb/ih76VckZePfOQjzbOf/ewYeGRPPQutxvUTwG7KPdDCv9rE5vhXvw0e5r5oM1vveo5rS/sG6JZjA/RDd3TLg4ajoD3kGt396/cu3emY97DL2k2OyT/7XCL3Db3RxH1oREb83o2XQD+1He21nWyMajufzlYZSEILeoE2aCXG8bMPXaDjeKP9lsaw8znnGDeGHQdjcd96SWs3OTcKZ+2LjWk0rgvX3vOe90TiZF0bJf3Wt77V+2sTwZDZTSNgAtlhQNAnPvGJwQDChmiYSnht7OIZkgGOogRGai9DRCD23nvvcAzW2IDn2lAECI3nDnKUhMOOztZRageH1s+IMvAcqHvNKpu99f4SnJV7jMAwWII9NGLgGQXQdhsEMfbojN677LJLrEnYbLPNor8EqQTFz7tqWtviuRao3/nOdw7nZTaAAnbBSHKUj370o0MI9Q0t0IdyGr02G26dDN57hs2DrJnUbkKZ+WD9oz6TFc8dBPyz7stImDU43p9piSb6IjjzM96hv0TIJgB4ZGOfhz70oUEzNB8FybPdsj2X3KCF3xmNDBuX6BNFlkRzgEZs80w+npAhtDAwIECyuYrv2P0SLTiNYaDgW265ZdCKQUY7/bDWQzKL5/raD76LtvgvYDVLU97redZ/M/x4aCDHbuddvegHMmndq2CUg+CUBs1OoTee7bvvvvEuxh0fJXtoNxcgO4I2A0zWZ9PPccHhoOcmm2wStGWj8DyDTNMjs9X2DcBf93pPV2bJHBsCaILHZkIG6dERRxwROuc+/Cxt3jigE6UeWXddtslsO/lhXwVl6KMiJO8EzX7gCx7qE/l+7WtfO6Wr5EbgU0KAifcnpISH3eAEyVi2G3Y/LemXwRYYgGTr8J9jkrRb20gf0NjaazJqtogP0C9t0W794ljBWjfJUAb55QT5CDqf5Vz/8NNotf6jgzX87N4w2SPf6KJt6Md2GkDNdGH78LcftNPgrX66l8/Q1wy00XZraLUJ2Ex9QttRQEf9EWyzd4IO8ut5JdgKm2bRNzZQf8jIODImGMMT4Leyfe9ColHKSnc2CS0E3/Yy4AcFnOghGB9mh9mJZzzjGeG/sw/XBzZUP/HFIBU+gWSGjSHbBpjZXjabPdY2do1PxAeDcXQt+0X3TgrBlL7aJ0Awxx/pDx/N3tuXQ1tLCCjxXfDtnZJL/PB94Pfple/zJexSHrQUG2ivfoqFfA/PfbxLkjIIeIAGdFy70TLrUYms12jmXXRUwFpCkEm/P/vZzwY/6C89pa/Z7riHzuGFBILuoBP58Fwy2eW9vtIBtoZN4VsNcrAnPnjbL270TvZTnEYXciwiNhC855gRPd1Ld8QiJh/IrWDc4Kh7yLtn2RdlGDwbbfgY7/Q+MioBYCOyv2dfxAx4JDah92TCIJHEBy/oMV7SEe3THnJNvum3ZNi7+CUfdqUfHTI8QwzonTk282EP9dMECTuLNnSQzbeOH4/sPYI/Ehg84E/RxaZ2wJZaL0+OyABfofJC+9EOTQ0AldBnMY+YXeLiO+7NvoJc97MDbA1dRQs85D/RHa3FimgiviyTN3bKjKD9AHLyhSf8sfeiDd+GP4M2t+M7st8hC2KaHGMPg/bttdde4f/FqmJq38+nYkj03MOXlHE73vCf+oPfGe4lS+YU2WKyQs/p0zD+Z+ir76tkJJviAHzSnjIGFMvQdxt1sbk2zNJ/E5DgOfIC9lMuw97zJ+TEh20iA12orsM7MmiQQj/wH8/5PPLeD97nmaA9+O2DpgYctYMusT05/vevwQ1xFrnul3jPCqlRQ5EUq02B9NT6tmRk2uSE2tT5WBebYU2txyVj1CbCx1oD/6YOxrqejGQkYv1OMtKxFmEUrG9NxGqTEe5dWbQGNyUvbVK+NjEg1kplJAcUa65SgtC70sZ62mR02vXWW29q/WFKfKO92j0KnpmS7jYZgRuthbR28fa3v308JwXTsZbDmoGkuNNq1bXZOsHu+iT3JgVqk/OMtZA+yUi1yXi0yQBPrfFNBjfWlSaBaFPAEe8B/6JvEp6pNUTelZxdu84667Rf+cpXgg/5/i7wKSVHcW9y0r2ri9axJIPdJqFuU/AWz8T7ZEzbZJzaJLTx75e//OVYQ4QHSYliPRQeD4N2ujc5qXhuiWSYQ65ye60rw3vvzkAT9LWOdxjIwOabbx5rvjO0NxmckBHQ9mQkYo1uMkxxLSWJbVLkNjnmeK/2kqHkUNqUDMe6tWRk2xRUBP+SgravfOUr47uDgCYpUQ9eJ6PfJmMT7/Fc66+S0sczM1LyHHKfAqk2BWMhg9qaHFvoTgq44j59Sw5tmqwlIxbvoYuD+A7alJKFNjnqafQ9+uijQzfe9ra39a4skqmUkAedspxBCmbiXbNZd0fek+NqUwLaJocWtChtyzCwAylAbVPS0qaEPeRWO7Qdn8v1iNqvXymIi9/RJgUIbQqwpuwbfbAuEp2zbKKNtfm+m5LQuAYpSYw1u2iPd76bgrzoB5uJZ8NgvwA8Rn9rv3w/BUVtchKx9i63Cb1TwtWmwCR+h5QAhS1gA8G70GLbbbeNdiZn16akPmT0pJNOCn1ht7M8+Bc9UsAzbV0Pm4yfKVCMNZ795CfbgeT4Yo334YcfHmu+6Q/7mAKBsMvoeOaZZ8Z1/UrBUchqSlbiOeibArawdSX0lzzsueeeQRNIgVrYHHY7A93QLwWcvSs3BrqgI/utX2yHtV3oQq/4JzKdea2/1j6xhymhD5uoDSnICD1n83KbUiDUrr766mFjM+gc30jXR+Etb3lLvJvNB20gj2j64x//OK5lG6z/GSkxDHnUHvo3CnvvvXfIBH6WSEFH6Mjb3/728Mn4yo6TiRTcT7UL9JGPKnXcPh36mpLWKZr0A/+F9uxmBr6wP+wzW0uewPNTwhTyzz9oIzuJL/TFc1LyHOvl6bH3HnPMMdEOayiHQf/odblml29EyxRc9a4s2pOATdp6663blFTEuuIM72ST2e0MdE2BWdh132Wn2QOywQ6QWf3z/sMOOyz0Fi31jWyiBZ/u+qg9RDw/JUChS+SgBLqQFfYbDdEMbdgo/iYD3bWLLmgTuJfs0jFrT9GVHqKDuIeNxT9y6ftZzsv4ifympD72Nsl2g5499rGPjdjr5JNPDnnOf+uC7RAXkL3SdqIRn8amoJu2aTe+0CGyzW7x7ejMd9r/gb8eJpeAnykJiXgpA421hZyQTbxhS/fYY49Y+67/bGkZY6KVvmsjH+AetPJsvomuiA/Z2pQkBZ1PP/303rf7g90kr2SQDuRr+iju1O83velNYf9SchjP9V42xCfrqvs9Y/vtt4/f0Zb8pqSrTUla7P+gLb77zW9+M+KLnXbaKe4FtGZDUtI3be+MAw44IPwKeaHjWZb6gV9n19AmI8flfFZpV9CeXdQe0H4x7kXFmvjLL788eJOS+PAtkNfs0k96xj7zY3wMHUCjYfJALtHVWvbcF7LHFqUEPOQK0E+bH/KQh4R8Z+iP92efDHwMO5B57R3iVvznG4eBHJI5sUxuN51nM9mbHC/+4he/iJiBj8q6pf1iMu3+1re+FdfQFX/xgf7LJ9gJPBXj83lkNENsyZ64L+PSSy+NfUbYRu0v5aELfEEPdqkEHaCbeFfGHkAfyfEwWZophs7sJmLHSJqR6jzDkgxcjEoYnTBC0IXRXqNIsnSzJ2Z4jXQmAYm/G50wemokbaaQ8RsBMKrUhZmORLAYNTGS4WOmwCiWkVflkXON5IBj1Ep7jE4Zacwj9RlmGJMTillaIx0ZRuPMUFgjqu15hNFIkX6auTCSk5QjRpOUaypn0D8wym0ELI/2gu+ZETezZ8QcP7RrEuC3WU6jbBl4byTZLs3e8bSnPS1GPPXf+41Yak/m9SDoi3JV/DC6lJHkMUZ0jCRpbzJyMUJlFMl9mZ9kyL1GpQe9y3UjhkYpfT/DaJOzE83ogJEltCLPecaDbOkT+iXjEe3Vb3KLN0bNzfYoCyLv6GH2VZsGQZuVa6CbkULP8DyjZWZGk3KHnHZBf8gI3moTeicnMDXDpD3643qG9mibUfZhcFRYStZD/vA2wyhxF0YM7ThqFBk9MtDR6LeRRzOmswH6oxMYicXfcWEEmw6SW/ql/Nq/5Yy70Wez3lmmyZif6UgKIuJacggxc+5ZeAVooz1kxGhyF0aPyQObZ8TdaLyZDfI7Ct6BhkZlfd/orxFZvNOufA/+lrs/kwUwYwDkg83wfcBT+kgOzAaxIfSNnIG2mc3Py0MytCU5+NBj7ehnN7IdMOOjbejK5uEfetIJ70EX+ua6dqlUMROW++XZWedGgX0h596ZQa/ZwWF0RhcyQU/0Ew3xx8/6yj6YpUyBeu8bi4C+Zj1yWSJakjE2PdPQ37SJfc3QJnaAHA2DKgO7uJrhyb4QLRzDxc6zFZ6jFExbyFcGm/XKV74yfjYDyUbNBmZozNbhqz75nd5kuuqv6hEzAGassh1GQ/Q3SzCqv13gC11n/0rQWX1XfscOkyV2kqyQH/KqXXyEe/DGbAqbh4/DbHAX7BW7ZVau1Gv8IMf8XwnPNuOj3WZxMh20Rz/MYtJ7/BIL+L4YiJzRF/TVH/xCuxRwhmyiBRuvL+RiNtBuz0VDNKOb3msGEvRB1Qg5pgv+Bu4Vm7BDZIt/YefpjTbihZlMM5X6LybUP/46y59ZN/Sgq9lu6CcdYXtcM8ub/zYuvB89PStDu7Up84iuspHozAajs5nNUbFIP+C/d5IJOoku9N+MndlNcZrZKfFxlgGyRwa90+xb9veehWYpAYs+sNGehw8qNiaF9ugjewvsq3jCnjSW83gvWcIfcgV0is3o+gq0c13lBd32XbPFbEAZi5Bvcu/+7HeAXyGz4m3+JctSP/BHbGwZf9MZFQ/8PPnIUL2nHZnf1i37Lr+R6e2d5Ews3N0RXsWBWVeyT8bZJ7JM1zMN+kGFD5+IV7kv2qDqjnxlW6XPpSwOA3slTlaxAGQffVNyPzI+o1tmcL3bOwG/9I1OsYvsrxgZ2O2sW9pPJvTbjDifzjaQQc9AXzEoGVUu7Hni3bJNZm3ZOTYswzvpAtmlH747KcieGWI8V3WQbbZ/yQKZHiZLM8XQZJfh5tzKAAMomtK3fsluZgoIhBjLLhB73CBnEDC137OVahAACs7Q+Hif0i+KgalzjbLP4J2EvMRXvvKVaHMORjMwlZFGq1JpCSaUjoHgMkgl/N2HMchCA5k2OSmeCRhFhrULTqZsV0Y3cBkGxk+wopSN0wAOwzOyIaFonDL+ZV76CMzw0kYd6NYPgi/BjFKgEtpuszEGHsiho28kvMBZOd6mG3TgE5pmemf4mayNgyz3XdpxIIOe0b23u46BTHDCkmLgpCT54wSfDItnlQ4M+hmafK5ndw2IeyWG+MLJzxZKW2z2Qqc4Hc6nlOtB6NIJn7uyIQgU2GqrIIgcfL9TBqVEUclfOUACEj+GOdO5RKn/+NvPLk2C7rs9k54Y+AK8VU7Wjy7ZvpRt6sfjDHajTJayvs/Gbgzqv3Z47l9nUPIuQJAcCii119oeSyjGBScPpZyQj0FBi/vKe8kM/S2BT2Q1J7gGhJSzjwPlYQZYBA8Z3iewIZcCAnJI7wSZ9LwEPrNtBgHZydmg7Ge2cyV++9vfhm1Gq2yDfQwUsMNK5fr5iXGQ+TIOyE/2iyXoh/aw3ePILfnBN0e1Gdjq8hXQpGvr2Ax8w4uSDmyyRDcnesMwSN6yXxgVAI9CNxbRVuWGGfRd7MYeSOhKoINAln6Wg9DdmAP0oyuTWY68o0S2SbOxKfxjP9plHpU+SztmKo8ZnuGdaNS1nfiMX2WM6SMpUk5qUBTy3zNdMjxzkByMi0x7A3BdGKzgR8mCRFWS17UR6IUv2la2z/XSJmW4p+sr9MH1PFA8DHIFSTjZM1gP1157bfgy7czltmBgRoKY2yXZ1a6S3mRSqTL7YxCsBN6UkL8orRcbDUt2tQFdyzhW20zuKR2fiUwZePFdz+QjLF3IJdGjIH5F225CiTboyBfSVbmFtnV1n98QK/OV1gqD+/TRvSXf+yWt+e/lgBE+sMHkYJy4bBAMRplUMZma5UFf2FHLU+YD06nTgdETIxB5Fmmhwwg0pcYcTseIWvcz20B0pjBwQEC6jgAESxx5aTS6gjsIhNSIjkQ5r8shhJJENDC6NdcYt23DQFEZIAaGY9V3sxiUIIMxxFOBXz9eGnEa1BajgL5rtHkUvFtSZb2S9kiyygAho3SoMwHjURqYuQIjIUBmOBjIcvZyEMjhJHotCSRX/eSXUeWAxnF6o8BRmbVR6YC31ogx7LMxrBmeYbTU4ICZKsF6HiHPMKOpj/5dSBAoSnysmbS+zuxfP1kaV0bJh+SfvGRHCEZb2chuALEQIJkxwGUGw0h1HrAaB7PV3UFgoww8WPfN/uYBiWEgh5IagV622f3gbwK0bpAJ/AX7Ry5mk0SMA7Px9EZw288Om63rBpgLGfwCWbKHh4R3XPrl2Ri86EcHn9kmMXNh54aBLJnBQoN+/SZT7Iq/Z4zrs/h09hRdc4CMVgYUDRJ2be1cYL70ehjExfhksKmfDORkab78/Sjgq/X84hkDtAaj+eguJvEVYiLVa+xAhgkBem92dhQkqma0DQiKVdHPml2zlGymPSDYO8mowYWcfIkpzDiaEDGB1I/eBraHQRwh6YRB+kVO5Q78fq5omSuw8xJz8Zl41B4E4yDLGfs7CH/+85+nVaaVwJvM96zraDGuTJIbg5GS6Uw3saYBnbzWfaYge3gv3vB88Fz5SneQca4wNGshcBplNLM0fhkIPUh4lgS0laExkiE474JA5xK6xQ0JrRGM7qZVYIaBAPYbXRkF31PGIDnLI4uMiVkPAVi/UbqFAsmuoM1GEoyA0TozOBmMHn5Rhm6wBxRvkPwZpSYPNlroJ7vZGTMSZkJtEGQzDiXF3dn3hQz0UWJrwECJFZoyQuMaNMEPPR4FgYx39dvMZzby2w8MsnJpZdN+5hzwZza2xneV5RhMUeLM0OblFiXyjLBlB/0g4F3cIL/KfiR5e+65ZywB6Be8TAL8slMierAbAhkzFt7BKZeluQsB7KayObqp9FcyLoBakjBYlEtUtUnQ153t6ge0N6AgiJEYdOXa73wFe6i/Asw8+p3hGeTUPbMJOsaBBE4AQgf7BVXs8Hwn3HMJPsfRaWZsBKGC7n7+pQsDemycmaZ+lTNoU86CLERkmTFI029AD21g1GBpP3i2gR+0ZFNUBRpENlhpILucMVuaYfBdtUM/X0h3l4SPyEB7Sa4du8UyPhKWceOBfhBH4SdfYdZYjGkAw3v4C8tVxgFbKU5VVYFG4gkzj56pLJZ/ZmPKZVQSNrZSTNtvmZf+jkNv9ols410/iAPYWoNg/Xy/98wkdzAgYKafv+a7DVKP4yMgJ/HlcsgSBgDEufpFn3OFZAk6iX8zGYTTZvxVAYgvElN6LJexYWs3dpoUaGHZhM3I6BM7MWgQfy4wtLVGUswOmknori8w6qCOfzYB6FwDkSgU4Ven3nXMEh/rAZYEGAqJBYZ2ky+jWZR6XKPRhUBIIKhGn0JSEsZhvsoB5gpG25RkSHY5SaOHFDODkbbWgVFV3lCC8VLWOEj+JMpGXu1MWK4LAPS3kyOYLVNWYufPfuVsCxn6xHEoH5boMmzjgoE0IyPRNZjVD2UAaPc8+oRuXb0ivwzfXM8GKunkAAVndj81gDNTe8MZSO7MBuZR3n5g7yQP1rV1Z771kywtbkh2BOUGMkr9mC3YSYNLlniwTYC/koD5cjj90G8wCp+N9JNBum53Zw6bfV8I0CazgvihPG9SWDcsobDmlqMvoWSY3ZJgWksnKXGtBB00QKjsdL6rlbSDrWBrrPMvIblTbdAv0FrIIN9OjWCzzDgNsoElBKn4ocyyu2M2mJ0SFy1kSNjpN5nrt0SEzVMaO9PBLjpriZLBH3EJe6p00zq8ZQWWtJj9k0h2y2JVyZhsWVIwyUM2yXS3/Ho2YG/IhAkUfoPdsxZWzDaur+DHxXticAOq4l1xgxJn9kWCTrdUXGV4ttk+lTx2Se4OqtFbg7TDoO0Gc80gG7QfBDG6NmpbN4GW3Od17xn8VtmerEvlQBi/Rac8e1JYVysvQHP9L2HAQVWWmBV95Gf6WILvZI8kkP0qFceB5F/8rTKDbuMfHzAXE0LiLDsvGxSzdBCdZtrOcTA02TVibREzhUYwzkGZp+TAFvIWgufsPk/9d5nvdw6xvC6wytdHgfB5B0IQWluB5xk9iR2BK4NvJb2Yf/LJJ0cQouxNsi6gkxwJMiDX35sx0B6CM8hhSyIkkBhPkJUyCTTyaI82lE7Dz67pX04YOFUb+dik6vTTT49rQKmMLBvdUpKR0R3JB8/1KWfUPd/W5Awb4WGIJYiUoGzTIKAtwfVMNNafPJKkD9qHPrkfoG39nu2a+0p+DIOESwLiHQxWV9CNotsO3fvN9DGGgnFGlsPmSLP8dSEwftOb3hR0MBPmPb4rYGP0cmKrrWZY8IBckWMzyXgnyMRnDky/3KeP3b77Ha1GgXyR+360g1If/Oy+Um8g/57v9S+5ZIDQiXFzlIb7tN9GM91gOsO6HnKNNvqvD9pooAQ4TvRwnV5xbAYmyrW57ndNcEP2MgyEcWKC9lHwfDKlH6UOcqjKZTgf7cBHNgifMvQTb0r5hEzn7LT8HX0MbihX8rMZGu8lA95t/Q9d8B66kN9tZFOyaeZfsJtBZzy35FGWBX8bJRPZjpXfB99zPeuRf72HY8dvbVamxoaRSSPe2gscEvh+iUyLTCf/sonsK9uBVzacYEO63x0E7cSvTOMMtO3Xry7oLidqxNgMJ5oJFOm3n+me/nmHj6UgAg5t5yA5fO8h33g3DP1mscD3BRKZLsDGu15ey7+Xtk+b6JcNa1zTPoG9n73PIEW+twuBoxJ9QYpy8jyCbk05vuRAkF5JipXee3eG75FjfnhUsCnAcw+/ha5mLrTLz1l/Mlx3jWxm+ZMg2TjL3wTRZnkM+uQNtozOD5s5YGPYejLqGXicdSPHDSWdchsMUJVt87M2+Vv3/vL3Ych66UN/6LcZDP3DuwzPQ2/vzG1FQxUhSn0FoPw5f4IWjkLRv+zDfN/3vK/sQ9aJ/MyMcduPjnSUzHu2+IXt8lx66Lnls7w7/83P+iBJk3yqCCsrzTxHbCK4LWdhu/oN3uEjXsjvY5vMmKMru8Km8NHkZ5z+5Zlz8SYdVL6a15riO7vi3/JZ2d6VNAb3oEWm9yCgp/hO3z1fHELufB//PaPLK35B7EuO/WtNrLjYoI+ELA8UoEfWoRKe7VP6un7g//gjNhBNtCdvuIj3UPpC0Fb9MEjMrrlPPIOH7tU3PEcvtCtpmeFa1jPwrwRaG/gKyShf4ed+3x8E9ozO6Af/leNd/bSRFPsk3+jOfJq04SdMFCmtFVuI6a23t+FVtzzebGopD/wm3RQ/DpsQ8Bw5A3tuHx0TMN4jYbXsiZ0D7SXX/I8NPtGVX9I+YPvRFh/QHc09Ex3Z7VwKTr7JUJeHGTYeUy1EJ+Vf2qA9BllVemmv/pjkonMm+LI+gPfgNX+Sq6DIA7nMMpiRf6bPGego1zPYyUaK7/w7yt9k0C08JjdkUTzp5xIGr+Urlq2RgXmt1kqdHIrEsDiaJjmz2GY8ETe2o85HKyShimMwbEvucUkpYuv9RNDYLv4Od7hDbFVtm/2k3LF1diJgHHmQmBVbiCchiGf1QyJSbFOdFCW2RE8BQbwzCW/70Ic+NN6ZDExsT56RlKZNwUK8w9+12bsS83p3LNrOPAWu0SfPTcah95f+SAoWRwGtuOKK7ZOf/OToRxLg6J93OJLEtSS4re3GXXPMhnuSAYpneGdS1tgy3ZFOKTiKbba1H53BvY4ySA412u9ZnumDhkkYYjt724671/f0w/u6H/1KyUHQfRiS0sYz0dgxLHjiO/qkz3jvfd6VnEJsYe/5KeiJrcOTYYwjnZIDjS3VU7AatBgXybDEsQT9oI9JWaMN2uezxhprxLEv5GAU8C053vheMlLxXdvRZ+AJWfF3vN10002jj5tvvnn8rq/kGY3WXnvtkOWUWEb/kiEL/iZjEDy94IILpvjYhfuT8Qx6klv0Qjf0o1/o6cgGv3uf40C06bGPfWybHH7QIRnRODLJvY5gSAFB8Co51yndJJvJmcQRDuTnla98ZbxnEBxdQobRxoccHHHEEfGsZNjiqIX8fbr41Kc+NfTfUQoXXXRRbI1PDuh7Cce3aL8+DwL+6a93ZJl1tIt+Zp3xb0rEp/7us/7664de4NPRRx8dOpEMceiTtuKp4xT0xxb5ycCGjXFMA5pol745msBxBH7Xp+Qcpt7pOBKynOl617veddrRLfiXnPBUm5OTiXd7Bn64Tg/ISBf6re1o6T681GffTw5w6tgxfEjOKWTnEY94xBSPktONYy2yjNIf78GPFIjEM9kXcuD6aaedFvpD9h1P4D0+KVCLe7sf9HSUh3f3g/anYDuOrXK/I9X0B43Retttt412OpoIf9GTvdYH7WWT8rPZFTKHzt7ruAR/w8+UpMURJ2xfCljiqB336Qub4EgXz1tttdXalHjF87rQJjqSgqW4jyyhC/tGd+985zsHnx3P4D1oiNcpwQw91xY0dKwFPfdJgU3oOflJwXm0yTMcz+GICW3yOx4MAznFA7z2DLKJtylA6d2xCGjEH6RALI54SsFr8J69GQcpgA+a4UkKUkPWyBndwL8ULE3Zcf1He9fJH5oAnrOlZMhzMh9SEj7UfwNaO/6DnuGBI2LIhGMs7n3ve4d9dpQQOUdX8ko/UzAddPd9PPA9Po0NPuOMM+I6/jgaQ3vJy3nnnde3PZ5LZzJv0TC/j430fXZQXOM6Otz97neP6ymZmaYLZ555ZvhJdiHLLV3I92jrscceG991BI42oa2/o6HrjhLzDnQgB/noIbpPV4b5thTshox5PzvrGY4Uue1tbxvPRid80w90ze0gL5k2YjYxEVvlfn8jD+xpBtrkGCclv20KzKdorn/k1nN/8pOfRBtcT8FtvK/78X2+AB2GgTzplw+aoqV++G62w9nOszXZhvJDbJA2ox89whf9KXnXhft33nnnkGn3O86ML2PH6Rw6p+Q/fHKJHCP4jvdrG57SK0B/tKcjfDEf7l18NrvoO0960pPiqJVhvKYLZF772DB2VxybfY/4pHwGPogBtDt/h57la2IPz0hJ8xSvDjvssPDteMu20XE2ma9ACx/vIevu737oD5s6DrTzhS984Y2Oi2PzxGHZ3nSBp476yTG9f+mKvmRov1iE3SAPYjb8JyP4NQ7YQXbW8/WXjD/84Q+f4muG9pJFOuteMoTHaM5H0FHt+frXvx42T5vJilhPXoTG7NgxxxzTe2J/kH/H5mmHZ/gXD7v9YSfZTDLJNvrdz/nII8Ajx0V5jmc4sohMlnHlC17wgvgd+B1tdL37ke+xDcNkl615/etfH3KHRuKEfvrPT/IPg3g/V1jO/1LjhyI1OkYIZPpG7JQcGNWBpFxRHpwMSvwOyqrUdZcjpWB0JnVo2nEgiRAx25qCg96VG8Mon9nGZHSjtNo7E6GnjUIYcSjLH5KgxUi7EVDtMcKQhK3310VIgh1T/0loY6RmGJJQxLrIxNyp9+i36xlGfJPRm7Ze2O9GUZPRi9/RUv/NWiQBiJJKbc/QJ89NQtG7sqicHMyAlDDLhB/KkYzWJwWKPuVSKqNISWCjJl4Z6DBos5E1o7Ge4xld/jn+wn1JaXpXFq1fMTJjhErfMnIJ/DgwM4W3SZF7V24MI7z6A55LvsYB8TaChuZkTWlzMuT/v737gLatqO8HfvijsQQRRcAGGsQCSJEq7SGgdBWpUgOKoBEWLBAQCVKCFBWpIgpYKAYRDFJUiqBBIiUiIhiQABJICMKKFTHJMvs/nx9nnvM25567zy2P9y7zXeu+d+8+++w985tfnfnNb+aYnUrORoyt8TArmwQ8+B3vKKlvjK38lzBu2muFqYQ9KFYy2tD2cvySUox7k8MzR9qLd5Mt/JHhPe41HmbIMvC12b+k+GJlywpQ5nOzetptPL1rLKCP2bYskyoXagN5Q4vMtxnGWF+S8QnexvODKqpqk2dod/sZGXjcym8ypv0rT0F76QSr7/QKWS/lISM5ATHrneF7Zl/R2fszkkGK2Xh91Sb8i2eteGXdoq9lOigdY08WnYeuZrLLfkjFKseCHHoG2S1BV7YrZno2eSm/j2e8Q199noHXyZJ78Si+NaZ4xBjgbX8bi3Z2ChlxH14oQR/pkzaYjXYfGfA8NPK/fljFs1rRxlg6X/+NZ6kHsu6ln8oxxDfGALyPXlFfwDXjpc3ohheB3s18Z9zIsXZYiSHPnlfKdEZyFoIuJU3pWytIbf2Gzm0dO5ac4zNjpk14JLdd383ye76xG9SmEmii7/QtWpG/QbYQn5JR42TVTVszbcYD2uFl+t3z0cv4eVaGd5q5b/OvPqFthmegkXZrQ9e0M7qUrsNr7C0+xSvaluFd+NWYljyEv93XXr3XXvLPfmQYK/zdpiG7yBaW0H7jRObKduCt0kcB95b2jDzqj//xI7pmPas9PithHyJZxSsZ2TfA6+WKDL1H/42lt9EO77JnZC7LY8nj2kOvlsXn2rTxHLxH/+Ml/S51oDYpKFTSxvvIfUlzsI1Ku88999x4p3fQwVkPowc9a1VOKuRYyDJNbviLaOR5fLkS6OmZJQ+zB/ptPEu0x64NPhc/EA3oKjzV5hV8Tj+XyLLLVmcbkWWyzQP6Iy2VX1HaJnaDjdTPQUB7/KFNmR7Gml7LaD+DfUNrulx/6CltxHv8Gfq1/Qw8bOx9L8N9/AsyQn/YRuR3468f2sYv8ywr3GpsDPM1MvAbHeb5GZ6FZnTDWDpT7IAP0M/39Y3PViL7M9rrfrre2LfvG4YcO3gPXYmnBr2HPNOFeewB35ARvAju0y/6hO7zLNfIL3nJ9m4YspyyEdnOkOU2jLt2sxXGkjyXNkIb0KUEO4a/ylgKbfEJyBplh4052+s+Msp3wJNsa9u/KcEHZQ+1l74exB9W5/k2smOmE52C3Yp5F5SNzeMq8A4SGkpOOoa0h4qKigoQfEhRknY3yAAxZCbJpEBVVFRUjAeOv+00UpkH+SICSmmfHOiK+QePPfZYpPKyFYLdNkwkCVSk9g8KwirmP5h8sO3PRIqU7jaEjY5UEnibmJsoTMjlbYblYuV0YPiUQsU8DTM+9hCZCRtrdgjTmlGsqKioADpBNUUz4GPNxLuHIauoqKgYD1aV1NVor9iVsFovw6Zi/oJ6FVYx82plG8ZVdtdYq9MV8x9kMinmOSxzh+8ga2JUCJT5FyBDwARKO2tiOrDgkXXJb76FYFdxBGkAVmKkOEhhlToglUEBEemDqiPWGbeKigpgaBTWUexCwCtVywwuvSEtU7EVBU4UCxkrBb2ioqIiQ7Cr2JfCoPwSabGCHzrFyp8UV1lmirFJv66Yf8BOKEIpjdZkhq0GxtWYK3512WWXxWkQXbdVVMz7EITKCLWlQOxAnk1qGHfp0CZABLpS68fbqlNC6r8sAFkC4pavfe1rUWgMX003ahrzfA77ClQsVt3O3gCGxkyJvWaqLqq4OwozVlRUzHyYHJOaJq2Q3rAnx94j+zNNjjkSoE6QVVRUdIXVP5W67eG0P5RjbCKNU6xqOL1SfZH5D/ZFOyJNtXj7pwW5Al62whmyzo/1d8XMgQlxp3LYxmQ/rYkOk1dq69h7e9RRRz2tCnYXCHZtczjnnHMic8zpGipgzw29UIPdGQBDiIlsHPe79AKzp3UGtaKiYizQFXSGH8ZN+iGDVvVGRUXFRDDIF6FTxtouUTH/II9rthXsRE1dntkw1iatrOoKSLM8j7VVoQs8y15dz5mb/FP37M4AYELV4lR3k3aoCqC0AKkllFNFxaiQzio7YLPNNouZ3IqZB3qDsVE5ld7wfw10Zz4UNLTdxTmrHI+K8cGOOgtSOq5VyrISecWf0fZF8FkNdOdP4Pm99torVuedVcs2lLaiBrozH4JaMmzMybRsr8kEukAfeNbc5p8a7M4wmE295pprIjXA4dPVea2YCByto6T85z//+boXp6JihsCM+te//vVIJTvwwANrIDIC6MGdd945HP2KipkOEzqOljEpttFGG8VERkXF/IqaxjzDYEXO+ZjKwM+NTd8VMw/SlfbYY48oIuCc2IqKipkBeymPOeaY3sknnxyz6xWjQW0Mk4DOA62omMlwZqzzYPkCk13Nq6h4plGD3RkGVZhVP5xISfCKClDk7M477+ytuuqqdTa3omIGwfnK0tJqQZnRwVW65557orBKdf4rZjqcm/yqV72qZjJUzAhMSGNbPbzuuut673rXu6JE9fwE+xDuuuuu3k9/+tPYeD23IIB46KGHwmBOJ6zKGR8z+FMJRn6ttdaKtJZBQEs09fNM7hN+4oknerfddlvsNXEodhcYGyXW7XWe6B4230Mj756be1y9VzXdL3zhCzEDOx5PKzigCu9WW201Zjs9gzPH2M0Pc2EqCwvOHW0xHe3FUyoS7r333r3Pfe5z/aszF3jE8QJkAm2nEybnyMxkeE210O9973txrIn0+6mGdL7bb7892jg38Yc//CHG4MMf/nBUrxwPxmqLLbbonXDCCTGGg0DX6Yegd34AXUS22RW2bbLIE3mqBp900kn9q93A13nyySdHkglt/vnPf9477rjjeh/5yEf6V+cNsB365OgP+5BL2/fYY49F6uq5557bSS59VzVm+8FVXR6L/6YbfA++j+03O+20U//qaCAb6623XtjUqbQn//Vf/xVbzDbccMPQec8U9MmRc3//93/f22233WJrQxvGEy2dt8qfnA7Q2yr+iiP8Pxa05eGHH+598Ytf7K2++uqd5O8HP/hBb4UVVuj97Gc/618ZG+hhgej6668Pnh/2HfeqTHzxxRf33vGOdwQdu8J3yZux1/dRwV9j3/h52jpRGG86idzbytIV7IaVfv7QfIk0ACMhMVqTFFqTGKlZaKGFmvvvv7//yfyBZHyaY445pnnOc57TJAepf3X6kJR+kwLEZs0112xSsNgk493/ZOqRlELznve8h3Zull9++SYJZf+TySMpxnhuMtjxnhL6mBRR0PQv//IvmySI/U/mLoztrbfe2nzoQx+Ktl544YX9T4bjuuuua1Jw13zyk59skoLvXx0NaPL1r3+9eeELX9icddZZ/avTjxToNpdddln0d7PNNmuSIut/MhjJgW5mzZoV9yel3r86Jw466KD4/KUvfWlz11139a/Om0jOZ7Q3GYFmxx13bJLx6X8ydUiBTpOcwaDJGWec0b86c5EMf/PqV786+IS+n04kpzr04tJLL90kZ7B/tTvIa3Iemk033TRkmK6dajz++OPNuuuu27zlLW9pksPRvzq9oFPJXnJImgUWWKBJznv/k7Fx9913B4+uv/76IedtJCc+7LZ7tt566wnrurmJG2+8MezK3/7t307adqJpCpqDpmhw1FFH9T8ZH//+7//eLLPMMjEWH/jAB55mA8eCMTn11FPjfXvttVf/6lPgO3luGzfccEPYsukG2qKrtu27775z8MPNN98c19/5zneOa1OAjKQAI/TGm9/85jnok4KloHsJY8Fu/fGPf+xfmRo88sgjzdVXX9287GUva9Zee+3+1dHwox/9KPq+1VZbTdk4oO0tt9wy2/Z6xzOFFOg0KZBvFlxwweZtb3vbwDG46aabmuc///nR1o9//OP9q1MH/HHHHXc0O+20U7zj+9//fv+Tp4Pe+ta3vtW88pWvjHFNgWL/k7Fx8sknx3P1czzoP7uRx2aYz4PPtWWJJZYIfTCKj/2rX/2qWXXVVSMWGNU3J4P//M//3Lz3ve9tXvCCFzTXXntt/5PRYfzZE+O7++6796+Oj/PPPz9s7Hnnnde/Mn9h5JVd6U9mzN797nf3r8xfULDJrK5KxQ7LTkLX/2TqkejbSwYlZpKdT2ZWeLrgXVdeeWXvFa94RawGOA/LTNhEcN999/V/+zM233zz3pe//OU4ELqdwpUMTO+iiy6KA8adz2lPmBWbuQ1ju9pqq8Wq5Sgwq+g84hQkj1SwxexYBppss802vUMPPTQOy07Grf/J9GKppZbqbbDBBr2kQPtXhkNKkoITeF86Xht4RwaCVWqrRIqcTaeMTBbGXLr1kksu2UvBeaRoTjUcnI4/XvziF/evzGyYfXaIfArsJ5TuWsrFeHAmuBUUlRknsnJKXlMQGrI3VTBzbWU7Y9FFF+199atfjfG/9dZb+1enF7YPLLfcciGDbX07FlRPt+Lg7MJBqYdWhz3PqoBVuCuuuCLsxryKFBCFLv3rv/7rXnK4J1S90yqGvgKapkAsVpJGAV2OpnSAc6lT0BJ7d7vgjW9845i+0kte8pIoFCZbxEqUirfsqyyCuVE4LAWD4Qc5L7UNOg/P67fqyuOBjLz1rW8duJd5oYUW6n3lK1+JOiIpkI/VTdlF7EyXZ48Cfk8K4Hop6O5fGR3kLjn04cewL1MB42lVkvw903j9618fPrzxGgT2/mtf+1rvrLPOCh/SeMkem0rQaVZe+WrjbZVSe8apEO7vih122CFW9/0/HlQYlrW43Xbb9a+MDXxuRfftb397/0p3WCWXqUIWUrDcv9oN5ISf8573vKd/ZeIw/rKgRi08mgLt0AfOW5YhM79hwhtPKOr5FYymtCKYziMECPG6664bRvJ1r3td/+r0QIqD9OwTTzyxt/LKK4dRZqSlI40CaRkC1zY4vZwOzmkJzpLUZkcySAFx2PTuu+/eu/rqq/t3zH1QSF1h/DlVHHtGuSsEBG06Ge+PfexjkQI1N1M9GORR2r7GGmuEkWk7VPjl2muvDVoIhE1uMIiU9LwKfWfQBErScqZrLyKemo5Ael6Eybnzzz+/t/zyy/evdAdjPkh/DIMAROBlG8FE0dZLkwHdadKnhMkUR89w1ufm5A9HrCvYNUG/Cb82TD6aGDN5JRiwxeOqq66ap1PSOFSCVcW0JnpMhcBUCnSJUZ08KZTrr79+TJJvuummvW9+85tBO3ajC8Zy5hdZZJHZxcJMWHJABYD8hfECgMlAf1ZZZZXYj8mBzimi+OPmm2+Oe/DdjjvuOHBCdFToi3TZz3zmM5HCa7LBhIvK1tPVz8k8l57fZZddJqT/xgOad528mmrwEflo2mBcf/SjH0VarMkOtj4DDwjo0EDK7Kmnnho+Ad0+1XCkTVeYzO4Kkx62so3iD3SNafgcnj8qTGJJ8zcBNlGM4tsOA/keVafyF/fZZ5/gnzyBOD/hmZG6eQAqUZpdnCkVKTHvAQccMNshNxN00EEHjTRzao+Y/WHlqsZ4EOwyYAQAKHJK0tFH8wPQx2r0KAaIE7bvvvsOXL32HHs758fASNvN9Gel7+8PfvCDI89CPhPgtM3PE3DzEmRxTKTAnf2JJnvagWIXeN+8sOphcvDoo4/u/zUnBOWyP0bRFfMKOCpWLnIQIAPILP1Eg8i5Abr58MMPH2kir4QMJQ7vZJ10TvaWW27Z/6sX1ZgPO+ywzsHuMHB8TRYLygUfgs5RJjgmAlkbVqZNYspUIHtstslyenQ6YFXOXsXcT5Nbz5ZMmXkF5MiqnHFXg8Kkl4lvv5vYAP6cQNikTobJs0EZfRWjwcroKKvT8yLYCzUh5gefsI0Fj0zo/z4mCIBI3ox33kguLZfCzMZfKpoZIT8CHzMqZo0pb8rcrIZZnF133TWMxIorrhjPuf/++yP91UyfWU2znV1mXq1CmSXRhvxeRo0hAkr1kksuievuNTOvH9IzpUb5nk3pDsweNLskoDHrddlll8V3OAvSKSY6Y4gOnEGztu0VtfFgJYGhYCCsKHICOGXlaobZJmnSCofpn7QTY9B1Bopj4KgZ6SsYWuDrGRSf9pphV4re9XJ2CT2Mv3Rtq7lWZyhVzpT+WiHCM4wqp8GPccrXjY/0u1Fm+LQFT+EbxQSk7HluHhtp1fhx2223DQdV3yh516VZlfTXdrSUqsPojzc2UjQFx/jCOCiWoGCB1BDP8jfeQ/fSadGG3FdyYWUAzdAq01NhDKno6MwR6Bq84W8pZ9pOofrf+9A4y4a/pWdpo/ZKmSMrpbOLfmir2A9ZN+OPriUPkV2yTFY5TTIBLr/88jCYFGB2TMm1FRATJ74/6qSSWWjtwMsKjqAFvYD/9DXzjmfTGe6XXeAaY77sssvOkYKmL2hOPtACz3hmV3mWASAtioMgHc1KMh7QNilzgyaV8jvRmq5Bn6lyZOkE/fR8ekpf9YmeoH+tZl144YVBD+0w9iBdUgq76/RFmcLomXjX6qX70BR9B/WtDbIlW8bqDR4j+95B/rSNXqBH0cp1vC/bBf95r888o0w/9H7jhafwD7nAD8ZCH70nw/OtKL/vfe8LvsSjZMkz6P7y3kFgG9gE2SuKcHgn/adtVrx8jpfRHM3y87JuJlN0HjuJvlbHtUO7fRfPWU0lF653nQyjm6S5mgjIgQjZ9IOOfrwDb2kLvtRGbS6B7/BqlgFjjy5lO9g8NKCL9R9N2VB98rw8ViYzXFe4xjPG05ltGGvtp8O9Ez3az8A/3sOm+N972eou76Kj8K+JW3pJf9Cd3dEPxWFOOeWUWE21YquwHV2FduxDqRMB//ss+w3Zn+giF4BOimEZP6u3JegF8qadChgZS3a91Eu5kA/ZoJ+NId1IrtCkqw4DNKAv8IB++z6bz/ZZcc06Ux/xMH+ja0owPrdCaEz5hWW79FMf6CV2Dj+22852yixy3Rjqp+9oC9nq2k/fZQuM4/vf//7+1afw+OOPh633I7jHT22/zvvIEHnBm6OAPdRu/izZ1e5S5+s//WASRj/Jr/vJY1ungb4YB/Jy0003xfiT9dK2dYGx0V/0JddsqTbqKxrlNqIDO6Kd+J3O9V06r5Q9uhof8WeMN37yg39HOfKSTmXPZQNm350e186s37J/SOeQY8XUtBvd6BB94aeU4GP5Lh7omsmhz3Q0vaEP2dfIMQa7wM+jM+kleoy9QTu01GaftfmJLuP/klk0I+dj+QIWUDJ/kk/2t9ySQh4VFpOGbkzwKbrQEeg3np3LwG/sChssy49MZj8OH5bvNP78PfzAl/E7n5XfVYKeo8uMBd2Id7TNWA3ibXQx8cVO0/H+RpdR7UlnpI4MRTIyTSJCs9FGGzVJ4TeJiZr9998/Nosngzi7QFXqUJOEJjZ4p4GPa5CI2myyySZNct6j6MEaa6zRpIA3ik2ceeaZTRqwKLKjiEFyNJrEKFEQpguSMonCJN75sY99LIoeZPj9s5/9bBReSAoi/j722GObZHBik7liKNtss02TmKlJTNv/1lOwIV5Bkk9/+tNRrCU5cNHXFOQMLPzRBYolrLzyyhMqsqHg0fHHHx/ftbFdn9G6RGLSZqWVVmqS4WqScxJt1WbfTUzUv2tsGNckOFEAQNEA/bah3rgmJRYFr9A5CX//G09Be1IAH/f84he/aPbcc88ofPCVr3wlaO5HEYyknJukxPrfaprksDa77LJLPDMxev/q+FCAyCZ97fDuI444IoqG5PdBErJ4rgJVeDcJZhRb0i68m+mBBxQNSULYrLjiip0KH2h3MhbBN/vss0/QyffwuWII+BcN0QKSYmj22GOPeEdyWKOAhqIf7kkKpUnOV5OMapMMWrPaaqvF9aQwm6RUO7UHvJt8lgWqyK2+JgUYhdiMIxlTzAkd3vjGN4b8lNBmBQsUz0jOeTwzKZ8oAIS2ritogbaKu+AX8oS+yaiEbJOPK664IgqV5Otbbrll50If3kMe3/72t0cRBmO8ww47BL2TsYl7knGdrWuSExDXAL20WZ9zsSPPo49S0BXtR5cjjzyyWXjhhYcWxWiDTKHF6aefHs9LRqJJwXKMK5pm3gO0Puecc6JQEF2m4MU73vGOJhmHKPxR3jsRGO+PfvSjIXfGSVE240AOtttuu9k6RiEK/EiXZeh/MkghD3/zN3/Tv9pE4SX6cO+99w764lv66q1vfWvwzXgw7mxBcnaCD8mFn+RAhL7SNno/GfHgcWNHr6KN+/1NnkAb0S/fZ5zo4uQcNslxaZKT0Fx88cVxb0ZyIGMsknMcRcTcy+aQJTpxPBgT/IN3vfNLX/pStJ9e1C+F/zzf/1nGbrnlltDr7tc+ekwBqMz366yzTtBS4bpk7OM6PYjOxrAL0Ie8lgWqHn744ZBf9KQ7IDmNTQpWoi30TQn8qKjIYYcdFnycArvQOxtuuGHoeLKZnLywxb7PTmszG5/15gc/+MG4jw3Vj8z79IDx6gK0UBwK3+lDcpziHeS7tKv4DR8ffPDB0V6FUZKzGwXouvCisdQvNiI5XVFc0Vjm7xpP/dR2faVb9NPYsC3amaHP+In9pbu1hUxtv/32nW25MfK+doGqLIf0s/ck5zP4NQWM0Qc04cPoO32j3XQKu4H2ntmlcFkGv0e7FczSdj4DfW4sc4Eq72WL1ltvvXg+PdMVvk/X0LUlT9Dn/Aey5TrZIsO5kKO2fPGLXwyZdZ2eVkCNLsF7ZOm0007rzGeep5gc2SyhHcstt1yTnOvZOga9vRv0HU3oan2n17vCd/k37I/Cj/qADmwiXs/AP8aOHVAQk01hi/S1tGXA10iBV+h5Y8/uLLPMMtGvbN+6AD34SWw7vYOPydeSSy75tAJVeI7c4UV+sDbSufjDd8kRuqCbMWU3yCU+xpee2fanh8FYsA2lLU4BbPA8+STHGd6TfSs6NPtQKRieTY+sy1772tfGM9iDrjA2xp3OzeDX6puCV8Yj48ADD4yxYGPFLdrC3/Z9/lIGeqI7f8X3xTrLLrtsyFe2I4B/FHhjK7P/tfnmm4fPUPrHfCJ9Zke1ly52D5464YQTOsuIcaR7tZ3tIBfZbmkDu5eBr8kmuuiPYp10hnEC/HP22WcHnehG/G/s/I13jG87bsCT7IAfz+Qn0XHoh7e8L/vQU4Vxg90UzYdh5fxkaChlVAa7QDFrbBnswqGHHhqGRNVNhCIMFK/nltV9KYVXvOIVTwtchwFjeSdHqfwOpleVFzOCIImBZ6zzfQjMITrppJPibyDggkaDl+/zP2cKI1D+XdtWYqLBroBEsFBWRSU0p5xySv+vpxwiwRHjmYGmFBXjQSi6gBLErIQzQ1+975JLLgk6l0zLuFHEgp4Myo8TRYkTIiDE7WAXBKgEoWuwqx2MafkcbTYub3jDG2ZXuMvBLqeP4dZOinq33XYLIc28TNkQek5p12AXvJOiOOCAA/pXnqKFdzAEWSGD8aaI8RQDTKkbS3QlJxQCpaaCJGfM9UsvvTSUF3nqAu9tB7sqXaqiWBoLbfE3ZdYOdh944IF4hr5loCfnHU+oGuo9ghd/MzZkzzWyxhnhmFBeggAKEE04t/REaQCGwXhxujkdGVnGyRD+AkbMtdJBQDuV1stgV38ZZQ51hn6RF9e6ymMOdjnDgm59xo8mhhhbn2eYYDHeORAB7dh4442Ddl0n8wYBTXfeeecIXErDRr8xFmWwawy8swx2wXXyUga7V111VcgoPswwGWnsBARdQJY4GCZzMvCjSVIyQcY4Injo8MMPD6PI0BnrrMPBOLpuLF3fb7/9gmZ4zbO0nbOQeQHoZ7qEU8dR8Aw0wTMczlJ/DgOZ9M4yQNYHdoHMlMGuNjL4HFW8hC98ZowER/QSHcF5cR3PmPhjc7ryQDvY9WyOBB3oeRnaQg9rezvYNTFAF5S87hodQ195ju+TYd9Hd3T2LtdNStJTAnr21HXOkGq1nNv2pNkgZNnkXBnHDEE0vuNngPfRh3wG38lAL7KDv8vrwyCoF+zShSVysOs9xkb/jQ+e1BbXMgS6JmX0GbzbWBiT4447rpNzOSjY9Ty8tMoqq8wOwl1bffXVw0/Snmw76HV9F/iw8caATcdHdFKX4MKzBbpHH330HHzDaUajshozvWYCTZsnG+zSNXzFPPEDns9HMJFGLt3rGr5Ff4GBiRDjpJ+ceQ6wa12Abu1g17vxq/aV7dhggw2C3lk/4D/jr+9dg108Qf8YJ8/MMNnepqH+kDu8I/DxXfwh2GCXs2y4Tnews2XgYazpITqNDz0ePOfEE08M/VS2jX8iyC6DXeOgXWyq74H/8Uz239AWjYwdncBP5jt4xo033hgBk0n2zEvjoR3s0umHHHJInK7Qli3BLvvChrCn2ib44+MKRsF3tC9PEk0m2EUjMssnyfTIEOzyJfOkqM+zzGh/hgke7eADg/vQjG0o/XW620QWvZvhc/fpd4b+GguLWXhBf9GMzaUL2LwuyMGuytBoje+MrUkO76QXAJ3JEpnMegPf8TUsbLlmrPGWSRK2UEyHZp7Jb8Sv5D/zhDaLw/iWJQ9/5zvfiUD+U5/6VNC+tFdTgaFr3qlxkZ+dnOBIx8hIxIhKfqMgDXiklkgfkhqbFHXse0wDOXt5W7pBUmq9NBDxdxckxRqpBNIPpIplJAUSaQKW+iEJZrxPqk4SrrimDYlxIq0gQ2qiNI9Zs2bNvs//qq/Zu6CSWlLCcX1uIA14pM6qoJvbiZYKCGSomue+cj8Amkp1SM5qpBYmpu1/Mhr03fvK8c+QViP1Q2qG9CU/X//61+M7SegiLSLx2JgpN5m+XSGNIglVpJ9lJCe6p8qo1BNjXMK+YUUmkmMSfJUMRKQBZTpKtZDqnZRW/D0Z5HckhdO/8hTIiufjtaRcomqyd+o7fpJ64h7pdPjfdelu0j6S4gv6jQL9czaiFEz7yspUE+/xjuQ49a/8GcYqKaFIl8pjKb3E2CVnNsZZ/7QLT6nWqRCaa+4hH1nepPn6HU2Skosxk/rSBeRLSp2fDCnJirgY46QM45rnD0Kbp/TX+ZZ0RAZ+Nh5Sd/R5FCRnKbZg6LPn0BP0ARoBOVM51vUy/c84fPKTn4zxUeho1HHNSI5YpIsp+JL1Jiy++OIDizQZn0Fo04keVRk2by+B5LiEDUiOYP/K6CBj+N94SRGVMuVd9sUaV+NZ8ihom+v643fnduI3fcFfaPuf//mfkWZWwr1kXtqb39EEj0rNTg5B/67RoQ/aaLxLaCOZ9hndgnbuxffqGCRHIHSyYkCu4xlVP5NjGO0fFfg1BfMhUynom0OvaiLE+4YAACscSURBVAs6t2mZ9YE22faTZTs5V73keIW+xrO+j26AhsmZie+4Tje5Vyq1ND7Xk1MTukxfkjMe3xsG+ohsK3BS8qR0TrUmjC/kdD9tKHkUz9hLLn0wOVL9q5ODMTM26Gh8jA2ZymOjb+jj//POOy/opg90Gb3h74nyFRpK3UwB1Wy+ynRNwW/QO+trfEx+UtAU+scY8Jukc7Kz7J/7h8EWKHJAb5R8w9YY6xLaQ/a8e7JAV1u31LHIOts1z2eH8Sea53f6HY+QH7KuiJUiXmRJSuRE4Z14rd0OOi63A7IcjQL2TeE3clLqCD6arWHlfu8Mn0mpx+N0iIryUlQ9C8gnntN/PJHBd06BR8iJVNfx4Dlq09ChZdv4KW0fPgUYwUtSi/F55nc8xg5I9cej6MeHkWJr2we97hq7z5/J8jEq+N18FjyqMGZp3zKMD96g59COfkVH29m803fcQ2YmCrZZyvKZZ54Z48eHLHVRBn9zs802i/99Tn/6vYxDjCu59QxwH7rh5xToxTW+O/5JQeEcsqhv6MGPL0Ev0MV4QX+zP0ZvjKqP3vSmNwWt6WTPZVvwm/gJ6ADyyH/KegMf+RGn0TtZb+m7/8mY/nqmuEE/2Jjs87AXX/3qV+PZ2p7BfuKrO+6442lb7KYCQ4NdQdbtt98e+1PajDdo8EcBwnFeGRsEI+icLXnqowBBGMsnn3wy9qhlMJiC2zxA/uf0GgTvI1g23bcdOftA9a1UMGBwMfYjjzwSeelzCwSDEqHwCQMFRPFwFIGg2J+EDm3mIPCCkNtuuy2U3mSACdu4/vrrQ2nuscceYbj9+N3eBYxtb+tk+SRDnwVf3lcaYeNqHzjD3+5/+92D+uD7pRGYLARRXaG9pbBnUB7a9etf/3oko4GvjzrqqNiDxSAy5m149iA6MJ4CA8YrjyUFh3eM5SabbNK/czDIyyAnIY9JVuzDgJdNnODzsu2UJt1A6Wv/KHC/vnCe9YPSVbWZcZwI2nqQs1SCnNl/gk/b/Kdf5Nn+n6z4R4HxFbh4xqDJp8mAw6VgkXYzxPbUmiSbCqCDH7IxSB9k57MN+osclN9B/2FOePv57eBvosDHZZA2HsZqo/5wrMn2KGB3TBQITkw+D4I2GscSJmHYVvULslz74cThQZ8NmvwqMVZfvA+vsL3jgX7hjLX3f3IGTahnfhaUmcRojxs5tl+evVZ/YSrQ5hX9LK/9x3/8R+itHXbYYQ7a0R9ox4cYRd+3YeJdjQXvFHAdf/zx4WQPAhkpbQU50C48aSLSOIwFepVzqa3tCTF0bes08Nzx+KIL9G3TTTcNG41mgrnPfvazY57W4P6278X2sAeCsYnoTfBc/ptCXLkdp59+evgqbYwi50DGBDgc9BKcf7wigGij5LO2TdY++1E91+RyG4JU37F/cjywp+SJD1/CmNNFJfj7ZFmAXfI7OmnT+eefH9/Tdn31f9kP+mAsXT4e2MRtttkmCmTm+hJdILBt8wsM8qu6wj5xE2F8oTbdSpR9B/Rs308f07X0GR/WHmOTDyXIvn3ceWEug7ya3Bw0WdJGW667ot0HOrDkC3zGD8Rz/A/xmQk6EyIlPEcb2s8DclACD/EV2UE0ySDj3jdMl00GQ4NdKxaMclsopgqEUFlzTpXZILMbbWPdBVaBOAGcfLMG2qztbeah4Dh0lC0Gw0ilsWIU8qpym+AGsf28uQGMoey7VXFtFcSY5b6of7wH5aS/GNFPiUHCN1UQhFlp8NPF2ZksvI/jodhOnv2smBPGX/BldZYstflhGASBDHapfOY2yJ+xpUinUuGhA2dPZVerGwxqniyaauSgfhCPksfJTKygyWQcvvGg7WaSOTWMnsnIinkD7AAHjv63st8VZvpN7OSZ+mcK9Itgd9hkNt1Dv4PV1DYm4htMBgJrk1eC3ukAmyajRiYIvWRs8wp3F5ggsKrGaRym6+lVGSH+H8UmTCUEtxYbBGjOCi0z08aDQCE7wZNtvyAyt2Prrbee0HmpbfBj8W7X7KXxQL/nZw2yIwKFQUHFIOBfz+tiT8kouZtMJs9EIWBFQxMj7UBqbkPArj1OosgZW5OBTJH9998/VsnZf8FiCf6zcTbxOC+CflGc02ScCT7Be5l5NyrQlm+hv6Utw/N4wMr+dGBosJujfMvKg1aYCFGpfEaZ1WH4zBhgBKs2UtMwQlchLuG9iCftUzozZ1+KaPksAaFUDu3l7JqpaM8ImVmwmqCvUjcGwezVdAWQg0AQtIchNOtrFhzt9MGqe067EeSPFQQax8mkdQwC54vzoU0MdRvaPFXKH/ChWc677rorVs7aoKRHSX+fiUAjVTDJlfOWv/SlL3UOjATJHIBBTrGxZAinG+SYY2NVcVCaJ8e9nbo6HsiFzA99o6StEujrRPRMF2Q542Tk1Lg2ctrTqPAdOkrAYJJpKkGOzWZLk5SdIaVoorP0FVMPK+6qZ9L10srYui6g++lN6YmDJiXZubH4dCqh/d4v+6rtS7DJbAX9JSURTOoMgqBHhsTcAF1EV0j/HhQsCIInOinHqWPLTb7TT5z8ia6kSmsuM2HaoDdMlHPcx/JrpgvooxK17Wv077vf/e7wGyai/wT3xn8i0A6LKraQmPTM7ZgKkDF+IRtjXNuwsDIK0CavEudqyIPQpUo2n1qbxpKnEnhdoGu7WHtSQRvwe1d/YlRIdRVQeb/AcNTMl6mE7Rl8J34mXdtlm8ZYEDuZ3LE6myez2rJqjMinDM1Bdp1fa6LqmYC+y5DVD3pKVpG2TkR+M3xXLOZ5MlZlq1m847Pa6jVeFuFEMTTYtYLIUBLiQYEEgSgDrJyK0TZmg2DZ3p4DUTxFMVkwFtJ9KTIpzP4ugaBSMqVzDVOYmJJykKJbgpCbiZB2ZW/P3AK6Uz5AKMxKmiXVHg4qwbGHlZJoB4H6wYmQ3z/Vq9IY1uysdsjRb88G2s9bpoq6r+1UZYXaZSbRmBE0/1u1bCtdkxyT2Zc3U2ACx7FLFLY0fRMiXWDyRyBp1rE9TtIGp3LiYizQA1Kp6RR9KMc4O4fttrUdeDylH9nBIBMcHM7NqOlpE4EULLSnM+1TLKEPjIcVhYkYC7JuUpDT6viBEmjVlokM7y11cr63nEHnjAo2tL1i3oT9XFYC8bYU1i76TpDJjtvvWG7zAbIjAGg7ttMBci248L72FgITbFJxQaq2FWwrcG1wtgXD9u7ODfB97MOzItPeH8lmSUccS+bGg8kK35cmOmj7RxdIbeccm5wa5tPQe3wEmRsyxAb5Z118tonASj2fTAr6RPsp8NG+LumcYwGPCbbzfs+phMlLcoZHLLSUIGP2fY8CtoHP5pn85HawZeIZ30nLHg8WfdCO/zsoW6KUffs3BTIWn6TblqBr+MSTCXLGgz3PshillmvDRCeSJgt9pIfwrbFzpN5EdaTgjQ8/LGYgF8aSXjQpWcI444GJTvJMFsaC3RCoT6X/hCf5JZ4v8LWlwwSD1HELadOBoU8102OViFLVoLx/T5Rvb6vGWmnLs4WMMWfbbCXFagVSyrBVjpyyLIIHqwaMts8JM6Wos2YwOIn33HPPSMv6BsK+EE45h609MP7WTufdeoeUTW1BdLNeil5YTaJkrG4oiGOfUQYauN9m8/aKcBdM1CgCZitnujgNjD7lBIJNM4EHH3zwHCtz+qQPgp4uwsKZFnAYC4qRcstpmTkgLR0sDox9FsbKJnczcmZnGF9powwcUNoCdSsTBBqdbf7PDo5xZrTHo5EJDEb7+9//fgRn0tAFQGbOjHteFchtbCtL/EpplUrfNcEVnug6RsYfrXK6rVQMvA7GyXM8N8M7/XDWSqfC74I3906GP3IftMHvxppTY2+nIK+cBPFOY0nmyjZSNiZyFKHA/xwDcmz/jpX7zGu+oy9ktzQA6IeubTqO2i9FRPCygmycWsZCMaO8XzE7Kma1ZVjQKeTXtgW853/jb/8ReRfAaafUXG322cUXXzx7PPCg/ULjwfeMdZun9Bfy+JvwMxnDYEr7yTRCB5MGVqVymo7vKt7iOwxqF9i3LKBGnwMPPDBm/q2Ec2bas+FkWbo2PcCIcpLobYEyJ8zffvACfYyfTaThEXrDhJX+oql3lPwyCGRCYEV/CMhNtBgbz/PTnpjIyBMYbdrSPb7X5iE01e5Me8j0b7cxP7M9STIW7Dvi8EnX8m77t7zfc/C3/8v25L5pTykPWce031ve0wX5OXmy2diTSxOdZtzLiUJtw9O+k9+DB8ygs3/qGphoIVOO11fkitzLDoJMzzxRlJGf1x6fUfpCN6vh4DtsrBRBK34yUfAx+wFsCp1FVvKkLqAjx5MT3HU/HicSP/BX+B8Cfn3MNG3zSv47Bxf4Gc20WUEoEwxozwnma8gmc894yH3w/Pw7veS77KBMDfxrgs94aqtxlHqcQZfxozLwnMKU7K+AZhjYAzxANk1qGX/6DE0F8uyxvZ1saLadaESGtWWUcQb35+9wXPUZ7T3fc42t9+gTnWMyP9NFv+ibDNfpazwzyoqP73lWRvZ/PKvdDv3XDrrR9zJ/6HsX4Ef6mN6gn+0LxieHHnpo8LJFmAyy1W6bv/EGHZJljC+Nv+j37DOD+/xNZsjKeOCD8Y9MHu25557hZ3k33w4/8YPpOvqFTWVrjRm+Eniwqd5lb3kO2LQXz/rfT0b+27PK68OQZc3/bCYZs6BjS6KJsVLn8HHa79QXP239a1xdz2PZBVnvZVuC/lZ2ja1V5/xez2Vrtc3vGT6nX9i5fJ3eFTuoN2Ps+GJZrvGcyRFtpI9lLljpNF58B/5tLg6c+Ve/vCfrqgxtcb1rf31fG8v2g+uek/UAHeV38RDdhH/UDaI7xBp8fzGg72TebsM17ctjaZxM9PG7PEObvdcz2+2ZUqSGDEVqSJTkTwFWlLxefPHF4/ggR4o4Z8rxPmnQ4t7UmUbZ8RTYRAlpx0OkQCaOEnI8RwrKZpfJT4SLUvCJGaK0/Pv751Al4YyS3snZnn3EQ1ckJyuOQkiGon/lz0jCEOenJacuSqYr3Z2UbRyHoax/MgCzS2snZo8zDJMyiRLmysonpo8y6Wmg4p6uSIokzs1LTlT001msKeDrfzo+kmKO4wlSABLHYSgJriR+CmbmaEtSWlHOXyl95dCTQgx6J6eof8f4SIIaZdONXxKw2ef9KSOu/Dl2WXPNNWef2wqJweP4oRRYRUl9Y5eEdY6jqhIDx/FO6Iz+K620UhwPdN555wVf7LHHHlHuvQttPdfzvScpgDhOSsnzpCzj+8mxieNgtBUvffe7341S9Erbb7zxxtFG5eST0omS7c7YS0Yq7nf0RjJ8/TeNDXyCH9DpVa96VRwxgHbGxlhpV1KUccRKchhizI2/9+gzvktCHuXyPcP1FKzEdfxC3rSHrCmzn5Rn/81PB153FIb7X/SiF8VRGUm5xlEpyZGN68lwBj/omzMnF1100bieFM4c4+T9W2655ezPl1hiiZDvLIfknCzTAyn4jaM9yIp+0gm+Q2aSExHXnSWYz1JOzmyU38cL4wHPrr322kGb5KxH6Xo0bPOH43fwAV2D7+kWfcp6iUwY49133z2O0PE8MuI62XAN746nZ/B/MvzRDyX0HdOTjF3IQTJGcZ2+0G5t9ENnvOUtbwm5SU56lPR3bFHJX/hy0003DXq7F690geNu8Bna0GXahkfIZnn0EKRgM2jvXjKaDGjcmxzk0M/4TjtScBvHMbmPTNF7t9xySzzfmYXt41sGwdg6roie8z1HVhiT5PjFGOmncSz7SQ6ce4yG3o9ubA5ecRSD68ZKn9HckTn42XXfY18c0TBr1qy4hhb4ji2hr5ODH9cdvePe8YA29AQ95Ygjx16RC7L6whe+MPrg+DX2hKyyd56/wgorhDx4r+9os+trrLFGHOfkOn7BA67jG+0cC3jImKSANo7mSI5m6DJjmxzV0A2e41gXzzXOjvZxja2mk+jE/CzjRzaNA/lFa/0wZnS54yfIfn4meuMLbWc3Xd9tt92CJ/SFDCQnPvSpI6y62DS0ZdfZaDoSj9BR7XEx/ik4Czkmz/SJoz7o6i76I+Pxxx8PvZActrA59BQdxvbrD5lLzma8z/FadBVapwAl+A9d0I7OdjQMnvCsZZddNo4U6QI+SeZvtuKCCy6YfdwOW7tw/4xVeoks6Dc9xcbR4WwNniZTjhy7/PLLgw/oE7znWV1h7OgIz9cXvo/jPlzDX45eQQvjgd7aTPbx9TAbBPQ92aRj6FVHI9Kz+JXOMdbeSR7IB39Lv40/uQZ+Db7Ydttt46jD3E/+AT3eBSnQiiMN2QWy6vcUmEU76IDcDn3mA6SgItphzLWDHLFx+k5G9L3Up8OAfr5DvtCAjnUcTwa51X/PZp/wnHeyzX/VP+P62GOPnW2TjQU/m63FK8ZeH1zL/lcX0FUpiJxt11/zmtfE+JB3esvz3ANsIZrQsfqBNmyeMQPjQB7xMn+DvndcDt4ln+hb6sixQK4cC7TFFltEm9hJOohc8F9d87PffvuFniSDdJ54gZ9mnPAX20Imvdc7yQO9ya76vnHF98OAzvQcfeY7jtRx/BSeZwfZRDxDjukQ48Wfc69j4BwFpv/ZD+M3aS+ZMMb0GD2JZvxgNpEOJFtsVAb/cdVVV40++jE2ZAqt0EW/so7WL7xFR1933XUhv95BbtmlYdBWY65P+NV4oht5QG8yyDfQHv49vcNu0FXbb799jOs222wTf2cdxAZl3mYPPIss0pP6SefoO32Id+kE73d/+8cxSmg61VjAP+kFQ+GWNHARgacGxkqE311PwjBHakPqyOzVLfe5PxnH+Cx1eI57RfKem4gb9ybhilkEMwBJWc1xbxfkdnrWoO9qs+d7j3sSc8TfiZmeloeemCvanRg+ZsfN3unLqNCexJD9v55CYpx4Xxdoh1kvbUxKN/qIjm1aAtrrD7pqqzZr+yjI4+d7mY6JmedYlUG/pNBmv1/bvBd9fU/fjGkJ96CFPniuGS/3e9+gvgyD73gWPsF/+pm/r+2em6EdSRHGbKM2ZKCPvTbtWUhtNz7jwbvRJdPJM8x6lfAc/czykGF1MtOjhOvoU/JLbn+bnhnGRTtKZF723gx/u+6dJR20HQ0zSh7S9iwnQB6yLGfgA/xZ0hxc1y7PyzBL2FWuvT/LpvEt25hBNrzD/9ppTLUF8FSGz5OCjt/RwJihm3vRHD8PQ5v/wZjkd2egl+dloAl6uQcv6EemZYbP8ZJZXJkZXfZhgWcbS23P8mZ1zAqaPYal3Gs7WmaeR3/fRdN8H/5ED7ynH+5zDQ8Zt64yarx8J/Ob55U84zoaZV3q81IO0AfveAa6ZOif5+XZ9ww0zXokI+sg95a87l4/4yHTK/Od55eyBMbf9bZutzKsP+Q4Q9vxfbs96Oo5Y8H97eegjed7dwaaGR9tznDNs0ve9h33GNfcN/A3+SjfhYbGyepeCW0ma2296VmujwffwQ/o5h2+M0j+0Ml9xkK/9Q9fduHBEvqMXr6faZR1BIzFb20bp72+p/1ko4uNgDZ/g+fqO56lQ/Q16y/t1e+sl9yTnO/YzyfTQnu1Ey2MIdqMgqxXMw94p/b5PY+D95cy6x3DbBBoE54o4Zl+9C/bgtxPvOa9/sZTQP/J1LH6JSsp2yD07tpPz23rCLrAeGmHcS7tRbsdxrgtR2Ta/11gvH1fe8u+gUyVtp7St3Z7fa+UzayXAQ/7bFQ58F7tQlPPMC7GBH39lPBO78MD+qGNWV8PGmfPQ5+SboBnyv630aZHljn0aMuiMdOujGyfSj4F39eOUpdpwzA969neWdpy38k2pLyOVp5d6nHjgU5l/42Pdxpj46edeFC7AR/ql3EoxzLraPBZ1jP6OpaObvu24+nitk7KbdVG/FFCDRL9115jjCbarU/ayq4BOpVjiV+0I/tdGZm39VG2mUwlz7Y67D0PPfRQZEp6rwxONJgqdAp2RwUm1pENN9zwaYWiKioqKp4tkLJk/650cHsAB4Fhl45vuwEDNlGMFexWVFTMu5BmbS+2LWNSFktwIHOwK6W1nEyb3/DAAw9ECqSU2EHV8HOwix7OEJ0uSJOWvi01PW/PqaiomDsQGNsOaoJ/kE8kkLadTer0VBx/ljEtO4HtrZGDbk9JOeNQUVFR8WyBWVh7nij1yy67rH91TpgdtSff3pwaoFZUPLtgreG8886L81jpgZkMhXbUMxDwPpOwf1g7BLwVFRVzF+r5qJUiI2AQrFSrSzTVE3vTsrLLybOB3dK4Ze+KioqKZyOkC1HeVmza6WJSNBWLUolR2t5kMmCsDq+55pphQFQ4zGlnFRUV8zak9EkXt8rRlltyrWKzFGZF44alY87roO8U3qLrBjm6CpipxmtlVyG/6YJ28E/p5LEc7oqKiumB7A1Fz2SiOf1jnXXWiTRwWSyK1dF1CnYOS8WeCKYl2K2oqKiomDtQSdVqiYrT9tNIe9x7772nNRWwoqJieqGKuhMq/Jg0U6VVhdzJHMEzL8I+PVmAVlr9/s53vjOqAeeq9RUVFTMH9gU79cMKr5M+VEO399dpIOTelq+pDnShBrsVFRUVFRUVFRUVFRUVMw7Tsme3oqKioqKioqKioqKiouKZRA12KyoqKioqKioqKioqKmYcarBbUVFRUVFRUVFRUVFRMeNQg92KioqKioqKioqKioqKGYdJB7vqW9177729z372s1FN6+677+5/Mm/iT3/6U+8nP/lJ7/DDD++ttdZacYDx/Ibf/OY3ccD8TIcjrFRrM1bbbbdd/+r4cLyBCpbKmCtnPtPgUO5zzz03zm5Fo4qKioqKioqKioqKp2PSwe4f/vCHOEfSwei33357/+q8iwcffLB3zz339M4+++woeT0/wZl7Dp5/2cte1jv66KP7V6cOSoI79/P//u//+leegjPp7r///v5fcw+//OUvY3Li85//fLShK9DnqquuimMaHn300f7VmYPLL788jpaBv/iLv4j/KyoqKioqKioqKirmxKSDXYdyOxx4s80261+Zt7H00kv3tt9++94KK6zQvzL/QJBuJX2BBRboX5la5MAJfayMfuMb3+gdcsghcQD0oosuGp/NTbz61a/urbzyynHY/ijQj9NOO623yiqrxEH8MwlWcq3oHn/88XEeYUVFRUVFRUVFRUXFYEzZnt3XvOY1/d/mXVgNmzVrVvz8+Mc/jpXdTTbZpHfxxRf375i38eY3vzna+9znPrd/ZWohiN5hhx16r3vd63qHHnpob5dddundfPPNvaOOOqr34he/uH/X3MWCCy4YExSjYrHFFut9+ctfnu9W78fDr3/9697b3va23oc//OFpm/SoqKioqKioqKiomAlYoLFUOAUQWOyxxx69f/mXf+m96U1v6l+dt1Cm577nPe/p3XHHHfGz0EILzTeBg/2aSy65ZG+jjTaKFb7pAJaQMu3/5zznORFwPlOwkrnjjjv2Hnnkkd4//dM/9a92hzH/f/9v5tRhy+JaA92KioqKioqKioqK4egU7LpFUadLL700go611167t80220SQmFEGu2984xt7//AP/9D7/ve/H0HZ5ptvHkFTCUHI9773vd63vvWt2Je57rrr9t71rnc9bdXyF7/4RewH3nfffSM91Z7Sn/3sZ5HCaYW2SyCjSJG2eJd2vPe97+0deeSREejeeeedcc9xxx0XfYNtt9020rL/+Mc/RrroQw89FNetDCuWZBX7jDPOiGcJxq6++ure9ddfHwHi+uuvH6uvL3zhC3t77bVX79/+7d9ij+Xznve8eMavfvWr3te+9rUoMLXMMstE4SUrqV0xmWDXOGqn/az2WmvnpptuOsfY6M8VV1zRu+6662JcpKijh3T1DPRUOOpf//VfY/XXftpzzjknArDdd9993FV+7fjRj34Ue7zf//73x+qrgktWLX0f/2S0g13Fuc4///zez3/+89773ve+3korrdS/8ym4H+/94z/+Y/AYvjKxYTzGwo033tj74he/GL8vvvjisZKN1/C8wmvo8JKXvCTSqb/yla+EHEix9j3FsKyG41M08B57hX3eBnrJIrD/efnllw+6jpeibawuuuii/l+9aIf92t7z5JNP9o444ojYM28MXV9iiSX6d1ZUVFRUVFRUVFQ8yyHYHYbf/e53zd/93d81KchrHn744SYFKE0KRpr11luvefzxx/t3Nc2XvvQlQXOTApImBY7NBhts0KRApEnBaHPBBRf073oKjz76aLPzzjs3KeBsfvnLXzY33HBDs8466zQrr7xykwLZuOeJJ55oPvOZzzQvetGL4rk333xz86EPfSje+9rXvjau//CHP4x7hyEFl00KlONdv//972e/OwUF8RzXIAU0zcknnxzvSgFuXIMUMDUHHnhgXE/BcpOCuyYF+00KhJsUvDQpkGquvPLKJgWATQpion0rrLBC89Of/rQ57bTTmhTQNr/97W/j+d/+9rebjTfeuEmBbpOCpGbPPfeMdrjuPV2QApsmBTpNCvb7V7ohBYtNCg6bFLw1jz32WJMC9CYFWtGfFPjGPcbibW97W4y1/jz44IMxLquttlq8F/R5t912C3qkQLW55pprmi222KJJQWWTArFm1VVXbVJAHvcOgmcajxRMNrNmzWpuu+22Zquttor3LLroos2KK64YY5Tx3//9383WW2/drLXWWk0KKJu99947eMvYpYCyufPOO/t3NsGfa6yxRoxfHg/tWX/99WMMhkH/lltuuRgvvJdx9913N0sttVSTAvjmsssua175ylc2Kfhstt9++6CBvuCLzTffPPqw8MILx/vKZxjbFCQ3q6yyStAPvckIGiyyyCLxzhRs9++eE/p/wgknNM997nODBuVzwbjiuR//+Mf9KxUVFRUVFRUVFRUVMG6we9RRR0Vww+kGQdsRRxzRLLDAAs2pp54a1yAHu5/4xCfmCJ4EVGVg5jk77bRTc9BBB0VAkvHAAw80iy++eARNv/71ryNA+N///d8ITD33xBNPjMDU+3/yk5/Etb322mvcIHG//fZrdt9993hWxm9+85tm+eWXnyPYBQGg55bBLnzhC1+I6wKTHXfcsbn33nvjeRtttFHcq00ZDz30UPO6170uAlJB8SWXXBLXb7rppmbZZZedHTTCPffcEwGe6+0gZixMJNhFZ0Gt8SrbKkg1aWAiAS699NIIwK6//vr4G/T9ec97XkxigGcJOpdccskINt1rTD1XIP385z8/6DgW3GeiQJ8F+tddd13z5JNPxnMFk/jqzDPP7N/952DXvddee23zP//zPzHmgsbFFlss+DPj3HPPbRZccMGgdQa+0cc77rijf2VsCBrbwa62CVI912TM2WefHW247777IvBdeumlgzbaqQ8C04UWWmiONrj35S9/eXP++ef3rzw1mYMHBbAmlDxzLPhcAG0SpR20C3L333///l8VFRUVFRUVFRUVFRlDc4Cl3H71q1+NlGFpnSBt+AMf+ECkc0rDbEPK6Ate8IL4PQUZUU03BWhxrA388Ic/jLRe6bPlXlCprwcffHDvBz/4QaShSomVmpmCp/hc6rFUWu9PQWpvtdVWi+emACM+HwSppdKepUeXqboLL7xw76/+6q/6f3WHZ6GH9GNtlFarWFCZSi19VYq3/qpinAK1uJ4Czd5yyy03R6EnhZdSMBlH6+R+TgdS4BUpt8ambKsUbWm6UmohBXuRzquKcQaaJz6JlG4wZtrqZ+ONN440YbzhucbafY8//njcOwjuMxZ+pCtL+/Ysz1199dV7KYCM73tnCbSSui3NHW9I/5XSK4U636s9qkjn/oD2p+B4Nv9NFMYVb0q71gZt1m8p+mussUb8rg/48ve//32km2dIoZeqXY69tPZ11lkn2i/9fVjRMdsFPv7xj0dKvBTu3N8//elP0d/MYxUVFRUVFRUVFRUVf8bQYNe+SPsL2/sPBRq77rpr7xWveEX/yp8hEMng/NtbWEKwK/gQcJbwvQ033DACZMFZduidmQrlc8sgeBgE1c5qHRTYloH2qBCcCHYXWWSRgXskBT8CEZWMQV/sDbbXtt0PgYogswxCpxLebX8ttCsqq+5sHPN+3Je+9KW9nXfeOSYrTBSgn720bRjTQUW9uowJ+J53tL8vACwnJYYhB8wljIX+eA6+tbfW/ujpgP7nyZcSg2jw8pe/PNpaBsD6LsDFh206DIJJlbXWWqt30kknxSQU+F8Qb5KgoqKioqKioqKiomJODI2wFAwS2N177739K5PHww8/HMGuAkltKA6UV4UnC8Gmc2nht7/9bfw/VbCaLIh+7LHHBj47B5XaAGiocNLdd989O4ifm9DG3/3ud0NXXDMUUVL4SREwwZUCVPMTjLkiV/phEkEBsGcaAtU111wzVmGfeOKJuIYfZAZsueWWnY51ElQrePbAAw9EoTW49tprI0Oi6yRDRUVFRUVFRUVFxbMJQ4NdK7pWr77xjW+Ec15C0KZabQ7oukLqqtUolZDbEEQKhFUn7rLaNQyCgxxE5KB3PJTVpYfBipw2au+gfoD3v/71r4/fpbh6tgBS6nUbrg0K/qcC6GgcBbpWOdG3hEBcEA4qMEvLdYar/62qT9eK83RAFWnBn/RxKc2LLrroSO3PqfpTDRM4KjWjtfOLVXs+5phjIq3c7115XRq3AP6EE06IrIsLL7wwJiQqKioqKioqKioqKp6OoZGAfZKC0+9+97ux7zDvjxUwOTZGSnIOJrquWG6wwQaRZioN2GpjCUf8WKWyxzZjoiuhAogttthidqBhH2UJz80/GVKrpZU60iVf939uZw7spaRa8RTASvVt7we1D9OzBCcZ9mfac+nIo7ItUlsd21S2Y6rh+CAp14cddljvxz/+8ex3Cb6sLtpna2zPPPPMaLe9xRnlZEbZxsm013enur/6Yv+zlOE3vOEN/atznq083julZ+tv5nMwVnmip93/rn1wn+OpHG9l77bjggS7jrGy77grjM1HPvKRWLUWNDvPOqf5Z2i/45Cma/KkoqKioqKioqKiYn7B0GBXoHjQQQdFsGdv6dvf/vbePvvsE6tnHHUBX16V4mCDoCNDoOFv38/Xl1122ViZUjBJEJrhHgWTDjnkkDmCFenC0A40PFugOGxlWeqowlbOtFU0SpCgHdJJXfNOKdr5HYojCSAUjLJyJuVUUGL/KvhdoSDBobOGFeqymiiQyRAoXXPNNRE4mizIOOCAA2KP7Oc+97neqquuGt/dbbfdIiB2Vmx7b/NY6BpglUDzj370o0EzY2cSwLnF0msF2j43aSF4t1p/ySWXBF31zXm1frf6m9NnBYBSo8tAEvLfg1avS+iDYKzdF993zffzZ65J3dWG8n1+dy2PnfbLQnB+r3YbBxkJ9isLVp3/fOWVV8a9Y8Fea2n2gmbf8Sy08Cwp6/vtt1+kDgPe8dPmv9xG92fgO3tt8ZrfnRXsJ6c0jwIFwYyXcXGeb3vvudV5fIbfSnpVVFRUVFRUVFRUPNuw4JGWGoeAY22lT8EfAaLVScHascceGwWBBAVnnXVW75RTTgkH/pFHHok0Xz9nnHFGVDDm+AtMpf4utthiUe1XkauLL744nHbPtnI8a9as2Q68gNIzzzvvvAiuBBaCGfuIXVd8SIVbn6244ooDU5AFQFZUBbje8+lPf7r37W9/O4I931NgS3tU77XaLLhXIOv666/vnXzyyb1bb721t//++8fKrX4LFBVwsnro2QIP96uQK5hyjyBeRV57RfOqN0ipFlyij3sFlVZbTRpIue2SyirwUi1Z4StBHppqt0rWw+DZaK4AlYBLATABpSrb0mjRzj2qTN922229s88+u/fNb34z2isYtwovCJR2K8g19oKqBx98MGiz1FJLRRAokBcUu9cKvXEpaQCCvU996lMxIaDAkrExyYDWxgf9rIwbf6uWp512WoyZ9vqxrxu/nH766dGGRx99NJ6BR40jHsWPAvPNNtss0nwvu+yyyBowJoOKqmWYnLjrrrtiouKCCy6Id+FH70c//ZeZ4J5PfOITvRtuuCEmQsiAMRBMowEa4wX8qk0+v+iii6Jd+mNSxw86mljBiwLtYRWZM6RamxgxWSDdvM03+IvMmYx5xzve0YmvKioqKioqKioqKmYiFmjay2sVFRVTCiussglMvJigECD7P0/C+DGRYXJhPBBXEzEmi7bffvv+1YqKioqKioqKioqKNp7RYNeqoPROK1v2k05VJea5DcGM/Zj2+n7sYx/rnJJcMfMhzfnEE0+MlWeVlwfBaraMBRkH48HKurN+ZU3ISqioqKioqKioqKioGIyhe3anG9JSpcyee+65kfY5v0I/rMxJVe1yvE/FswdWcU2ESMseBOnIVnZXWGGF/pWnQ7r+fffdF5ND3/nOdyLtvQa6FRUVFRUVFRUVFcNR05grKqYR9i/bw23ldtddd40iV/ZOEzt7e+09VvhMYbRBsA9eYTh7kcEeYHuFR6niXFFRUVFRUVFRUfFsxDO6sltRMdNhb62iX1KZFe9S3M35y/bbKlImjX+sQBekxDuKSzEzldCvuuqqGuhWVFRUVFRUVFRUdEBd2a2oqKioqKioqKioqKiYcagruxUVFRUVFRUVFRUVFRUzDjXYraioqKioqKioqKioqJhxqMFuRUVFRUVFRUVFRUVFxYxDDXYrKioqKioqKioqKioqZhxqsFtRUVFRUVFRUVFRUVExw9Dr/X8dESF7M3t5TAAAAABJRU5ErkJggg==;fillColor=#A8DADC;strokeColor=#457B9D;fontColor=#1D3557;" parent="1" vertex="1">
                    <mxGeometry x="-70" y="40" width="955" height="199" as="geometry"/>
                </mxCell>
                <mxCell id="VKKfzKTdM1XF6nfhbhYF-3" style="edgeStyle=none;rounded=1;sketch=0;orthogonalLoop=1;jettySize=auto;html=1;exitX=1;exitY=0.3333333333333333;exitDx=0;exitDy=0;exitPerimeter=0;fontColor=#1D3557;startArrow=none;startFill=0;endArrow=open;endFill=0;strokeColor=#457B9D;fillColor=#A8DADC;" parent="1" source="VKKfzKTdM1XF6nfhbhYF-4" target="VKKfzKTdM1XF6nfhbhYF-18" edge="1">
                    <mxGeometry relative="1" as="geometry">
                        <mxPoint x="280" y="350" as="targetPoint"/>
                    </mxGeometry>
                </mxCell>
                <mxCell id="VKKfzKTdM1XF6nfhbhYF-4" value="&lt;span style=&quot;&quot;&gt;Khách mua&lt;/span&gt;" style="shape=umlActor;verticalLabelPosition=bottom;verticalAlign=top;html=1;outlineConnect=0;rounded=0;labelBackgroundColor=none;sketch=0;fontColor=#1D3557;strokeColor=#457B9D;fillColor=#A8DADC;" parent="1" vertex="1">
                    <mxGeometry x="100" y="330" width="30" height="60" as="geometry"/>
                </mxCell>
                <mxCell id="VKKfzKTdM1XF6nfhbhYF-5" style="rounded=1;sketch=0;orthogonalLoop=1;jettySize=auto;html=1;exitX=1;exitY=0.3333333333333333;exitDx=0;exitDy=0;exitPerimeter=0;entryX=0;entryY=0.5;entryDx=0;entryDy=0;fontColor=#1D3557;strokeColor=#457B9D;fillColor=#A8DADC;labelBackgroundColor=none;endArrow=open;endFill=0;" parent="1" source="VKKfzKTdM1XF6nfhbhYF-6" target="VKKfzKTdM1XF6nfhbhYF-13" edge="1">
                    <mxGeometry relative="1" as="geometry"/>
                </mxCell>
                <mxCell id="VKKfzKTdM1XF6nfhbhYF-6" value="&lt;span style=&quot;&quot;&gt;Khách bán&lt;/span&gt;" style="shape=umlActor;verticalLabelPosition=bottom;verticalAlign=top;html=1;outlineConnect=0;rounded=0;labelBackgroundColor=none;sketch=0;fontColor=#1D3557;strokeColor=#457B9D;fillColor=#A8DADC;" parent="1" vertex="1">
                    <mxGeometry x="100" y="570" width="30" height="60" as="geometry"/>
                </mxCell>
                <mxCell id="VKKfzKTdM1XF6nfhbhYF-7" style="edgeStyle=none;rounded=1;sketch=0;orthogonalLoop=1;jettySize=auto;html=1;exitX=0;exitY=0.3333333333333333;exitDx=0;exitDy=0;exitPerimeter=0;entryX=0.977;entryY=0.333;entryDx=0;entryDy=0;entryPerimeter=0;fontColor=#1D3557;strokeColor=#457B9D;fillColor=#A8DADC;startArrow=open;startFill=0;endArrow=none;endFill=0;labelBackgroundColor=none;" parent="1" source="VKKfzKTdM1XF6nfhbhYF-8" target="VKKfzKTdM1XF6nfhbhYF-16" edge="1">
                    <mxGeometry relative="1" as="geometry"/>
                </mxCell>
                <mxCell id="VKKfzKTdM1XF6nfhbhYF-8" value="&lt;span style=&quot;&quot;&gt;Database&lt;/span&gt;" style="shape=umlActor;verticalLabelPosition=bottom;verticalAlign=top;html=1;outlineConnect=0;rounded=0;labelBackgroundColor=none;sketch=0;fontColor=#1D3557;strokeColor=#457B9D;fillColor=#A8DADC;" parent="1" vertex="1">
                    <mxGeometry x="730" y="420" width="30" height="60" as="geometry"/>
                </mxCell>
                <mxCell id="VKKfzKTdM1XF6nfhbhYF-9" style="edgeStyle=none;rounded=1;sketch=0;orthogonalLoop=1;jettySize=auto;html=1;exitX=1;exitY=0.5;exitDx=0;exitDy=0;entryX=0;entryY=0.5;entryDx=0;entryDy=0;fontColor=#1D3557;strokeColor=#457B9D;fillColor=#A8DADC;dashed=1;labelBackgroundColor=none;endArrow=open;endFill=0;" parent="1" source="VKKfzKTdM1XF6nfhbhYF-13" target="VKKfzKTdM1XF6nfhbhYF-15" edge="1">
                    <mxGeometry relative="1" as="geometry"/>
                </mxCell>
                <mxCell id="VKKfzKTdM1XF6nfhbhYF-10" value="&amp;lt;&amp;lt;include&amp;gt;&amp;gt;" style="edgeLabel;html=1;align=center;verticalAlign=middle;resizable=0;points=[];fontColor=#1D3557;labelBackgroundColor=#A8DADC;" parent="VKKfzKTdM1XF6nfhbhYF-9" vertex="1" connectable="0">
                    <mxGeometry x="-0.2571" y="-3" relative="1" as="geometry">
                        <mxPoint x="7" y="-4" as="offset"/>
                    </mxGeometry>
                </mxCell>
                <mxCell id="VKKfzKTdM1XF6nfhbhYF-11" style="edgeStyle=none;rounded=1;sketch=0;orthogonalLoop=1;jettySize=auto;html=1;exitX=0.5;exitY=0;exitDx=0;exitDy=0;entryX=0;entryY=0.5;entryDx=0;entryDy=0;fontColor=#1D3557;strokeColor=#457B9D;fillColor=#A8DADC;dashed=1;labelBackgroundColor=none;endArrow=open;endFill=0;" parent="1" source="VKKfzKTdM1XF6nfhbhYF-13" target="VKKfzKTdM1XF6nfhbhYF-16" edge="1">
                    <mxGeometry relative="1" as="geometry"/>
                </mxCell>
                <mxCell id="VKKfzKTdM1XF6nfhbhYF-12" value="&amp;lt;&amp;lt;include&amp;gt;&amp;gt;" style="edgeLabel;html=1;align=center;verticalAlign=middle;resizable=0;points=[];fontColor=#1D3557;labelBackgroundColor=#A8DADC;" parent="VKKfzKTdM1XF6nfhbhYF-11" vertex="1" connectable="0">
                    <mxGeometry x="0.1814" relative="1" as="geometry">
                        <mxPoint x="-7" y="5" as="offset"/>
                    </mxGeometry>
                </mxCell>
                <mxCell id="VKKfzKTdM1XF6nfhbhYF-13" value="Đăng bán" style="ellipse;whiteSpace=wrap;html=1;rounded=0;labelBackgroundColor=none;sketch=0;fontColor=#1D3557;strokeColor=#457B9D;fillColor=#A8DADC;" parent="1" vertex="1">
                    <mxGeometry x="270" y="560" width="130" height="60" as="geometry"/>
                </mxCell>
                <mxCell id="VKKfzKTdM1XF6nfhbhYF-14" style="edgeStyle=none;rounded=1;sketch=0;orthogonalLoop=1;jettySize=auto;html=1;exitX=1;exitY=0.5;exitDx=0;exitDy=0;entryX=0;entryY=0.3333333333333333;entryDx=0;entryDy=0;entryPerimeter=0;fontColor=#1D3557;startArrow=none;startFill=0;endArrow=open;endFill=0;strokeColor=#457B9D;fillColor=#A8DADC;labelBackgroundColor=none;" parent="1" source="VKKfzKTdM1XF6nfhbhYF-15" target="VKKfzKTdM1XF6nfhbhYF-8" edge="1">
                    <mxGeometry relative="1" as="geometry"/>
                </mxCell>
                <mxCell id="VKKfzKTdM1XF6nfhbhYF-15" value="Kí hợp đồng" style="ellipse;whiteSpace=wrap;html=1;rounded=0;labelBackgroundColor=none;sketch=0;fontColor=#1D3557;strokeColor=#457B9D;fillColor=#A8DADC;" parent="1" vertex="1">
                    <mxGeometry x="500" y="560" width="130" height="60" as="geometry"/>
                </mxCell>
                <mxCell id="VKKfzKTdM1XF6nfhbhYF-16" value="Cung cấp thông tin nhà" style="ellipse;whiteSpace=wrap;html=1;rounded=0;labelBackgroundColor=none;sketch=0;fontColor=#1D3557;strokeColor=#457B9D;fillColor=#A8DADC;" parent="1" vertex="1">
                    <mxGeometry x="470" y="420" width="130" height="60" as="geometry"/>
                </mxCell>
                <mxCell id="VKKfzKTdM1XF6nfhbhYF-17" style="edgeStyle=none;rounded=1;sketch=0;orthogonalLoop=1;jettySize=auto;html=1;exitX=1;exitY=0.5;exitDx=0;exitDy=0;entryX=0;entryY=0.3333333333333333;entryDx=0;entryDy=0;entryPerimeter=0;fontColor=#1D3557;strokeColor=#457B9D;fillColor=#A8DADC;labelBackgroundColor=none;endArrow=none;endFill=0;startArrow=open;startFill=0;" parent="1" source="VKKfzKTdM1XF6nfhbhYF-18" target="VKKfzKTdM1XF6nfhbhYF-8" edge="1">
                    <mxGeometry relative="1" as="geometry"/>
                </mxCell>
                <mxCell id="VKKfzKTdM1XF6nfhbhYF-18" value="Tìm kiếm" style="ellipse;whiteSpace=wrap;html=1;rounded=0;labelBackgroundColor=none;sketch=0;fontColor=#1D3557;strokeColor=#457B9D;fillColor=#A8DADC;" parent="1" vertex="1">
                    <mxGeometry x="280" y="320" width="130" height="60" as="geometry"/>
                </mxCell>
                <mxCell id="VKKfzKTdM1XF6nfhbhYF-19" style="edgeStyle=none;rounded=1;sketch=0;orthogonalLoop=1;jettySize=auto;html=1;exitX=0;exitY=0.3333333333333333;exitDx=0;exitDy=0;exitPerimeter=0;fontColor=#1D3557;strokeColor=#457B9D;fillColor=#A8DADC;labelBackgroundColor=none;" parent="1" source="VKKfzKTdM1XF6nfhbhYF-8" target="VKKfzKTdM1XF6nfhbhYF-8" edge="1">
                    <mxGeometry relative="1" as="geometry"/>
                </mxCell>
                <mxCell id="VKKfzKTdM1XF6nfhbhYF-20" value="Hệ thống quản lý trang web mua bán nhà" style="rounded=0;whiteSpace=wrap;html=1;labelBackgroundColor=none;sketch=0;fontColor=#1D3557;strokeColor=#457B9D;fillColor=#A8DADC;" parent="1" vertex="1">
                    <mxGeometry x="190" y="270" width="140" height="40" as="geometry"/>
                </mxCell>
                <mxCell id="VKKfzKTdM1XF6nfhbhYF-21" value="" style="shape=table;startSize=0;container=1;collapsible=0;childLayout=tableLayout;fillColor=#A8DADC;strokeColor=#457B9D;fontColor=#1D3557;" parent="1" vertex="1">
                    <mxGeometry x="-90" y="1100" width="480" height="350" as="geometry"/>
                </mxCell>
                <mxCell id="VKKfzKTdM1XF6nfhbhYF-22" value="" style="shape=partialRectangle;collapsible=0;dropTarget=0;pointerEvents=0;fillColor=none;top=0;left=0;bottom=0;right=0;points=[[0,0.5],[1,0.5]];portConstraint=eastwest;strokeColor=#457B9D;fontColor=#1D3557;" parent="VKKfzKTdM1XF6nfhbhYF-21" vertex="1">
                    <mxGeometry width="480" height="40" as="geometry"/>
                </mxCell>
                <mxCell id="VKKfzKTdM1XF6nfhbhYF-23" value="" style="shape=partialRectangle;html=1;whiteSpace=wrap;connectable=0;overflow=hidden;fillColor=none;top=0;left=0;bottom=0;right=0;pointerEvents=1;strokeColor=#457B9D;fontColor=#1D3557;" parent="VKKfzKTdM1XF6nfhbhYF-22" vertex="1">
                    <mxGeometry width="180" height="40" as="geometry">
                        <mxRectangle width="180" height="40" as="alternateBounds"/>
                    </mxGeometry>
                </mxCell>
                <mxCell id="VKKfzKTdM1XF6nfhbhYF-24" value="Tên UC" style="shape=partialRectangle;html=1;whiteSpace=wrap;connectable=0;overflow=hidden;fillColor=none;top=0;left=0;bottom=0;right=0;pointerEvents=1;strokeColor=#457B9D;fontColor=#1D3557;" parent="VKKfzKTdM1XF6nfhbhYF-22" vertex="1">
                    <mxGeometry x="180" width="50" height="40" as="geometry">
                        <mxRectangle width="50" height="40" as="alternateBounds"/>
                    </mxGeometry>
                </mxCell>
                <mxCell id="VKKfzKTdM1XF6nfhbhYF-25" value="Tìm kiếm" style="shape=partialRectangle;html=1;whiteSpace=wrap;connectable=0;overflow=hidden;fillColor=none;top=0;left=0;bottom=0;right=0;pointerEvents=1;strokeColor=#457B9D;fontColor=#1D3557;" parent="VKKfzKTdM1XF6nfhbhYF-22" vertex="1">
                    <mxGeometry x="230" width="250" height="40" as="geometry">
                        <mxRectangle width="250" height="40" as="alternateBounds"/>
                    </mxGeometry>
                </mxCell>
                <mxCell id="VKKfzKTdM1XF6nfhbhYF-26" value="" style="shape=partialRectangle;collapsible=0;dropTarget=0;pointerEvents=0;fillColor=none;top=0;left=0;bottom=0;right=0;points=[[0,0.5],[1,0.5]];portConstraint=eastwest;strokeColor=#457B9D;fontColor=#1D3557;" parent="VKKfzKTdM1XF6nfhbhYF-21" vertex="1">
                    <mxGeometry y="40" width="480" height="40" as="geometry"/>
                </mxCell>
                <mxCell id="VKKfzKTdM1XF6nfhbhYF-27" value="" style="shape=partialRectangle;html=1;whiteSpace=wrap;connectable=0;overflow=hidden;fillColor=none;top=0;left=0;bottom=0;right=0;pointerEvents=1;strokeColor=#457B9D;fontColor=#1D3557;" parent="VKKfzKTdM1XF6nfhbhYF-26" vertex="1">
                    <mxGeometry width="180" height="40" as="geometry">
                        <mxRectangle width="180" height="40" as="alternateBounds"/>
                    </mxGeometry>
                </mxCell>
                <mxCell id="VKKfzKTdM1XF6nfhbhYF-28" value="Actors" style="shape=partialRectangle;html=1;whiteSpace=wrap;connectable=0;overflow=hidden;fillColor=none;top=0;left=0;bottom=0;right=0;pointerEvents=1;strokeColor=#457B9D;fontColor=#1D3557;" parent="VKKfzKTdM1XF6nfhbhYF-26" vertex="1">
                    <mxGeometry x="180" width="50" height="40" as="geometry">
                        <mxRectangle width="50" height="40" as="alternateBounds"/>
                    </mxGeometry>
                </mxCell>
                <mxCell id="VKKfzKTdM1XF6nfhbhYF-29" value="Khách mua, Database" style="shape=partialRectangle;html=1;whiteSpace=wrap;connectable=0;overflow=hidden;fillColor=none;top=0;left=0;bottom=0;right=0;pointerEvents=1;strokeColor=#457B9D;fontColor=#1D3557;" parent="VKKfzKTdM1XF6nfhbhYF-26" vertex="1">
                    <mxGeometry x="230" width="250" height="40" as="geometry">
                        <mxRectangle width="250" height="40" as="alternateBounds"/>
                    </mxGeometry>
                </mxCell>
                <mxCell id="VKKfzKTdM1XF6nfhbhYF-30" value="" style="shape=partialRectangle;collapsible=0;dropTarget=0;pointerEvents=0;fillColor=none;top=0;left=0;bottom=0;right=0;points=[[0,0.5],[1,0.5]];portConstraint=eastwest;strokeColor=#457B9D;fontColor=#1D3557;" parent="VKKfzKTdM1XF6nfhbhYF-21" vertex="1">
                    <mxGeometry y="80" width="480" height="40" as="geometry"/>
                </mxCell>
                <mxCell id="VKKfzKTdM1XF6nfhbhYF-31" value="" style="shape=partialRectangle;html=1;whiteSpace=wrap;connectable=0;overflow=hidden;fillColor=none;top=0;left=0;bottom=0;right=0;pointerEvents=1;strokeColor=#457B9D;fontColor=#1D3557;" parent="VKKfzKTdM1XF6nfhbhYF-30" vertex="1">
                    <mxGeometry width="180" height="40" as="geometry">
                        <mxRectangle width="180" height="40" as="alternateBounds"/>
                    </mxGeometry>
                </mxCell>
                <mxCell id="VKKfzKTdM1XF6nfhbhYF-32" value="Mô tả" style="shape=partialRectangle;html=1;whiteSpace=wrap;connectable=0;overflow=hidden;fillColor=none;top=0;left=0;bottom=0;right=0;pointerEvents=1;strokeColor=#457B9D;fontColor=#1D3557;" parent="VKKfzKTdM1XF6nfhbhYF-30" vertex="1">
                    <mxGeometry x="180" width="50" height="40" as="geometry">
                        <mxRectangle width="50" height="40" as="alternateBounds"/>
                    </mxGeometry>
                </mxCell>
                <mxCell id="VKKfzKTdM1XF6nfhbhYF-33" value="Khách muốn mua nhà sẽ tìm kiếm nhà theo tiêu chí" style="shape=partialRectangle;html=1;whiteSpace=wrap;connectable=0;overflow=hidden;fillColor=none;top=0;left=0;bottom=0;right=0;pointerEvents=1;strokeColor=#457B9D;fontColor=#1D3557;" parent="VKKfzKTdM1XF6nfhbhYF-30" vertex="1">
                    <mxGeometry x="230" width="250" height="40" as="geometry">
                        <mxRectangle width="250" height="40" as="alternateBounds"/>
                    </mxGeometry>
                </mxCell>
                <mxCell id="VKKfzKTdM1XF6nfhbhYF-34" style="shape=partialRectangle;collapsible=0;dropTarget=0;pointerEvents=0;fillColor=none;top=0;left=0;bottom=0;right=0;points=[[0,0.5],[1,0.5]];portConstraint=eastwest;strokeColor=#457B9D;fontColor=#1D3557;" parent="VKKfzKTdM1XF6nfhbhYF-21" vertex="1">
                    <mxGeometry y="120" width="480" height="40" as="geometry"/>
                </mxCell>
                <mxCell id="VKKfzKTdM1XF6nfhbhYF-35" value="" style="shape=partialRectangle;html=1;whiteSpace=wrap;connectable=0;overflow=hidden;fillColor=none;top=0;left=0;bottom=0;right=0;pointerEvents=1;strokeColor=#457B9D;fontColor=#1D3557;" parent="VKKfzKTdM1XF6nfhbhYF-34" vertex="1">
                    <mxGeometry width="180" height="40" as="geometry">
                        <mxRectangle width="180" height="40" as="alternateBounds"/>
                    </mxGeometry>
                </mxCell>
                <mxCell id="VKKfzKTdM1XF6nfhbhYF-36" value="Uu tien" style="shape=partialRectangle;html=1;whiteSpace=wrap;connectable=0;overflow=hidden;fillColor=none;top=0;left=0;bottom=0;right=0;pointerEvents=1;strokeColor=#457B9D;fontColor=#1D3557;" parent="VKKfzKTdM1XF6nfhbhYF-34" vertex="1">
                    <mxGeometry x="180" width="50" height="40" as="geometry">
                        <mxRectangle width="50" height="40" as="alternateBounds"/>
                    </mxGeometry>
                </mxCell>
                <mxCell id="VKKfzKTdM1XF6nfhbhYF-37" style="shape=partialRectangle;html=1;whiteSpace=wrap;connectable=0;overflow=hidden;fillColor=none;top=0;left=0;bottom=0;right=0;pointerEvents=1;strokeColor=#457B9D;fontColor=#1D3557;" parent="VKKfzKTdM1XF6nfhbhYF-34" vertex="1">
                    <mxGeometry x="230" width="250" height="40" as="geometry">
                        <mxRectangle width="250" height="40" as="alternateBounds"/>
                    </mxGeometry>
                </mxCell>
                <mxCell id="VKKfzKTdM1XF6nfhbhYF-38" style="shape=partialRectangle;collapsible=0;dropTarget=0;pointerEvents=0;fillColor=none;top=0;left=0;bottom=0;right=0;points=[[0,0.5],[1,0.5]];portConstraint=eastwest;strokeColor=#457B9D;fontColor=#1D3557;" parent="VKKfzKTdM1XF6nfhbhYF-21" vertex="1">
                    <mxGeometry y="160" width="480" height="40" as="geometry"/>
                </mxCell>
                <mxCell id="VKKfzKTdM1XF6nfhbhYF-39" value="" style="shape=partialRectangle;html=1;whiteSpace=wrap;connectable=0;overflow=hidden;fillColor=none;top=0;left=0;bottom=0;right=0;pointerEvents=1;strokeColor=#457B9D;fontColor=#1D3557;" parent="VKKfzKTdM1XF6nfhbhYF-38" vertex="1">
                    <mxGeometry width="180" height="40" as="geometry">
                        <mxRectangle width="180" height="40" as="alternateBounds"/>
                    </mxGeometry>
                </mxCell>
                <mxCell id="VKKfzKTdM1XF6nfhbhYF-40" value="Rui Ro" style="shape=partialRectangle;html=1;whiteSpace=wrap;connectable=0;overflow=hidden;fillColor=none;top=0;left=0;bottom=0;right=0;pointerEvents=1;strokeColor=#457B9D;fontColor=#1D3557;" parent="VKKfzKTdM1XF6nfhbhYF-38" vertex="1">
                    <mxGeometry x="180" width="50" height="40" as="geometry">
                        <mxRectangle width="50" height="40" as="alternateBounds"/>
                    </mxGeometry>
                </mxCell>
                <mxCell id="VKKfzKTdM1XF6nfhbhYF-41" style="shape=partialRectangle;html=1;whiteSpace=wrap;connectable=0;overflow=hidden;fillColor=none;top=0;left=0;bottom=0;right=0;pointerEvents=1;strokeColor=#457B9D;fontColor=#1D3557;" parent="VKKfzKTdM1XF6nfhbhYF-38" vertex="1">
                    <mxGeometry x="230" width="250" height="40" as="geometry">
                        <mxRectangle width="250" height="40" as="alternateBounds"/>
                    </mxGeometry>
                </mxCell>
                <mxCell id="VKKfzKTdM1XF6nfhbhYF-42" style="shape=partialRectangle;collapsible=0;dropTarget=0;pointerEvents=0;fillColor=none;top=0;left=0;bottom=0;right=0;points=[[0,0.5],[1,0.5]];portConstraint=eastwest;strokeColor=#457B9D;fontColor=#1D3557;" parent="VKKfzKTdM1XF6nfhbhYF-21" vertex="1">
                    <mxGeometry y="200" width="480" height="150" as="geometry"/>
                </mxCell>
                <mxCell id="VKKfzKTdM1XF6nfhbhYF-43" value="Kịch bản chính: 1 -&amp;gt; 2 -&amp;gt; 3&lt;br&gt;Kịch bản phụ: 1 -&amp;gt; 2 -&amp;gt; 3' -&amp;gt; .... &lt;br&gt;-&amp;gt; 3" style="shape=partialRectangle;html=1;whiteSpace=wrap;connectable=0;overflow=hidden;fillColor=none;top=0;left=0;bottom=0;right=0;pointerEvents=1;strokeColor=#457B9D;fontColor=#1D3557;" parent="VKKfzKTdM1XF6nfhbhYF-42" vertex="1">
                    <mxGeometry width="180" height="150" as="geometry">
                        <mxRectangle width="180" height="150" as="alternateBounds"/>
                    </mxGeometry>
                </mxCell>
                <mxCell id="VKKfzKTdM1XF6nfhbhYF-44" value="Kich ban" style="shape=partialRectangle;html=1;whiteSpace=wrap;connectable=0;overflow=hidden;fillColor=none;top=0;left=0;bottom=0;right=0;pointerEvents=1;strokeColor=#457B9D;fontColor=#1D3557;" parent="VKKfzKTdM1XF6nfhbhYF-42" vertex="1">
                    <mxGeometry x="180" width="50" height="150" as="geometry">
                        <mxRectangle width="50" height="150" as="alternateBounds"/>
                    </mxGeometry>
                </mxCell>
                <mxCell id="VKKfzKTdM1XF6nfhbhYF-45" value="1. Khách mua: tìm kiếm nhà theo một số tiêu chí riêng&lt;br&gt;2. Database: cung cấp thông tin các căn nhà theo tiêu chí của khách hàng&lt;br&gt;3. Khách mua: chọn được căn nhà ưng ý. Tiến hành ký hợp đồng mua nhà với công ty&lt;br&gt;3'. Khách mua: không chọn được căn nhà ưng ý sẽ tiếp tục tìm kiếm." style="shape=partialRectangle;html=1;whiteSpace=wrap;connectable=0;overflow=hidden;fillColor=none;top=0;left=0;bottom=0;right=0;pointerEvents=1;align=left;strokeColor=#457B9D;fontColor=#1D3557;" parent="VKKfzKTdM1XF6nfhbhYF-42" vertex="1">
                    <mxGeometry x="230" width="250" height="150" as="geometry">
                        <mxRectangle width="250" height="150" as="alternateBounds"/>
                    </mxGeometry>
                </mxCell>
                <mxCell id="VKKfzKTdM1XF6nfhbhYF-46" value="" style="shape=table;startSize=0;container=1;collapsible=0;childLayout=tableLayout;fillColor=#A8DADC;strokeColor=#457B9D;fontColor=#1D3557;" parent="1" vertex="1">
                    <mxGeometry x="430" y="720" width="480" height="280" as="geometry"/>
                </mxCell>
                <mxCell id="VKKfzKTdM1XF6nfhbhYF-47" value="" style="shape=partialRectangle;collapsible=0;dropTarget=0;pointerEvents=0;fillColor=none;top=0;left=0;bottom=0;right=0;points=[[0,0.5],[1,0.5]];portConstraint=eastwest;strokeColor=#457B9D;fontColor=#1D3557;" parent="VKKfzKTdM1XF6nfhbhYF-46" vertex="1">
                    <mxGeometry width="480" height="40" as="geometry"/>
                </mxCell>
                <mxCell id="VKKfzKTdM1XF6nfhbhYF-48" value="" style="shape=partialRectangle;html=1;whiteSpace=wrap;connectable=0;overflow=hidden;fillColor=none;top=0;left=0;bottom=0;right=0;pointerEvents=1;strokeColor=#457B9D;fontColor=#1D3557;" parent="VKKfzKTdM1XF6nfhbhYF-47" vertex="1">
                    <mxGeometry width="180" height="40" as="geometry">
                        <mxRectangle width="180" height="40" as="alternateBounds"/>
                    </mxGeometry>
                </mxCell>
                <mxCell id="VKKfzKTdM1XF6nfhbhYF-49" value="Tên UC" style="shape=partialRectangle;html=1;whiteSpace=wrap;connectable=0;overflow=hidden;fillColor=none;top=0;left=0;bottom=0;right=0;pointerEvents=1;strokeColor=#457B9D;fontColor=#1D3557;" parent="VKKfzKTdM1XF6nfhbhYF-47" vertex="1">
                    <mxGeometry x="180" width="50" height="40" as="geometry">
                        <mxRectangle width="50" height="40" as="alternateBounds"/>
                    </mxGeometry>
                </mxCell>
                <mxCell id="VKKfzKTdM1XF6nfhbhYF-50" value="Đăng bán" style="shape=partialRectangle;html=1;whiteSpace=wrap;connectable=0;overflow=hidden;fillColor=none;top=0;left=0;bottom=0;right=0;pointerEvents=1;strokeColor=#457B9D;fontColor=#1D3557;" parent="VKKfzKTdM1XF6nfhbhYF-47" vertex="1">
                    <mxGeometry x="230" width="250" height="40" as="geometry">
                        <mxRectangle width="250" height="40" as="alternateBounds"/>
                    </mxGeometry>
                </mxCell>
                <mxCell id="VKKfzKTdM1XF6nfhbhYF-51" value="" style="shape=partialRectangle;collapsible=0;dropTarget=0;pointerEvents=0;fillColor=none;top=0;left=0;bottom=0;right=0;points=[[0,0.5],[1,0.5]];portConstraint=eastwest;strokeColor=#457B9D;fontColor=#1D3557;" parent="VKKfzKTdM1XF6nfhbhYF-46" vertex="1">
                    <mxGeometry y="40" width="480" height="40" as="geometry"/>
                </mxCell>
                <mxCell id="VKKfzKTdM1XF6nfhbhYF-52" value="" style="shape=partialRectangle;html=1;whiteSpace=wrap;connectable=0;overflow=hidden;fillColor=none;top=0;left=0;bottom=0;right=0;pointerEvents=1;strokeColor=#457B9D;fontColor=#1D3557;" parent="VKKfzKTdM1XF6nfhbhYF-51" vertex="1">
                    <mxGeometry width="180" height="40" as="geometry">
                        <mxRectangle width="180" height="40" as="alternateBounds"/>
                    </mxGeometry>
                </mxCell>
                <mxCell id="VKKfzKTdM1XF6nfhbhYF-53" value="Actors" style="shape=partialRectangle;html=1;whiteSpace=wrap;connectable=0;overflow=hidden;fillColor=none;top=0;left=0;bottom=0;right=0;pointerEvents=1;strokeColor=#457B9D;fontColor=#1D3557;" parent="VKKfzKTdM1XF6nfhbhYF-51" vertex="1">
                    <mxGeometry x="180" width="50" height="40" as="geometry">
                        <mxRectangle width="50" height="40" as="alternateBounds"/>
                    </mxGeometry>
                </mxCell>
                <mxCell id="VKKfzKTdM1XF6nfhbhYF-54" value="Khách bán, Database" style="shape=partialRectangle;html=1;whiteSpace=wrap;connectable=0;overflow=hidden;fillColor=none;top=0;left=0;bottom=0;right=0;pointerEvents=1;strokeColor=#457B9D;fontColor=#1D3557;" parent="VKKfzKTdM1XF6nfhbhYF-51" vertex="1">
                    <mxGeometry x="230" width="250" height="40" as="geometry">
                        <mxRectangle width="250" height="40" as="alternateBounds"/>
                    </mxGeometry>
                </mxCell>
                <mxCell id="VKKfzKTdM1XF6nfhbhYF-55" value="" style="shape=partialRectangle;collapsible=0;dropTarget=0;pointerEvents=0;fillColor=none;top=0;left=0;bottom=0;right=0;points=[[0,0.5],[1,0.5]];portConstraint=eastwest;strokeColor=#457B9D;fontColor=#1D3557;" parent="VKKfzKTdM1XF6nfhbhYF-46" vertex="1">
                    <mxGeometry y="80" width="480" height="40" as="geometry"/>
                </mxCell>
                <mxCell id="VKKfzKTdM1XF6nfhbhYF-56" value="" style="shape=partialRectangle;html=1;whiteSpace=wrap;connectable=0;overflow=hidden;fillColor=none;top=0;left=0;bottom=0;right=0;pointerEvents=1;strokeColor=#457B9D;fontColor=#1D3557;" parent="VKKfzKTdM1XF6nfhbhYF-55" vertex="1">
                    <mxGeometry width="180" height="40" as="geometry">
                        <mxRectangle width="180" height="40" as="alternateBounds"/>
                    </mxGeometry>
                </mxCell>
                <mxCell id="VKKfzKTdM1XF6nfhbhYF-57" value="Mô tả" style="shape=partialRectangle;html=1;whiteSpace=wrap;connectable=0;overflow=hidden;fillColor=none;top=0;left=0;bottom=0;right=0;pointerEvents=1;strokeColor=#457B9D;fontColor=#1D3557;" parent="VKKfzKTdM1XF6nfhbhYF-55" vertex="1">
                    <mxGeometry x="180" width="50" height="40" as="geometry">
                        <mxRectangle width="50" height="40" as="alternateBounds"/>
                    </mxGeometry>
                </mxCell>
                <mxCell id="VKKfzKTdM1XF6nfhbhYF-58" value="Khách muốn bán nhà sẽ ký hợp đồng với công ty và cung cấp thông tin về căn nhà" style="shape=partialRectangle;html=1;whiteSpace=wrap;connectable=0;overflow=hidden;fillColor=none;top=0;left=0;bottom=0;right=0;pointerEvents=1;strokeColor=#457B9D;fontColor=#1D3557;" parent="VKKfzKTdM1XF6nfhbhYF-55" vertex="1">
                    <mxGeometry x="230" width="250" height="40" as="geometry">
                        <mxRectangle width="250" height="40" as="alternateBounds"/>
                    </mxGeometry>
                </mxCell>
                <mxCell id="VKKfzKTdM1XF6nfhbhYF-59" style="shape=partialRectangle;collapsible=0;dropTarget=0;pointerEvents=0;fillColor=none;top=0;left=0;bottom=0;right=0;points=[[0,0.5],[1,0.5]];portConstraint=eastwest;strokeColor=#457B9D;fontColor=#1D3557;" parent="VKKfzKTdM1XF6nfhbhYF-46" vertex="1">
                    <mxGeometry y="120" width="480" height="40" as="geometry"/>
                </mxCell>
                <mxCell id="VKKfzKTdM1XF6nfhbhYF-60" value="" style="shape=partialRectangle;html=1;whiteSpace=wrap;connectable=0;overflow=hidden;fillColor=none;top=0;left=0;bottom=0;right=0;pointerEvents=1;strokeColor=#457B9D;fontColor=#1D3557;" parent="VKKfzKTdM1XF6nfhbhYF-59" vertex="1">
                    <mxGeometry width="180" height="40" as="geometry">
                        <mxRectangle width="180" height="40" as="alternateBounds"/>
                    </mxGeometry>
                </mxCell>
                <mxCell id="VKKfzKTdM1XF6nfhbhYF-61" value="Uu tien" style="shape=partialRectangle;html=1;whiteSpace=wrap;connectable=0;overflow=hidden;fillColor=none;top=0;left=0;bottom=0;right=0;pointerEvents=1;strokeColor=#457B9D;fontColor=#1D3557;" parent="VKKfzKTdM1XF6nfhbhYF-59" vertex="1">
                    <mxGeometry x="180" width="50" height="40" as="geometry">
                        <mxRectangle width="50" height="40" as="alternateBounds"/>
                    </mxGeometry>
                </mxCell>
                <mxCell id="VKKfzKTdM1XF6nfhbhYF-62" style="shape=partialRectangle;html=1;whiteSpace=wrap;connectable=0;overflow=hidden;fillColor=none;top=0;left=0;bottom=0;right=0;pointerEvents=1;strokeColor=#457B9D;fontColor=#1D3557;" parent="VKKfzKTdM1XF6nfhbhYF-59" vertex="1">
                    <mxGeometry x="230" width="250" height="40" as="geometry">
                        <mxRectangle width="250" height="40" as="alternateBounds"/>
                    </mxGeometry>
                </mxCell>
                <mxCell id="VKKfzKTdM1XF6nfhbhYF-63" style="shape=partialRectangle;collapsible=0;dropTarget=0;pointerEvents=0;fillColor=none;top=0;left=0;bottom=0;right=0;points=[[0,0.5],[1,0.5]];portConstraint=eastwest;strokeColor=#457B9D;fontColor=#1D3557;" parent="VKKfzKTdM1XF6nfhbhYF-46" vertex="1">
                    <mxGeometry y="160" width="480" height="40" as="geometry"/>
                </mxCell>
                <mxCell id="VKKfzKTdM1XF6nfhbhYF-64" value="" style="shape=partialRectangle;html=1;whiteSpace=wrap;connectable=0;overflow=hidden;fillColor=none;top=0;left=0;bottom=0;right=0;pointerEvents=1;strokeColor=#457B9D;fontColor=#1D3557;" parent="VKKfzKTdM1XF6nfhbhYF-63" vertex="1">
                    <mxGeometry width="180" height="40" as="geometry">
                        <mxRectangle width="180" height="40" as="alternateBounds"/>
                    </mxGeometry>
                </mxCell>
                <mxCell id="VKKfzKTdM1XF6nfhbhYF-65" value="Rui Ro" style="shape=partialRectangle;html=1;whiteSpace=wrap;connectable=0;overflow=hidden;fillColor=none;top=0;left=0;bottom=0;right=0;pointerEvents=1;strokeColor=#457B9D;fontColor=#1D3557;" parent="VKKfzKTdM1XF6nfhbhYF-63" vertex="1">
                    <mxGeometry x="180" width="50" height="40" as="geometry">
                        <mxRectangle width="50" height="40" as="alternateBounds"/>
                    </mxGeometry>
                </mxCell>
                <mxCell id="VKKfzKTdM1XF6nfhbhYF-66" style="shape=partialRectangle;html=1;whiteSpace=wrap;connectable=0;overflow=hidden;fillColor=none;top=0;left=0;bottom=0;right=0;pointerEvents=1;strokeColor=#457B9D;fontColor=#1D3557;" parent="VKKfzKTdM1XF6nfhbhYF-63" vertex="1">
                    <mxGeometry x="230" width="250" height="40" as="geometry">
                        <mxRectangle width="250" height="40" as="alternateBounds"/>
                    </mxGeometry>
                </mxCell>
                <mxCell id="VKKfzKTdM1XF6nfhbhYF-67" style="shape=partialRectangle;collapsible=0;dropTarget=0;pointerEvents=0;fillColor=none;top=0;left=0;bottom=0;right=0;points=[[0,0.5],[1,0.5]];portConstraint=eastwest;strokeColor=#457B9D;fontColor=#1D3557;" parent="VKKfzKTdM1XF6nfhbhYF-46" vertex="1">
                    <mxGeometry y="200" width="480" height="80" as="geometry"/>
                </mxCell>
                <mxCell id="VKKfzKTdM1XF6nfhbhYF-68" value="" style="shape=partialRectangle;html=1;whiteSpace=wrap;connectable=0;overflow=hidden;fillColor=none;top=0;left=0;bottom=0;right=0;pointerEvents=1;strokeColor=#457B9D;fontColor=#1D3557;" parent="VKKfzKTdM1XF6nfhbhYF-67" vertex="1">
                    <mxGeometry width="180" height="80" as="geometry">
                        <mxRectangle width="180" height="80" as="alternateBounds"/>
                    </mxGeometry>
                </mxCell>
                <mxCell id="VKKfzKTdM1XF6nfhbhYF-69" value="Kich ban" style="shape=partialRectangle;html=1;whiteSpace=wrap;connectable=0;overflow=hidden;fillColor=none;top=0;left=0;bottom=0;right=0;pointerEvents=1;strokeColor=#457B9D;fontColor=#1D3557;" parent="VKKfzKTdM1XF6nfhbhYF-67" vertex="1">
                    <mxGeometry x="180" width="50" height="80" as="geometry">
                        <mxRectangle width="50" height="80" as="alternateBounds"/>
                    </mxGeometry>
                </mxCell>
                <mxCell id="VKKfzKTdM1XF6nfhbhYF-70" value="1: Khách bán: Liên hệ với công ty để ký hợp đồng và cung cấp thông tin&lt;br&gt;2. Database: Lưu lại thông tin và tiến hành đăng bài&lt;br&gt;" style="shape=partialRectangle;html=1;whiteSpace=wrap;connectable=0;overflow=hidden;fillColor=none;top=0;left=0;bottom=0;right=0;pointerEvents=1;align=left;strokeColor=#457B9D;fontColor=#1D3557;" parent="VKKfzKTdM1XF6nfhbhYF-67" vertex="1">
                    <mxGeometry x="230" width="250" height="80" as="geometry">
                        <mxRectangle width="250" height="80" as="alternateBounds"/>
                    </mxGeometry>
                </mxCell>
                <mxCell id="VKKfzKTdM1XF6nfhbhYF-71" value="" style="shape=table;startSize=0;container=1;collapsible=0;childLayout=tableLayout;fillColor=#A8DADC;strokeColor=#457B9D;fontColor=#1D3557;" parent="1" vertex="1">
                    <mxGeometry x="-90" y="720" width="480" height="340" as="geometry"/>
                </mxCell>
                <mxCell id="VKKfzKTdM1XF6nfhbhYF-72" value="" style="shape=partialRectangle;collapsible=0;dropTarget=0;pointerEvents=0;fillColor=none;top=0;left=0;bottom=0;right=0;points=[[0,0.5],[1,0.5]];portConstraint=eastwest;strokeColor=#457B9D;fontColor=#1D3557;" parent="VKKfzKTdM1XF6nfhbhYF-71" vertex="1">
                    <mxGeometry width="480" height="40" as="geometry"/>
                </mxCell>
                <mxCell id="VKKfzKTdM1XF6nfhbhYF-73" value="" style="shape=partialRectangle;html=1;whiteSpace=wrap;connectable=0;overflow=hidden;fillColor=none;top=0;left=0;bottom=0;right=0;pointerEvents=1;strokeColor=#457B9D;fontColor=#1D3557;" parent="VKKfzKTdM1XF6nfhbhYF-72" vertex="1">
                    <mxGeometry width="180" height="40" as="geometry">
                        <mxRectangle width="180" height="40" as="alternateBounds"/>
                    </mxGeometry>
                </mxCell>
                <mxCell id="VKKfzKTdM1XF6nfhbhYF-74" value="Tên UC" style="shape=partialRectangle;html=1;whiteSpace=wrap;connectable=0;overflow=hidden;fillColor=none;top=0;left=0;bottom=0;right=0;pointerEvents=1;strokeColor=#457B9D;fontColor=#1D3557;" parent="VKKfzKTdM1XF6nfhbhYF-72" vertex="1">
                    <mxGeometry x="180" width="50" height="40" as="geometry">
                        <mxRectangle width="50" height="40" as="alternateBounds"/>
                    </mxGeometry>
                </mxCell>
                <mxCell id="VKKfzKTdM1XF6nfhbhYF-75" value="Ký hợp đồng" style="shape=partialRectangle;html=1;whiteSpace=wrap;connectable=0;overflow=hidden;fillColor=none;top=0;left=0;bottom=0;right=0;pointerEvents=1;strokeColor=#457B9D;fontColor=#1D3557;" parent="VKKfzKTdM1XF6nfhbhYF-72" vertex="1">
                    <mxGeometry x="230" width="250" height="40" as="geometry">
                        <mxRectangle width="250" height="40" as="alternateBounds"/>
                    </mxGeometry>
                </mxCell>
                <mxCell id="VKKfzKTdM1XF6nfhbhYF-76" value="" style="shape=partialRectangle;collapsible=0;dropTarget=0;pointerEvents=0;fillColor=none;top=0;left=0;bottom=0;right=0;points=[[0,0.5],[1,0.5]];portConstraint=eastwest;strokeColor=#457B9D;fontColor=#1D3557;" parent="VKKfzKTdM1XF6nfhbhYF-71" vertex="1">
                    <mxGeometry y="40" width="480" height="40" as="geometry"/>
                </mxCell>
                <mxCell id="VKKfzKTdM1XF6nfhbhYF-77" value="" style="shape=partialRectangle;html=1;whiteSpace=wrap;connectable=0;overflow=hidden;fillColor=none;top=0;left=0;bottom=0;right=0;pointerEvents=1;strokeColor=#457B9D;fontColor=#1D3557;" parent="VKKfzKTdM1XF6nfhbhYF-76" vertex="1">
                    <mxGeometry width="180" height="40" as="geometry">
                        <mxRectangle width="180" height="40" as="alternateBounds"/>
                    </mxGeometry>
                </mxCell>
                <mxCell id="VKKfzKTdM1XF6nfhbhYF-78" value="Actors" style="shape=partialRectangle;html=1;whiteSpace=wrap;connectable=0;overflow=hidden;fillColor=none;top=0;left=0;bottom=0;right=0;pointerEvents=1;strokeColor=#457B9D;fontColor=#1D3557;" parent="VKKfzKTdM1XF6nfhbhYF-76" vertex="1">
                    <mxGeometry x="180" width="50" height="40" as="geometry">
                        <mxRectangle width="50" height="40" as="alternateBounds"/>
                    </mxGeometry>
                </mxCell>
                <mxCell id="VKKfzKTdM1XF6nfhbhYF-79" value="Khách bán, Khách mua, Database" style="shape=partialRectangle;html=1;whiteSpace=wrap;connectable=0;overflow=hidden;fillColor=none;top=0;left=0;bottom=0;right=0;pointerEvents=1;strokeColor=#457B9D;fontColor=#1D3557;" parent="VKKfzKTdM1XF6nfhbhYF-76" vertex="1">
                    <mxGeometry x="230" width="250" height="40" as="geometry">
                        <mxRectangle width="250" height="40" as="alternateBounds"/>
                    </mxGeometry>
                </mxCell>
                <mxCell id="VKKfzKTdM1XF6nfhbhYF-80" value="" style="shape=partialRectangle;collapsible=0;dropTarget=0;pointerEvents=0;fillColor=none;top=0;left=0;bottom=0;right=0;points=[[0,0.5],[1,0.5]];portConstraint=eastwest;strokeColor=#457B9D;fontColor=#1D3557;" parent="VKKfzKTdM1XF6nfhbhYF-71" vertex="1">
                    <mxGeometry y="80" width="480" height="70" as="geometry"/>
                </mxCell>
                <mxCell id="VKKfzKTdM1XF6nfhbhYF-81" value="" style="shape=partialRectangle;html=1;whiteSpace=wrap;connectable=0;overflow=hidden;fillColor=none;top=0;left=0;bottom=0;right=0;pointerEvents=1;strokeColor=#457B9D;fontColor=#1D3557;" parent="VKKfzKTdM1XF6nfhbhYF-80" vertex="1">
                    <mxGeometry width="180" height="70" as="geometry">
                        <mxRectangle width="180" height="70" as="alternateBounds"/>
                    </mxGeometry>
                </mxCell>
                <mxCell id="VKKfzKTdM1XF6nfhbhYF-82" value="Mô tả" style="shape=partialRectangle;html=1;whiteSpace=wrap;connectable=0;overflow=hidden;fillColor=none;top=0;left=0;bottom=0;right=0;pointerEvents=1;strokeColor=#457B9D;fontColor=#1D3557;" parent="VKKfzKTdM1XF6nfhbhYF-80" vertex="1">
                    <mxGeometry x="180" width="50" height="70" as="geometry">
                        <mxRectangle width="50" height="70" as="alternateBounds"/>
                    </mxGeometry>
                </mxCell>
                <mxCell id="VKKfzKTdM1XF6nfhbhYF-83" value="Khách muốn bán nhà sẽ liên hệ để ký hợp đồng với công ty&lt;br&gt;Nếu chọn được căn nhà ưng ý, khách mua sẽ tiến hành ký hợp đồng mua nhà" style="shape=partialRectangle;html=1;whiteSpace=wrap;connectable=0;overflow=hidden;fillColor=none;top=0;left=0;bottom=0;right=0;pointerEvents=1;strokeColor=#457B9D;fontColor=#1D3557;" parent="VKKfzKTdM1XF6nfhbhYF-80" vertex="1">
                    <mxGeometry x="230" width="250" height="70" as="geometry">
                        <mxRectangle width="250" height="70" as="alternateBounds"/>
                    </mxGeometry>
                </mxCell>
                <mxCell id="VKKfzKTdM1XF6nfhbhYF-84" style="shape=partialRectangle;collapsible=0;dropTarget=0;pointerEvents=0;fillColor=none;top=0;left=0;bottom=0;right=0;points=[[0,0.5],[1,0.5]];portConstraint=eastwest;strokeColor=#457B9D;fontColor=#1D3557;" parent="VKKfzKTdM1XF6nfhbhYF-71" vertex="1">
                    <mxGeometry y="150" width="480" height="40" as="geometry"/>
                </mxCell>
                <mxCell id="VKKfzKTdM1XF6nfhbhYF-85" value="" style="shape=partialRectangle;html=1;whiteSpace=wrap;connectable=0;overflow=hidden;fillColor=none;top=0;left=0;bottom=0;right=0;pointerEvents=1;strokeColor=#457B9D;fontColor=#1D3557;" parent="VKKfzKTdM1XF6nfhbhYF-84" vertex="1">
                    <mxGeometry width="180" height="40" as="geometry">
                        <mxRectangle width="180" height="40" as="alternateBounds"/>
                    </mxGeometry>
                </mxCell>
                <mxCell id="VKKfzKTdM1XF6nfhbhYF-86" value="Uu tien" style="shape=partialRectangle;html=1;whiteSpace=wrap;connectable=0;overflow=hidden;fillColor=none;top=0;left=0;bottom=0;right=0;pointerEvents=1;strokeColor=#457B9D;fontColor=#1D3557;" parent="VKKfzKTdM1XF6nfhbhYF-84" vertex="1">
                    <mxGeometry x="180" width="50" height="40" as="geometry">
                        <mxRectangle width="50" height="40" as="alternateBounds"/>
                    </mxGeometry>
                </mxCell>
                <mxCell id="VKKfzKTdM1XF6nfhbhYF-87" style="shape=partialRectangle;html=1;whiteSpace=wrap;connectable=0;overflow=hidden;fillColor=none;top=0;left=0;bottom=0;right=0;pointerEvents=1;strokeColor=#457B9D;fontColor=#1D3557;" parent="VKKfzKTdM1XF6nfhbhYF-84" vertex="1">
                    <mxGeometry x="230" width="250" height="40" as="geometry">
                        <mxRectangle width="250" height="40" as="alternateBounds"/>
                    </mxGeometry>
                </mxCell>
                <mxCell id="VKKfzKTdM1XF6nfhbhYF-88" style="shape=partialRectangle;collapsible=0;dropTarget=0;pointerEvents=0;fillColor=none;top=0;left=0;bottom=0;right=0;points=[[0,0.5],[1,0.5]];portConstraint=eastwest;strokeColor=#457B9D;fontColor=#1D3557;" parent="VKKfzKTdM1XF6nfhbhYF-71" vertex="1">
                    <mxGeometry y="190" width="480" height="40" as="geometry"/>
                </mxCell>
                <mxCell id="VKKfzKTdM1XF6nfhbhYF-89" value="" style="shape=partialRectangle;html=1;whiteSpace=wrap;connectable=0;overflow=hidden;fillColor=none;top=0;left=0;bottom=0;right=0;pointerEvents=1;strokeColor=#457B9D;fontColor=#1D3557;" parent="VKKfzKTdM1XF6nfhbhYF-88" vertex="1">
                    <mxGeometry width="180" height="40" as="geometry">
                        <mxRectangle width="180" height="40" as="alternateBounds"/>
                    </mxGeometry>
                </mxCell>
                <mxCell id="VKKfzKTdM1XF6nfhbhYF-90" value="Rui Ro" style="shape=partialRectangle;html=1;whiteSpace=wrap;connectable=0;overflow=hidden;fillColor=none;top=0;left=0;bottom=0;right=0;pointerEvents=1;strokeColor=#457B9D;fontColor=#1D3557;" parent="VKKfzKTdM1XF6nfhbhYF-88" vertex="1">
                    <mxGeometry x="180" width="50" height="40" as="geometry">
                        <mxRectangle width="50" height="40" as="alternateBounds"/>
                    </mxGeometry>
                </mxCell>
                <mxCell id="VKKfzKTdM1XF6nfhbhYF-91" style="shape=partialRectangle;html=1;whiteSpace=wrap;connectable=0;overflow=hidden;fillColor=none;top=0;left=0;bottom=0;right=0;pointerEvents=1;strokeColor=#457B9D;fontColor=#1D3557;" parent="VKKfzKTdM1XF6nfhbhYF-88" vertex="1">
                    <mxGeometry x="230" width="250" height="40" as="geometry">
                        <mxRectangle width="250" height="40" as="alternateBounds"/>
                    </mxGeometry>
                </mxCell>
                <mxCell id="VKKfzKTdM1XF6nfhbhYF-92" style="shape=partialRectangle;collapsible=0;dropTarget=0;pointerEvents=0;fillColor=none;top=0;left=0;bottom=0;right=0;points=[[0,0.5],[1,0.5]];portConstraint=eastwest;strokeColor=#457B9D;fontColor=#1D3557;" parent="VKKfzKTdM1XF6nfhbhYF-71" vertex="1">
                    <mxGeometry y="230" width="480" height="110" as="geometry"/>
                </mxCell>
                <mxCell id="VKKfzKTdM1XF6nfhbhYF-93" value="&lt;span&gt;Kịch bản 1: Đối với người bán:&lt;/span&gt;&lt;br&gt;&lt;span&gt;1 -&amp;gt; 2&lt;/span&gt;&lt;br&gt;&lt;span&gt;Kịch bản 2: Đối với người mua:&lt;/span&gt;&lt;br&gt;&lt;span&gt;1' -&amp;gt; 2&lt;/span&gt;" style="shape=partialRectangle;html=1;whiteSpace=wrap;connectable=0;overflow=hidden;fillColor=none;top=0;left=0;bottom=0;right=0;pointerEvents=1;strokeColor=#457B9D;fontColor=#1D3557;" parent="VKKfzKTdM1XF6nfhbhYF-92" vertex="1">
                    <mxGeometry width="180" height="110" as="geometry">
                        <mxRectangle width="180" height="110" as="alternateBounds"/>
                    </mxGeometry>
                </mxCell>
                <mxCell id="VKKfzKTdM1XF6nfhbhYF-94" value="Kich ban" style="shape=partialRectangle;html=1;whiteSpace=wrap;connectable=0;overflow=hidden;fillColor=none;top=0;left=0;bottom=0;right=0;pointerEvents=1;strokeColor=#457B9D;fontColor=#1D3557;" parent="VKKfzKTdM1XF6nfhbhYF-92" vertex="1">
                    <mxGeometry x="180" width="50" height="110" as="geometry">
                        <mxRectangle width="50" height="110" as="alternateBounds"/>
                    </mxGeometry>
                </mxCell>
                <mxCell id="VKKfzKTdM1XF6nfhbhYF-95" value="1: Khách bán: Liên hệ với công ty để ký hợp đồng đăng bán nhà&lt;br&gt;1': Khách mua: Sau khi chọn được nhà để mua, liên hệ với công ty để ký hợp đồng mua nhà.&lt;br&gt;2. Database: Lưu lại thông tin" style="shape=partialRectangle;html=1;whiteSpace=wrap;connectable=0;overflow=hidden;fillColor=none;top=0;left=0;bottom=0;right=0;pointerEvents=1;align=left;strokeColor=#457B9D;fontColor=#1D3557;" parent="VKKfzKTdM1XF6nfhbhYF-92" vertex="1">
                    <mxGeometry x="230" width="250" height="110" as="geometry">
                        <mxRectangle width="250" height="110" as="alternateBounds"/>
                    </mxGeometry>
                </mxCell>
                <mxCell id="VKKfzKTdM1XF6nfhbhYF-96" value="" style="shape=table;startSize=0;container=1;collapsible=0;childLayout=tableLayout;fillColor=#A8DADC;strokeColor=#457B9D;fontColor=#1D3557;" parent="1" vertex="1">
                    <mxGeometry x="430" y="1040" width="480" height="380" as="geometry"/>
                </mxCell>
                <mxCell id="VKKfzKTdM1XF6nfhbhYF-97" value="" style="shape=partialRectangle;collapsible=0;dropTarget=0;pointerEvents=0;fillColor=none;top=0;left=0;bottom=0;right=0;points=[[0,0.5],[1,0.5]];portConstraint=eastwest;strokeColor=#457B9D;fontColor=#1D3557;" parent="VKKfzKTdM1XF6nfhbhYF-96" vertex="1">
                    <mxGeometry width="480" height="40" as="geometry"/>
                </mxCell>
                <mxCell id="VKKfzKTdM1XF6nfhbhYF-98" value="" style="shape=partialRectangle;html=1;whiteSpace=wrap;connectable=0;overflow=hidden;fillColor=none;top=0;left=0;bottom=0;right=0;pointerEvents=1;strokeColor=#457B9D;fontColor=#1D3557;" parent="VKKfzKTdM1XF6nfhbhYF-97" vertex="1">
                    <mxGeometry width="180" height="40" as="geometry">
                        <mxRectangle width="180" height="40" as="alternateBounds"/>
                    </mxGeometry>
                </mxCell>
                <mxCell id="VKKfzKTdM1XF6nfhbhYF-99" value="Tên UC" style="shape=partialRectangle;html=1;whiteSpace=wrap;connectable=0;overflow=hidden;fillColor=none;top=0;left=0;bottom=0;right=0;pointerEvents=1;strokeColor=#457B9D;fontColor=#1D3557;" parent="VKKfzKTdM1XF6nfhbhYF-97" vertex="1">
                    <mxGeometry x="180" width="50" height="40" as="geometry">
                        <mxRectangle width="50" height="40" as="alternateBounds"/>
                    </mxGeometry>
                </mxCell>
                <mxCell id="VKKfzKTdM1XF6nfhbhYF-100" value="Cung cấp thông tin" style="shape=partialRectangle;html=1;whiteSpace=wrap;connectable=0;overflow=hidden;fillColor=none;top=0;left=0;bottom=0;right=0;pointerEvents=1;strokeColor=#457B9D;fontColor=#1D3557;" parent="VKKfzKTdM1XF6nfhbhYF-97" vertex="1">
                    <mxGeometry x="230" width="250" height="40" as="geometry">
                        <mxRectangle width="250" height="40" as="alternateBounds"/>
                    </mxGeometry>
                </mxCell>
                <mxCell id="VKKfzKTdM1XF6nfhbhYF-101" value="" style="shape=partialRectangle;collapsible=0;dropTarget=0;pointerEvents=0;fillColor=none;top=0;left=0;bottom=0;right=0;points=[[0,0.5],[1,0.5]];portConstraint=eastwest;strokeColor=#457B9D;fontColor=#1D3557;" parent="VKKfzKTdM1XF6nfhbhYF-96" vertex="1">
                    <mxGeometry y="40" width="480" height="40" as="geometry"/>
                </mxCell>
                <mxCell id="VKKfzKTdM1XF6nfhbhYF-102" value="" style="shape=partialRectangle;html=1;whiteSpace=wrap;connectable=0;overflow=hidden;fillColor=none;top=0;left=0;bottom=0;right=0;pointerEvents=1;strokeColor=#457B9D;fontColor=#1D3557;" parent="VKKfzKTdM1XF6nfhbhYF-101" vertex="1">
                    <mxGeometry width="180" height="40" as="geometry">
                        <mxRectangle width="180" height="40" as="alternateBounds"/>
                    </mxGeometry>
                </mxCell>
                <mxCell id="VKKfzKTdM1XF6nfhbhYF-103" value="Actors" style="shape=partialRectangle;html=1;whiteSpace=wrap;connectable=0;overflow=hidden;fillColor=none;top=0;left=0;bottom=0;right=0;pointerEvents=1;strokeColor=#457B9D;fontColor=#1D3557;" parent="VKKfzKTdM1XF6nfhbhYF-101" vertex="1">
                    <mxGeometry x="180" width="50" height="40" as="geometry">
                        <mxRectangle width="50" height="40" as="alternateBounds"/>
                    </mxGeometry>
                </mxCell>
                <mxCell id="VKKfzKTdM1XF6nfhbhYF-104" value="Khách bán, Database" style="shape=partialRectangle;html=1;whiteSpace=wrap;connectable=0;overflow=hidden;fillColor=none;top=0;left=0;bottom=0;right=0;pointerEvents=1;strokeColor=#457B9D;fontColor=#1D3557;" parent="VKKfzKTdM1XF6nfhbhYF-101" vertex="1">
                    <mxGeometry x="230" width="250" height="40" as="geometry">
                        <mxRectangle width="250" height="40" as="alternateBounds"/>
                    </mxGeometry>
                </mxCell>
                <mxCell id="VKKfzKTdM1XF6nfhbhYF-105" value="" style="shape=partialRectangle;collapsible=0;dropTarget=0;pointerEvents=0;fillColor=none;top=0;left=0;bottom=0;right=0;points=[[0,0.5],[1,0.5]];portConstraint=eastwest;strokeColor=#457B9D;fontColor=#1D3557;" parent="VKKfzKTdM1XF6nfhbhYF-96" vertex="1">
                    <mxGeometry y="80" width="480" height="70" as="geometry"/>
                </mxCell>
                <mxCell id="VKKfzKTdM1XF6nfhbhYF-106" value="" style="shape=partialRectangle;html=1;whiteSpace=wrap;connectable=0;overflow=hidden;fillColor=none;top=0;left=0;bottom=0;right=0;pointerEvents=1;strokeColor=#457B9D;fontColor=#1D3557;" parent="VKKfzKTdM1XF6nfhbhYF-105" vertex="1">
                    <mxGeometry width="180" height="70" as="geometry">
                        <mxRectangle width="180" height="70" as="alternateBounds"/>
                    </mxGeometry>
                </mxCell>
                <mxCell id="VKKfzKTdM1XF6nfhbhYF-107" value="Mô tả" style="shape=partialRectangle;html=1;whiteSpace=wrap;connectable=0;overflow=hidden;fillColor=none;top=0;left=0;bottom=0;right=0;pointerEvents=1;strokeColor=#457B9D;fontColor=#1D3557;" parent="VKKfzKTdM1XF6nfhbhYF-105" vertex="1">
                    <mxGeometry x="180" width="50" height="70" as="geometry">
                        <mxRectangle width="50" height="70" as="alternateBounds"/>
                    </mxGeometry>
                </mxCell>
                <mxCell id="VKKfzKTdM1XF6nfhbhYF-108" value="- Khách bán sẽ phải cung cấp thông tin nhà nếu muốn đăng bán&lt;br&gt;- Khách mua sẽ được cung cấp thông tin nhà theo tiêu chí tìm kiếm" style="shape=partialRectangle;html=1;whiteSpace=wrap;connectable=0;overflow=hidden;fillColor=none;top=0;left=0;bottom=0;right=0;pointerEvents=1;strokeColor=#457B9D;fontColor=#1D3557;" parent="VKKfzKTdM1XF6nfhbhYF-105" vertex="1">
                    <mxGeometry x="230" width="250" height="70" as="geometry">
                        <mxRectangle width="250" height="70" as="alternateBounds"/>
                    </mxGeometry>
                </mxCell>
                <mxCell id="VKKfzKTdM1XF6nfhbhYF-109" style="shape=partialRectangle;collapsible=0;dropTarget=0;pointerEvents=0;fillColor=none;top=0;left=0;bottom=0;right=0;points=[[0,0.5],[1,0.5]];portConstraint=eastwest;strokeColor=#457B9D;fontColor=#1D3557;" parent="VKKfzKTdM1XF6nfhbhYF-96" vertex="1">
                    <mxGeometry y="150" width="480" height="40" as="geometry"/>
                </mxCell>
                <mxCell id="VKKfzKTdM1XF6nfhbhYF-110" value="" style="shape=partialRectangle;html=1;whiteSpace=wrap;connectable=0;overflow=hidden;fillColor=none;top=0;left=0;bottom=0;right=0;pointerEvents=1;strokeColor=#457B9D;fontColor=#1D3557;" parent="VKKfzKTdM1XF6nfhbhYF-109" vertex="1">
                    <mxGeometry width="180" height="40" as="geometry">
                        <mxRectangle width="180" height="40" as="alternateBounds"/>
                    </mxGeometry>
                </mxCell>
                <mxCell id="VKKfzKTdM1XF6nfhbhYF-111" value="Uu tien" style="shape=partialRectangle;html=1;whiteSpace=wrap;connectable=0;overflow=hidden;fillColor=none;top=0;left=0;bottom=0;right=0;pointerEvents=1;strokeColor=#457B9D;fontColor=#1D3557;" parent="VKKfzKTdM1XF6nfhbhYF-109" vertex="1">
                    <mxGeometry x="180" width="50" height="40" as="geometry">
                        <mxRectangle width="50" height="40" as="alternateBounds"/>
                    </mxGeometry>
                </mxCell>
                <mxCell id="VKKfzKTdM1XF6nfhbhYF-112" style="shape=partialRectangle;html=1;whiteSpace=wrap;connectable=0;overflow=hidden;fillColor=none;top=0;left=0;bottom=0;right=0;pointerEvents=1;strokeColor=#457B9D;fontColor=#1D3557;" parent="VKKfzKTdM1XF6nfhbhYF-109" vertex="1">
                    <mxGeometry x="230" width="250" height="40" as="geometry">
                        <mxRectangle width="250" height="40" as="alternateBounds"/>
                    </mxGeometry>
                </mxCell>
                <mxCell id="VKKfzKTdM1XF6nfhbhYF-113" style="shape=partialRectangle;collapsible=0;dropTarget=0;pointerEvents=0;fillColor=none;top=0;left=0;bottom=0;right=0;points=[[0,0.5],[1,0.5]];portConstraint=eastwest;strokeColor=#457B9D;fontColor=#1D3557;" parent="VKKfzKTdM1XF6nfhbhYF-96" vertex="1">
                    <mxGeometry y="190" width="480" height="40" as="geometry"/>
                </mxCell>
                <mxCell id="VKKfzKTdM1XF6nfhbhYF-114" value="" style="shape=partialRectangle;html=1;whiteSpace=wrap;connectable=0;overflow=hidden;fillColor=none;top=0;left=0;bottom=0;right=0;pointerEvents=1;strokeColor=#457B9D;fontColor=#1D3557;" parent="VKKfzKTdM1XF6nfhbhYF-113" vertex="1">
                    <mxGeometry width="180" height="40" as="geometry">
                        <mxRectangle width="180" height="40" as="alternateBounds"/>
                    </mxGeometry>
                </mxCell>
                <mxCell id="VKKfzKTdM1XF6nfhbhYF-115" value="Rui Ro" style="shape=partialRectangle;html=1;whiteSpace=wrap;connectable=0;overflow=hidden;fillColor=none;top=0;left=0;bottom=0;right=0;pointerEvents=1;strokeColor=#457B9D;fontColor=#1D3557;" parent="VKKfzKTdM1XF6nfhbhYF-113" vertex="1">
                    <mxGeometry x="180" width="50" height="40" as="geometry">
                        <mxRectangle width="50" height="40" as="alternateBounds"/>
                    </mxGeometry>
                </mxCell>
                <mxCell id="VKKfzKTdM1XF6nfhbhYF-116" style="shape=partialRectangle;html=1;whiteSpace=wrap;connectable=0;overflow=hidden;fillColor=none;top=0;left=0;bottom=0;right=0;pointerEvents=1;strokeColor=#457B9D;fontColor=#1D3557;" parent="VKKfzKTdM1XF6nfhbhYF-113" vertex="1">
                    <mxGeometry x="230" width="250" height="40" as="geometry">
                        <mxRectangle width="250" height="40" as="alternateBounds"/>
                    </mxGeometry>
                </mxCell>
                <mxCell id="VKKfzKTdM1XF6nfhbhYF-117" style="shape=partialRectangle;collapsible=0;dropTarget=0;pointerEvents=0;fillColor=none;top=0;left=0;bottom=0;right=0;points=[[0,0.5],[1,0.5]];portConstraint=eastwest;strokeColor=#457B9D;fontColor=#1D3557;" parent="VKKfzKTdM1XF6nfhbhYF-96" vertex="1">
                    <mxGeometry y="230" width="480" height="150" as="geometry"/>
                </mxCell>
                <mxCell id="VKKfzKTdM1XF6nfhbhYF-118" value="Kịch bản 1: Đối với người bán:&lt;br&gt;1 -&amp;gt; 2&lt;br&gt;Kịch bản 2: Đối với người mua:&lt;br&gt;1' -&amp;gt; 2'" style="shape=partialRectangle;html=1;whiteSpace=wrap;connectable=0;overflow=hidden;fillColor=none;top=0;left=0;bottom=0;right=0;pointerEvents=1;strokeColor=#457B9D;fontColor=#1D3557;" parent="VKKfzKTdM1XF6nfhbhYF-117" vertex="1">
                    <mxGeometry width="180" height="150" as="geometry">
                        <mxRectangle width="180" height="150" as="alternateBounds"/>
                    </mxGeometry>
                </mxCell>
                <mxCell id="VKKfzKTdM1XF6nfhbhYF-119" value="Kich ban" style="shape=partialRectangle;html=1;whiteSpace=wrap;connectable=0;overflow=hidden;fillColor=none;top=0;left=0;bottom=0;right=0;pointerEvents=1;strokeColor=#457B9D;fontColor=#1D3557;" parent="VKKfzKTdM1XF6nfhbhYF-117" vertex="1">
                    <mxGeometry x="180" width="50" height="150" as="geometry">
                        <mxRectangle width="50" height="150" as="alternateBounds"/>
                    </mxGeometry>
                </mxCell>
                <mxCell id="VKKfzKTdM1XF6nfhbhYF-120" value="1: Khách bán: Liên hệ với công ty để đăng bán nhà sẽ phải cung cấp thông tin về căn nhà&lt;br&gt;2. Database: Lưu lại thông tin.&lt;br&gt;&lt;br&gt;1'. Khách mua: Tìm kiếm nhà theo tiêu chí&lt;br&gt;2'. Database: cung cấp thông tin các căn nhà theo tiêu chí của khách hàng" style="shape=partialRectangle;html=1;whiteSpace=wrap;connectable=0;overflow=hidden;fillColor=none;top=0;left=0;bottom=0;right=0;pointerEvents=1;align=left;strokeColor=#457B9D;fontColor=#1D3557;" parent="VKKfzKTdM1XF6nfhbhYF-117" vertex="1">
                    <mxGeometry x="230" width="250" height="150" as="geometry">
                        <mxRectangle width="250" height="150" as="alternateBounds"/>
                    </mxGeometry>
                </mxCell>
                <mxCell id="VKKfzKTdM1XF6nfhbhYF-121" style="edgeStyle=none;rounded=1;sketch=0;orthogonalLoop=1;jettySize=auto;html=1;entryX=0;entryY=0.5;entryDx=0;entryDy=0;fontColor=#1D3557;startArrow=open;startFill=0;endArrow=none;endFill=0;strokeColor=#457B9D;fillColor=#A8DADC;dashed=1;" parent="1" source="VKKfzKTdM1XF6nfhbhYF-18" target="VKKfzKTdM1XF6nfhbhYF-15" edge="1">
                    <mxGeometry relative="1" as="geometry">
                        <mxPoint x="410" y="350" as="sourcePoint"/>
                    </mxGeometry>
                </mxCell>
                <mxCell id="VKKfzKTdM1XF6nfhbhYF-122" value="&amp;lt;&amp;lt;extend&amp;gt;&amp;gt;&lt;span style=&quot;&quot;&gt;&lt;br&gt;&lt;/span&gt;" style="edgeLabel;html=1;align=center;verticalAlign=middle;resizable=0;points=[];fontColor=#1D3557;labelBackgroundColor=#A8DADC;" parent="VKKfzKTdM1XF6nfhbhYF-121" vertex="1" connectable="0">
                    <mxGeometry x="0.3087" relative="1" as="geometry">
                        <mxPoint x="-53" y="-87" as="offset"/>
                    </mxGeometry>
                </mxCell>
            </root>
        </mxGraphModel>
    </diagram>
    <diagram id="vP2snvvYR4zgYB2o03rD" name="ClassDiagram">
        <mxGraphModel dx="1054" dy="830" grid="1" gridSize="10" guides="1" tooltips="1" connect="1" arrows="1" fold="1" page="1" pageScale="1" pageWidth="850" pageHeight="1100" math="0" shadow="0">
            <root>
                <mxCell id="eMlXM0RZPaCh1GMdHz1S-0"/>
                <mxCell id="eMlXM0RZPaCh1GMdHz1S-1" parent="eMlXM0RZPaCh1GMdHz1S-0"/>
                <mxCell id="JUrQhNLOlVaV4DhQrpH3-5" value="&lt;p style=&quot;margin: 0px ; margin-top: 4px ; text-align: center&quot;&gt;&lt;/p&gt;&lt;div style=&quot;text-align: center ; height: 2px&quot;&gt;Công ty&lt;/div&gt;" style="verticalAlign=top;align=left;overflow=fill;fontSize=12;fontFamily=Helvetica;html=1;rounded=0;" vertex="1" parent="eMlXM0RZPaCh1GMdHz1S-1">
                    <mxGeometry x="345" y="40" width="140" height="60" as="geometry"/>
                </mxCell>
                <mxCell id="JUrQhNLOlVaV4DhQrpH3-13" style="edgeStyle=none;html=1;exitX=0.5;exitY=0;exitDx=0;exitDy=0;entryX=0.5;entryY=1;entryDx=0;entryDy=0;startArrow=none;startFill=0;endArrow=blockThin;endFill=0;startSize=10;endSize=10;strokeWidth=1;" edge="1" parent="eMlXM0RZPaCh1GMdHz1S-1" source="JUrQhNLOlVaV4DhQrpH3-6" target="JUrQhNLOlVaV4DhQrpH3-9">
                    <mxGeometry relative="1" as="geometry"/>
                </mxCell>
                <mxCell id="JUrQhNLOlVaV4DhQrpH3-25" value="is a" style="edgeLabel;html=1;align=center;verticalAlign=middle;resizable=0;points=[];" vertex="1" connectable="0" parent="JUrQhNLOlVaV4DhQrpH3-13">
                    <mxGeometry x="-0.2277" y="1" relative="1" as="geometry">
                        <mxPoint as="offset"/>
                    </mxGeometry>
                </mxCell>
                <mxCell id="JUrQhNLOlVaV4DhQrpH3-14" style="edgeStyle=none;html=1;exitX=0.5;exitY=1;exitDx=0;exitDy=0;entryX=0.5;entryY=0;entryDx=0;entryDy=0;startArrow=none;startFill=0;endArrow=blockThin;endFill=0;startSize=10;endSize=10;strokeWidth=1;" edge="1" parent="eMlXM0RZPaCh1GMdHz1S-1" source="JUrQhNLOlVaV4DhQrpH3-6" target="JUrQhNLOlVaV4DhQrpH3-10">
                    <mxGeometry relative="1" as="geometry"/>
                </mxCell>
                <mxCell id="JUrQhNLOlVaV4DhQrpH3-24" value="is a" style="edgeLabel;html=1;align=center;verticalAlign=middle;resizable=0;points=[];" vertex="1" connectable="0" parent="JUrQhNLOlVaV4DhQrpH3-14">
                    <mxGeometry x="-0.2111" y="-2" relative="1" as="geometry">
                        <mxPoint as="offset"/>
                    </mxGeometry>
                </mxCell>
                <mxCell id="JUrQhNLOlVaV4DhQrpH3-17" style="edgeStyle=none;html=1;exitX=1;exitY=0.5;exitDx=0;exitDy=0;entryX=0.5;entryY=1;entryDx=0;entryDy=0;startArrow=none;startFill=0;endArrow=diamondThin;endFill=1;startSize=10;endSize=10;strokeWidth=1;" edge="1" parent="eMlXM0RZPaCh1GMdHz1S-1" source="JUrQhNLOlVaV4DhQrpH3-6" target="JUrQhNLOlVaV4DhQrpH3-5">
                    <mxGeometry relative="1" as="geometry"/>
                </mxCell>
                <mxCell id="JUrQhNLOlVaV4DhQrpH3-28" value="composition" style="edgeLabel;html=1;align=center;verticalAlign=middle;resizable=0;points=[];" vertex="1" connectable="0" parent="JUrQhNLOlVaV4DhQrpH3-17">
                    <mxGeometry x="-0.17" y="-1" relative="1" as="geometry">
                        <mxPoint as="offset"/>
                    </mxGeometry>
                </mxCell>
                <mxCell id="JUrQhNLOlVaV4DhQrpH3-22" style="edgeStyle=none;html=1;exitX=1;exitY=0.5;exitDx=0;exitDy=0;entryX=0.5;entryY=0;entryDx=0;entryDy=0;startArrow=none;startFill=0;endArrow=diamondThin;endFill=1;startSize=10;endSize=10;strokeWidth=1;" edge="1" parent="eMlXM0RZPaCh1GMdHz1S-1" source="JUrQhNLOlVaV4DhQrpH3-6" target="JUrQhNLOlVaV4DhQrpH3-8">
                    <mxGeometry relative="1" as="geometry"/>
                </mxCell>
                <mxCell id="amQ40zOLqqF47zLBXN8J-1" value="composition" style="edgeLabel;html=1;align=center;verticalAlign=middle;resizable=0;points=[];" vertex="1" connectable="0" parent="JUrQhNLOlVaV4DhQrpH3-22">
                    <mxGeometry x="-0.2267" relative="1" as="geometry">
                        <mxPoint as="offset"/>
                    </mxGeometry>
                </mxCell>
                <mxCell id="JUrQhNLOlVaV4DhQrpH3-6" value="&lt;p style=&quot;margin: 0px ; margin-top: 4px ; text-align: center&quot;&gt;&lt;/p&gt;&lt;div style=&quot;text-align: center ; height: 2px&quot;&gt;Hợp đồng&lt;/div&gt;" style="verticalAlign=top;align=left;overflow=fill;fontSize=12;fontFamily=Helvetica;html=1;rounded=0;" vertex="1" parent="eMlXM0RZPaCh1GMdHz1S-1">
                    <mxGeometry x="45" y="250" width="140" height="60" as="geometry"/>
                </mxCell>
                <mxCell id="JUrQhNLOlVaV4DhQrpH3-15" style="edgeStyle=none;html=1;exitX=0.5;exitY=1;exitDx=0;exitDy=0;entryX=0.5;entryY=0;entryDx=0;entryDy=0;startArrow=none;startFill=0;endArrow=blockThin;endFill=0;startSize=10;endSize=10;strokeWidth=1;" edge="1" parent="eMlXM0RZPaCh1GMdHz1S-1" source="JUrQhNLOlVaV4DhQrpH3-7" target="JUrQhNLOlVaV4DhQrpH3-11">
                    <mxGeometry relative="1" as="geometry"/>
                </mxCell>
                <mxCell id="JUrQhNLOlVaV4DhQrpH3-27" value="is a" style="edgeLabel;html=1;align=center;verticalAlign=middle;resizable=0;points=[];" vertex="1" connectable="0" parent="JUrQhNLOlVaV4DhQrpH3-15">
                    <mxGeometry x="-0.3426" y="2" relative="1" as="geometry">
                        <mxPoint x="-4" y="1" as="offset"/>
                    </mxGeometry>
                </mxCell>
                <mxCell id="JUrQhNLOlVaV4DhQrpH3-16" style="edgeStyle=none;html=1;exitX=0.5;exitY=0;exitDx=0;exitDy=0;entryX=0.5;entryY=1;entryDx=0;entryDy=0;startArrow=none;startFill=0;endArrow=blockThin;endFill=0;startSize=10;endSize=10;strokeWidth=1;" edge="1" parent="eMlXM0RZPaCh1GMdHz1S-1" source="JUrQhNLOlVaV4DhQrpH3-7" target="JUrQhNLOlVaV4DhQrpH3-12">
                    <mxGeometry relative="1" as="geometry"/>
                </mxCell>
                <mxCell id="JUrQhNLOlVaV4DhQrpH3-26" value="is a" style="edgeLabel;html=1;align=center;verticalAlign=middle;resizable=0;points=[];" vertex="1" connectable="0" parent="JUrQhNLOlVaV4DhQrpH3-16">
                    <mxGeometry x="-0.1706" y="-1" relative="1" as="geometry">
                        <mxPoint as="offset"/>
                    </mxGeometry>
                </mxCell>
                <mxCell id="JUrQhNLOlVaV4DhQrpH3-18" style="edgeStyle=none;html=1;exitX=0;exitY=0.5;exitDx=0;exitDy=0;startArrow=none;startFill=0;endArrow=diamondThin;endFill=0;startSize=10;endSize=10;strokeWidth=1;" edge="1" parent="eMlXM0RZPaCh1GMdHz1S-1" source="JUrQhNLOlVaV4DhQrpH3-7">
                    <mxGeometry relative="1" as="geometry">
                        <mxPoint x="415" y="100" as="targetPoint"/>
                    </mxGeometry>
                </mxCell>
                <mxCell id="JUrQhNLOlVaV4DhQrpH3-29" value="aggregation" style="edgeLabel;html=1;align=center;verticalAlign=middle;resizable=0;points=[];" vertex="1" connectable="0" parent="JUrQhNLOlVaV4DhQrpH3-18">
                    <mxGeometry x="-0.1442" relative="1" as="geometry">
                        <mxPoint y="3" as="offset"/>
                    </mxGeometry>
                </mxCell>
                <mxCell id="JUrQhNLOlVaV4DhQrpH3-23" style="edgeStyle=none;html=1;exitX=0;exitY=0.5;exitDx=0;exitDy=0;entryX=0.5;entryY=0;entryDx=0;entryDy=0;startArrow=none;startFill=0;endArrow=open;endFill=0;startSize=10;endSize=10;strokeWidth=1;" edge="1" parent="eMlXM0RZPaCh1GMdHz1S-1" source="JUrQhNLOlVaV4DhQrpH3-7" target="JUrQhNLOlVaV4DhQrpH3-8">
                    <mxGeometry relative="1" as="geometry"/>
                </mxCell>
                <mxCell id="amQ40zOLqqF47zLBXN8J-0" value="association" style="edgeLabel;html=1;align=center;verticalAlign=middle;resizable=0;points=[];" vertex="1" connectable="0" parent="JUrQhNLOlVaV4DhQrpH3-23">
                    <mxGeometry x="-0.2034" y="-2" relative="1" as="geometry">
                        <mxPoint as="offset"/>
                    </mxGeometry>
                </mxCell>
                <mxCell id="JUrQhNLOlVaV4DhQrpH3-7" value="&lt;p style=&quot;margin: 0px ; margin-top: 4px ; text-align: center&quot;&gt;&lt;/p&gt;&lt;div style=&quot;text-align: center ; height: 2px&quot;&gt;Khách hàng&lt;/div&gt;" style="verticalAlign=top;align=left;overflow=fill;fontSize=12;fontFamily=Helvetica;html=1;rounded=0;" vertex="1" parent="eMlXM0RZPaCh1GMdHz1S-1">
                    <mxGeometry x="665" y="250" width="140" height="60" as="geometry"/>
                </mxCell>
                <mxCell id="JUrQhNLOlVaV4DhQrpH3-19" style="edgeStyle=none;html=1;exitX=0.5;exitY=0;exitDx=0;exitDy=0;startArrow=none;startFill=0;endArrow=diamondThin;endFill=0;startSize=10;endSize=10;strokeWidth=1;" edge="1" parent="eMlXM0RZPaCh1GMdHz1S-1" source="JUrQhNLOlVaV4DhQrpH3-8">
                    <mxGeometry relative="1" as="geometry">
                        <mxPoint x="415" y="100" as="targetPoint"/>
                    </mxGeometry>
                </mxCell>
                <mxCell id="JUrQhNLOlVaV4DhQrpH3-30" value="aggregation" style="edgeLabel;html=1;align=center;verticalAlign=middle;resizable=0;points=[];" vertex="1" connectable="0" parent="JUrQhNLOlVaV4DhQrpH3-19">
                    <mxGeometry x="0.065" y="-1" relative="1" as="geometry">
                        <mxPoint as="offset"/>
                    </mxGeometry>
                </mxCell>
                <mxCell id="JUrQhNLOlVaV4DhQrpH3-8" value="&lt;p style=&quot;margin: 0px ; margin-top: 4px ; text-align: center&quot;&gt;&lt;/p&gt;&lt;div style=&quot;text-align: center ; height: 2px&quot;&gt;Thông tin nhà&lt;/div&gt;" style="verticalAlign=top;align=left;overflow=fill;fontSize=12;fontFamily=Helvetica;html=1;rounded=0;" vertex="1" parent="eMlXM0RZPaCh1GMdHz1S-1">
                    <mxGeometry x="345" y="500" width="140" height="60" as="geometry"/>
                </mxCell>
                <mxCell id="JUrQhNLOlVaV4DhQrpH3-21" style="edgeStyle=none;html=1;exitX=1;exitY=0.5;exitDx=0;exitDy=0;entryX=0;entryY=0.5;entryDx=0;entryDy=0;startArrow=none;startFill=0;endArrow=diamondThin;endFill=1;startSize=10;endSize=10;strokeWidth=1;" edge="1" parent="eMlXM0RZPaCh1GMdHz1S-1" source="JUrQhNLOlVaV4DhQrpH3-9" target="JUrQhNLOlVaV4DhQrpH3-12">
                    <mxGeometry relative="1" as="geometry"/>
                </mxCell>
                <mxCell id="3fhxWNhCApq1TGjOx3RQ-1" value="composition" style="edgeLabel;html=1;align=center;verticalAlign=middle;resizable=0;points=[];" vertex="1" connectable="0" parent="JUrQhNLOlVaV4DhQrpH3-21">
                    <mxGeometry x="-0.2857" relative="1" as="geometry">
                        <mxPoint as="offset"/>
                    </mxGeometry>
                </mxCell>
                <mxCell id="JUrQhNLOlVaV4DhQrpH3-9" value="&lt;p style=&quot;margin: 0px ; margin-top: 4px ; text-align: center&quot;&gt;&lt;/p&gt;&lt;div style=&quot;text-align: center ; height: 2px&quot;&gt;Hợp đồng mua&lt;/div&gt;" style="verticalAlign=top;align=left;overflow=fill;fontSize=12;fontFamily=Helvetica;html=1;rounded=0;" vertex="1" parent="eMlXM0RZPaCh1GMdHz1S-1">
                    <mxGeometry x="135" y="120" width="140" height="60" as="geometry"/>
                </mxCell>
                <mxCell id="JUrQhNLOlVaV4DhQrpH3-20" style="edgeStyle=none;html=1;exitX=1;exitY=0.5;exitDx=0;exitDy=0;entryX=0;entryY=0.5;entryDx=0;entryDy=0;startArrow=none;startFill=0;endArrow=diamondThin;endFill=1;startSize=10;endSize=10;strokeWidth=1;" edge="1" parent="eMlXM0RZPaCh1GMdHz1S-1" source="JUrQhNLOlVaV4DhQrpH3-10" target="JUrQhNLOlVaV4DhQrpH3-11">
                    <mxGeometry relative="1" as="geometry"/>
                </mxCell>
                <mxCell id="3fhxWNhCApq1TGjOx3RQ-0" value="composition" style="edgeLabel;html=1;align=center;verticalAlign=middle;resizable=0;points=[];" vertex="1" connectable="0" parent="JUrQhNLOlVaV4DhQrpH3-20">
                    <mxGeometry x="-0.2643" y="-2" relative="1" as="geometry">
                        <mxPoint x="72" y="-2" as="offset"/>
                    </mxGeometry>
                </mxCell>
                <mxCell id="JUrQhNLOlVaV4DhQrpH3-10" value="&lt;p style=&quot;margin: 0px ; margin-top: 4px ; text-align: center&quot;&gt;&lt;/p&gt;&lt;div style=&quot;text-align: center ; height: 2px&quot;&gt;Hợp đồng rao bán&lt;/div&gt;" style="verticalAlign=top;align=left;overflow=fill;fontSize=12;fontFamily=Helvetica;html=1;rounded=0;" vertex="1" parent="eMlXM0RZPaCh1GMdHz1S-1">
                    <mxGeometry x="135" y="400" width="140" height="60" as="geometry"/>
                </mxCell>
                <mxCell id="JUrQhNLOlVaV4DhQrpH3-11" value="&lt;p style=&quot;margin: 0px ; margin-top: 4px ; text-align: center&quot;&gt;&lt;/p&gt;&lt;div style=&quot;text-align: center ; height: 2px&quot;&gt;Khách bán nhà&lt;/div&gt;" style="verticalAlign=top;align=left;overflow=fill;fontSize=12;fontFamily=Helvetica;html=1;rounded=0;" vertex="1" parent="eMlXM0RZPaCh1GMdHz1S-1">
                    <mxGeometry x="555" y="400" width="140" height="60" as="geometry"/>
                </mxCell>
                <mxCell id="JUrQhNLOlVaV4DhQrpH3-12" value="&lt;p style=&quot;margin: 0px ; margin-top: 4px ; text-align: center&quot;&gt;&lt;/p&gt;&lt;div style=&quot;text-align: center ; height: 2px&quot;&gt;Khách mua nhà&lt;/div&gt;" style="verticalAlign=top;align=left;overflow=fill;fontSize=12;fontFamily=Helvetica;html=1;rounded=0;" vertex="1" parent="eMlXM0RZPaCh1GMdHz1S-1">
                    <mxGeometry x="555" y="120" width="140" height="60" as="geometry"/>
                </mxCell>
            </root>
        </mxGraphModel>
    </diagram>
</mxfile>